<?xml version="1.0" encoding="UTF-8"?>
<svg xmlns="http://www.w3.org/2000/svg" xmlns:xlink="http://www.w3.org/1999/xlink" width="45px" height="45px" viewBox="0 0 45 51" version="1.1">
<g id="surface1">
<path style=" stroke:none;fill-rule:nonzero;fill:rgb(0%,0%,0%);fill-opacity:1;" d="M 15.839844 3.832031 C 12.175781 5.929688 7.089844 8.789062 4.589844 10.207031 L 0 12.792969 L 0 38.230469 L 1.679688 39.160156 C 3.726562 40.324219 10.777344 44.328125 17.347656 48.078125 C 20.085938 49.625 22.414062 50.894531 22.523438 50.894531 C 22.652344 50.894531 25.753906 49.179688 29.417969 47.082031 C 33.101562 45.007812 38.101562 42.148438 40.582031 40.769531 L 45.042969 38.25 L 45.042969 12.8125 L 38.535156 9.128906 C 34.933594 7.09375 30.171875 4.382812 27.910156 3.113281 C 25.667969 1.84375 23.535156 0.636719 23.167969 0.421875 L 22.523438 0.0429688 Z M 23.707031 4.746094 C 23.707031 4.890625 23.253906 5.1875 22.714844 5.402344 L 21.722656 5.78125 L 21.851562 6.90625 C 22.003906 8.238281 21.660156 8.640625 21.359375 7.476562 C 20.90625 5.738281 20.925781 5.695312 22.175781 4.957031 C 23.339844 4.257812 23.707031 4.214844 23.707031 4.746094 Z M 17.371094 8.046875 C 17.714844 9.871094 17.738281 10.378906 17.523438 10.460938 C 17.347656 10.527344 17.199219 10.292969 17.113281 9.785156 C 17.046875 9.359375 16.832031 8.34375 16.679688 7.5625 C 16.402344 6.183594 16.421875 5.71875 16.789062 5.71875 C 16.875 5.71875 17.132812 6.757812 17.371094 8.046875 Z M 20.796875 7.984375 L 21.183594 10.039062 L 20.453125 10.632812 C 20.066406 10.949219 19.65625 11.226562 19.570312 11.226562 C 19.179688 11.226562 19.441406 10.570312 19.933594 10.25 C 20.472656 9.910156 20.691406 9.105469 20.238281 9.105469 C 20.085938 9.105469 19.65625 9.320312 19.246094 9.550781 C 18.640625 9.933594 18.449219 9.953125 18.320312 9.722656 C 18.058594 9.339844 17.800781 7.414062 17.996094 7.242188 C 18.191406 7.03125 18.535156 7.667969 18.535156 8.28125 C 18.535156 9.042969 18.683594 9.128906 19.527344 8.726562 C 20.324219 8.324219 20.324219 8.300781 20.042969 7.09375 C 19.871094 6.375 20 5.972656 20.386719 5.929688 C 20.410156 5.929688 20.601562 6.863281 20.796875 7.984375 Z M 13.167969 10.3125 C 13.382812 11.457031 13.578125 12.476562 13.578125 12.601562 C 13.578125 12.707031 13.082031 13.089844 12.457031 13.40625 C 11.164062 14.125 10.882812 13.976562 10.667969 12.453125 L 10.515625 11.480469 L 11.53125 10.90625 C 12.542969 10.3125 12.542969 10.3125 12.390625 9.402344 C 12.261719 8.535156 12.390625 7.878906 12.652344 8.132812 C 12.714844 8.175781 12.929688 9.171875 13.167969 10.3125 Z M 16.378906 9.023438 C 16.507812 9.320312 16.59375 9.871094 16.59375 10.273438 C 16.59375 10.863281 16.464844 11.054688 15.648438 11.5625 C 14.785156 12.113281 14.699219 12.21875 14.804688 12.8125 C 15 13.808594 15 13.808594 14.742188 13.914062 C 14.589844 13.957031 14.351562 13.195312 14.074219 11.859375 L 13.664062 9.722656 L 14.742188 9.105469 C 15.34375 8.769531 15.90625 8.472656 16.011719 8.472656 C 16.097656 8.472656 16.273438 8.726562 16.378906 9.023438 Z M 26.507812 16.414062 C 26.746094 16.6875 26.722656 16.710938 26.421875 16.605469 C 26.226562 16.542969 26.078125 16.394531 26.078125 16.285156 C 26.078125 16.011719 26.207031 16.054688 26.507812 16.414062 Z M 25.949219 16.648438 C 26.140625 16.710938 26.292969 16.878906 26.292969 16.984375 C 26.292969 17.113281 26.140625 17.15625 25.96875 17.070312 C 25.796875 17.007812 25.648438 17.050781 25.648438 17.15625 C 25.648438 17.367188 25.96875 17.453125 26.402344 17.367188 C 26.53125 17.347656 26.550781 17.410156 26.445312 17.496094 C 26.035156 17.898438 25.472656 17.769531 25.386719 17.261719 C 25.238281 16.5625 25.367188 16.433594 25.949219 16.648438 Z M 40.238281 17.28125 C 40.582031 17.8125 40.582031 17.855469 40.066406 18.257812 C 39.613281 18.617188 39.613281 18.636719 40.023438 18.445312 C 40.710938 18.109375 40.839844 18.152344 41.140625 18.765625 C 41.445312 19.421875 41.488281 19.335938 37.757812 23.234375 C 35.539062 25.5625 35.042969 25.964844 33.640625 26.601562 C 32.78125 26.984375 31.984375 27.257812 31.875 27.195312 C 31.765625 27.128906 31.226562 27.238281 30.710938 27.449219 C 29.460938 27.914062 28.234375 27.746094 27.433594 27.023438 C 27.070312 26.6875 26.679688 26.515625 26.402344 26.582031 C 26.164062 26.644531 26.097656 26.621094 26.25 26.558594 C 26.636719 26.367188 26.574219 25.839844 26.140625 25.816406 C 25.925781 25.816406 25.863281 25.753906 26.011719 25.710938 C 26.183594 25.628906 26.183594 25.394531 26.054688 24.929688 C 25.96875 24.546875 25.90625 24.058594 25.96875 23.828125 C 26.011719 23.59375 26.054688 23.277344 26.054688 23.148438 C 26.078125 23 26.550781 22.386719 27.132812 21.816406 C 27.714844 21.222656 28.234375 20.671875 28.277344 20.585938 C 28.320312 20.5 28.945312 20.035156 29.699219 19.527344 C 30.925781 18.679688 31.378906 18.53125 35.085938 17.683594 C 37.304688 17.175781 39.289062 16.773438 39.484375 16.753906 C 39.699219 16.730469 40.023438 16.984375 40.238281 17.28125 Z M 24.570312 17.367188 C 24.570312 17.472656 24.417969 17.578125 24.222656 17.578125 C 24.050781 17.578125 23.945312 17.664062 24.007812 17.769531 C 24.09375 17.875 24.007812 18.023438 23.878906 18.066406 C 23.726562 18.128906 23.921875 18.191406 24.332031 18.191406 C 25 18.214844 25.042969 18.234375 24.699219 18.488281 C 24.351562 18.742188 24.351562 18.785156 24.65625 19.039062 C 24.871094 19.210938 25.109375 19.253906 25.28125 19.144531 C 25.429688 19.039062 25.367188 19.125 25.109375 19.359375 C 24.871094 19.570312 24.675781 19.824219 24.675781 19.910156 C 24.675781 20.207031 24.398438 20.375 24.265625 20.164062 C 24.203125 20.058594 24.289062 19.84375 24.460938 19.695312 C 24.71875 19.484375 24.675781 19.359375 24.203125 18.851562 C 23.726562 18.320312 23.578125 18.257812 23.191406 18.46875 C 22.929688 18.59375 23.082031 18.339844 23.554688 17.917969 C 24.398438 17.113281 24.570312 17.027344 24.570312 17.367188 Z M 23.058594 19.292969 C 23.058594 19.398438 22.800781 19.484375 22.476562 19.464844 C 22.132812 19.464844 22.003906 19.398438 22.15625 19.335938 C 22.285156 19.292969 22.371094 19.167969 22.304688 19.0625 C 22.242188 18.976562 22.390625 18.933594 22.628906 18.996094 C 22.867188 19.0625 23.058594 19.1875 23.058594 19.292969 Z M 20.992188 19.507812 C 20.925781 19.613281 20.777344 19.65625 20.667969 19.570312 C 20.558594 19.507812 20.515625 19.359375 20.601562 19.253906 C 20.667969 19.144531 20.820312 19.105469 20.925781 19.1875 C 21.035156 19.253906 21.078125 19.398438 20.992188 19.507812 Z M 23.707031 19.695312 C 23.707031 19.804688 23.621094 19.910156 23.492188 19.910156 C 23.382812 19.910156 23.277344 19.804688 23.277344 19.695312 C 23.277344 19.570312 23.382812 19.484375 23.492188 19.484375 C 23.621094 19.484375 23.707031 19.570312 23.707031 19.695312 Z M 14.117188 19.910156 C 14.050781 20.015625 13.773438 20.121094 13.511719 20.097656 C 13.058594 20.097656 13.058594 20.078125 13.46875 19.910156 C 14.074219 19.65625 14.265625 19.65625 14.117188 19.910156 Z M 22.304688 19.910156 C 22.242188 20.015625 22.070312 20.121094 21.960938 20.121094 C 21.832031 20.121094 21.808594 20.015625 21.875 19.910156 C 21.941406 19.78125 22.113281 19.695312 22.21875 19.695312 C 22.347656 19.695312 22.371094 19.78125 22.304688 19.910156 Z M 21.445312 20.121094 C 21.507812 20.226562 21.464844 20.332031 21.359375 20.332031 C 21.226562 20.332031 21.121094 20.226562 21.121094 20.121094 C 21.121094 19.992188 21.164062 19.910156 21.207031 19.910156 C 21.273438 19.910156 21.378906 19.992188 21.445312 20.121094 Z M 12.132812 20.269531 C 11.703125 20.351562 11.636719 20.5 11.636719 21.304688 C 11.636719 22.132812 11.703125 22.238281 12.132812 22.257812 C 12.476562 22.28125 12.5 22.324219 12.242188 22.386719 C 11.550781 22.554688 10.992188 22.070312 11.011719 21.328125 L 11.054688 20.648438 L 11.207031 21.390625 C 11.359375 22.109375 11.359375 22.109375 11.402344 21.117188 C 11.421875 20.164062 11.445312 20.121094 12.027344 20.140625 C 12.523438 20.183594 12.542969 20.183594 12.132812 20.269531 Z M 14.65625 20.332031 C 14.65625 20.4375 14.613281 20.542969 14.570312 20.542969 C 14.503906 20.542969 14.398438 20.4375 14.332031 20.332031 C 14.265625 20.207031 14.308594 20.121094 14.417969 20.121094 C 14.546875 20.121094 14.65625 20.207031 14.65625 20.332031 Z M 13.945312 21.117188 C 13.878906 21.328125 13.835938 21.199219 13.835938 20.863281 C 13.835938 20.5 13.878906 20.351562 13.945312 20.480469 C 13.988281 20.628906 13.988281 20.925781 13.945312 21.117188 Z M 23.945312 20.691406 C 23.988281 20.671875 23.792969 20.839844 23.511719 21.074219 C 22.910156 21.539062 22.199219 21.707031 22.199219 21.371094 C 22.199219 20.945312 23.148438 20.351562 23.511719 20.566406 C 23.707031 20.648438 23.902344 20.714844 23.945312 20.691406 Z M 21.984375 20.753906 C 21.984375 20.863281 21.898438 20.96875 21.765625 20.96875 C 21.660156 20.96875 21.550781 20.863281 21.550781 20.753906 C 21.550781 20.628906 21.660156 20.542969 21.765625 20.542969 C 21.898438 20.542969 21.984375 20.628906 21.984375 20.753906 Z M 12.003906 21.644531 C 11.941406 21.792969 11.898438 21.6875 11.898438 21.390625 C 11.898438 21.09375 11.941406 20.988281 12.003906 21.117188 C 12.046875 21.265625 12.046875 21.519531 12.003906 21.644531 Z M 13.816406 22.300781 L 13.296875 22.769531 L 13.707031 22.195312 C 13.921875 21.898438 14.160156 21.6875 14.203125 21.730469 C 14.265625 21.792969 14.074219 22.046875 13.816406 22.300781 Z M 21.207031 22.070312 C 21.097656 22.238281 21.164062 22.257812 21.464844 22.152344 C 22.328125 21.816406 22.5 21.792969 21.984375 22.109375 C 21.679688 22.28125 21.273438 22.386719 21.035156 22.300781 C 20.777344 22.238281 20.691406 22.28125 20.777344 22.429688 C 20.863281 22.578125 20.777344 22.660156 20.539062 22.660156 C 20.300781 22.660156 20.023438 22.769531 19.871094 22.917969 C 19.742188 23.042969 19.570312 23.105469 19.503906 23.042969 C 19.375 22.9375 20.882812 21.855469 21.183594 21.835938 C 21.292969 21.816406 21.292969 21.921875 21.207031 22.070312 Z M 9.375 27.089844 C 9.375 27.808594 8.511719 28.105469 8.167969 27.511719 C 7.886719 26.960938 8.210938 26.515625 8.902344 26.558594 C 9.246094 26.582031 9.375 26.707031 9.375 27.089844 Z M 41.59375 30.074219 C 41.59375 30.179688 40.691406 30.753906 39.613281 31.367188 C 38.511719 31.960938 37.261719 32.660156 36.851562 32.914062 C 36.445312 33.144531 36.054688 33.359375 35.992188 33.378906 C 35.582031 33.441406 35.152344 33.761719 35.238281 33.910156 C 35.300781 33.992188 35.734375 33.886719 36.207031 33.652344 C 36.679688 33.421875 37.15625 33.273438 37.261719 33.335938 C 37.371094 33.398438 37.5 33.359375 37.542969 33.230469 C 37.585938 33.101562 37.824219 32.976562 38.039062 32.957031 C 38.277344 32.933594 38.816406 32.765625 39.222656 32.574219 C 41.636719 31.472656 43.382812 30.984375 41.636719 31.875 C 41.207031 32.109375 40.710938 32.425781 40.539062 32.574219 C 40.300781 32.785156 40.195312 32.785156 39.914062 32.574219 C 39.71875 32.425781 39.632812 32.40625 39.699219 32.511719 C 39.914062 32.871094 39.65625 33.082031 37.953125 34.054688 C 36.25 35.007812 35.777344 35.15625 36.226562 34.566406 C 36.507812 34.246094 36.488281 34.226562 36.164062 34.5 C 35.949219 34.648438 35.839844 34.859375 35.882812 34.96875 C 36.035156 35.199219 34.804688 35.8125 34.589844 35.625 C 34.484375 35.539062 34.484375 35.582031 34.546875 35.707031 C 34.71875 36.003906 34.117188 36.28125 33.792969 36.070312 C 33.640625 36.003906 33.621094 36.046875 33.707031 36.175781 C 33.792969 36.300781 33.597656 36.554688 33.253906 36.726562 L 32.652344 37.0625 L 33.191406 37 C 33.492188 36.980469 33.773438 36.914062 33.835938 36.832031 C 34.03125 36.621094 35.496094 35.792969 35.691406 35.792969 C 35.777344 35.792969 35.667969 35.941406 35.429688 36.132812 C 35.042969 36.429688 35.042969 36.449219 35.515625 36.214844 C 35.777344 36.089844 35.949219 35.898438 35.882812 35.792969 C 35.777344 35.601562 38.082031 34.246094 38.535156 34.246094 C 38.664062 34.246094 38.792969 34.164062 38.792969 34.054688 C 38.792969 33.972656 39.117188 33.738281 39.503906 33.570312 C 40.539062 33.0625 41.550781 32.488281 41.917969 32.191406 C 42.113281 32.042969 42.304688 31.960938 42.347656 32.023438 C 42.414062 32.066406 41.507812 32.871094 40.367188 33.800781 C 39.222656 34.714844 38.191406 35.582031 38.058594 35.6875 C 37.929688 35.8125 37.242188 36.34375 36.53125 36.894531 C 35.796875 37.425781 35.085938 38.015625 34.933594 38.207031 C 34.785156 38.398438 34.503906 38.546875 34.332031 38.546875 C 34.007812 38.546875 33.75 38.738281 32.609375 39.859375 C 32.089844 40.367188 31.679688 40.558594 30.882812 40.644531 C 30.195312 40.726562 29.847656 40.875 29.804688 41.089844 C 29.546875 43.035156 29.546875 43.035156 28.707031 42.886719 C 27.929688 42.761719 27.84375 42.824219 26.183594 44.496094 C 24.246094 46.425781 21.421875 48.710938 20.96875 48.710938 C 20.820312 48.710938 20.300781 48.457031 19.828125 48.160156 L 18.988281 47.609375 L 20.324219 46.953125 C 21.960938 46.109375 24.03125 44.242188 24.890625 42.804688 C 25.257812 42.210938 25.734375 41.660156 25.96875 41.597656 C 26.207031 41.53125 26.617188 41.195312 26.898438 40.855469 L 27.414062 40.242188 L 26.832031 40.242188 C 26.507812 40.242188 25.992188 40.367188 25.691406 40.539062 C 25.367188 40.707031 24.375 40.917969 23.492188 41.046875 C 22.027344 41.234375 21.574219 41.425781 18.640625 43.101562 C 16.875 44.117188 15.300781 45.027344 15.152344 45.132812 C 15 45.28125 14.546875 45.15625 13.816406 44.753906 C 13.210938 44.433594 12.714844 44.09375 12.714844 44.011719 C 12.714844 43.585938 14.246094 42.507812 16.421875 41.425781 C 18.707031 40.261719 21.832031 39.183594 23.816406 38.863281 C 24.804688 38.695312 25.648438 38.230469 25.648438 37.847656 C 25.648438 37.71875 25.734375 37.464844 25.839844 37.296875 C 26.011719 37.042969 26.140625 37.042969 26.703125 37.277344 C 27.328125 37.53125 27.457031 37.488281 28.621094 36.808594 C 29.289062 36.40625 30.152344 35.921875 30.496094 35.75 C 30.863281 35.582031 32.671875 34.566406 34.527344 33.484375 C 36.402344 32.425781 37.996094 31.558594 38.101562 31.558594 C 38.191406 31.558594 38.382812 31.453125 38.535156 31.304688 C 38.964844 30.878906 41.25 29.695312 41.445312 29.800781 C 41.53125 29.839844 41.59375 29.96875 41.59375 30.074219 Z M 15.648438 30.414062 C 15.582031 30.582031 15.601562 30.667969 15.734375 30.605469 C 15.96875 30.457031 16.011719 30.730469 15.820312 31.21875 C 15.648438 31.664062 14.871094 31.640625 14.546875 31.195312 C 14.332031 30.921875 14.332031 30.753906 14.527344 30.457031 C 14.828125 29.96875 15.839844 29.925781 15.648438 30.414062 Z M 41.679688 37.828125 C 41.746094 37.996094 41.722656 38.082031 41.59375 38.015625 C 41.464844 37.953125 41.378906 37.804688 41.378906 37.679688 C 41.378906 37.382812 41.53125 37.445312 41.679688 37.828125 Z M 36.445312 40.304688 C 36.226562 40.496094 36.207031 40.472656 36.335938 40.175781 C 36.402344 39.964844 36.53125 39.859375 36.59375 39.921875 C 36.660156 39.988281 36.59375 40.15625 36.445312 40.304688 Z M 33.363281 42.589844 C 33.425781 42.847656 33.40625 42.847656 33.234375 42.589844 C 33.101562 42.421875 32.910156 42.378906 32.757812 42.464844 C 32.566406 42.570312 32.523438 42.550781 32.628906 42.378906 C 32.84375 42.0625 33.234375 42.167969 33.363281 42.589844 Z M 33.363281 42.589844 "/>
<path style=" stroke:none;fill-rule:nonzero;fill:rgb(0%,0%,0%);fill-opacity:1;" d="M 11.898438 11.4375 C 11.207031 11.839844 11.035156 12.347656 11.402344 12.878906 C 11.660156 13.28125 12.929688 12.515625 12.929688 11.964844 C 12.929688 11.140625 12.652344 10.992188 11.898438 11.4375 Z M 11.898438 11.4375 "/>
<path style=" stroke:none;fill-rule:nonzero;fill:rgb(0%,0%,0%);fill-opacity:1;" d="M 14.933594 9.742188 C 14.503906 9.996094 14.265625 10.273438 14.332031 10.484375 C 14.675781 11.542969 14.613281 11.5 15.367188 11.035156 C 15.734375 10.800781 16.054688 10.503906 16.035156 10.378906 C 16.011719 10.273438 15.992188 9.976562 15.992188 9.742188 C 15.949219 9.214844 15.796875 9.214844 14.933594 9.742188 Z M 14.933594 9.742188 "/>
<path style=" stroke:none;fill-rule:nonzero;fill:rgb(0%,0%,0%);fill-opacity:1;" d="M 37.242188 18.976562 C 36.917969 19.144531 36.574219 19.527344 36.507812 19.804688 C 36.421875 20.164062 35.949219 20.566406 35 21.074219 C 34.246094 21.496094 33.621094 21.878906 33.621094 21.941406 C 33.621094 22.003906 34.246094 21.707031 34.976562 21.285156 C 35.777344 20.863281 36.660156 20.542969 37.046875 20.542969 C 38.148438 20.542969 39.050781 19.929688 39.289062 18.996094 C 39.375 18.703125 39.265625 18.636719 38.621094 18.636719 C 38.167969 18.660156 37.566406 18.785156 37.242188 18.976562 Z M 37.242188 18.976562 "/>
<path style=" stroke:none;fill-rule:nonzero;fill:rgb(0%,0%,0%);fill-opacity:1;" d="M 27.867188 22.789062 C 27.15625 23.507812 27.113281 23.613281 27.242188 24.527344 C 27.371094 25.5625 27.652344 25.902344 28.816406 26.390625 C 30.777344 27.214844 32.566406 25.203125 31.636719 23.191406 C 31.316406 22.492188 30.429688 22.027344 29.417969 22.027344 C 28.816406 22.027344 28.46875 22.195312 27.867188 22.789062 Z M 27.867188 22.789062 "/>
<path style=" stroke:none;fill-rule:nonzero;fill:rgb(0%,0%,0%);fill-opacity:1;" d="M 22.757812 20.945312 C 22.5 21.222656 22.5 21.328125 22.695312 21.328125 C 23.058594 21.328125 23.535156 20.820312 23.296875 20.671875 C 23.210938 20.609375 22.953125 20.734375 22.757812 20.945312 Z M 22.757812 20.945312 "/>
<path style=" stroke:none;fill-rule:nonzero;fill:rgb(0%,0%,0%);fill-opacity:1;" d="M 38.082031 33.273438 C 38.234375 33.421875 38.40625 33.484375 38.46875 33.421875 C 38.535156 33.359375 38.425781 33.230469 38.210938 33.167969 C 37.910156 33.039062 37.886719 33.0625 38.082031 33.273438 Z M 38.082031 33.273438 "/>
<path style=" stroke:none;fill-rule:nonzero;fill:rgb(0%,0%,0%);fill-opacity:1;" d="M 39.074219 34.203125 C 39.074219 34.375 39.160156 34.457031 39.265625 34.394531 C 39.375 34.332031 39.398438 34.183594 39.332031 34.078125 C 39.136719 33.800781 39.074219 33.84375 39.074219 34.203125 Z M 39.074219 34.203125 "/>
<path style=" stroke:none;fill-rule:nonzero;fill:rgb(0%,0%,0%);fill-opacity:1;" d="M 34.589844 34.96875 C 34.503906 35.09375 34.503906 35.242188 34.570312 35.304688 C 34.632812 35.390625 34.699219 35.328125 34.699219 35.179688 C 34.699219 35.007812 34.828125 34.945312 35.042969 35.03125 C 35.214844 35.09375 35.300781 35.074219 35.238281 34.945312 C 35.066406 34.671875 34.761719 34.671875 34.589844 34.96875 Z M 34.589844 34.96875 "/>
<path style=" stroke:none;fill-rule:nonzero;fill:rgb(0%,0%,0%);fill-opacity:1;" d="M 37.824219 34.925781 C 37.757812 35.03125 37.78125 35.179688 37.886719 35.242188 C 37.996094 35.304688 38.082031 35.222656 38.082031 35.050781 C 38.082031 34.691406 38.015625 34.648438 37.824219 34.925781 Z M 37.824219 34.925781 "/>
<path style=" stroke:none;fill-rule:nonzero;fill:rgb(0%,0%,0%);fill-opacity:1;" d="M 36.421875 35.582031 C 36.421875 35.6875 36.53125 35.792969 36.636719 35.792969 C 36.765625 35.792969 36.851562 35.6875 36.851562 35.582031 C 36.851562 35.453125 36.765625 35.371094 36.636719 35.371094 C 36.53125 35.371094 36.421875 35.453125 36.421875 35.582031 Z M 36.421875 35.582031 "/>
<path style=" stroke:none;fill-rule:nonzero;fill:rgb(0%,0%,0%);fill-opacity:1;" d="M 32.757812 35.792969 C 32.523438 35.941406 32.5 36.046875 32.671875 36.214844 C 32.867188 36.40625 32.972656 36.40625 33.058594 36.238281 C 33.148438 36.109375 33.148438 36.003906 33.039062 36.003906 C 32.953125 36.003906 33.015625 35.898438 33.191406 35.792969 C 33.363281 35.6875 33.425781 35.582031 33.296875 35.582031 C 33.191406 35.582031 32.929688 35.6875 32.757812 35.792969 Z M 32.757812 35.792969 "/>
<path style=" stroke:none;fill-rule:nonzero;fill:rgb(0%,0%,0%);fill-opacity:1;" d="M 35.386719 36.621094 C 35.152344 36.765625 35.152344 36.808594 35.386719 36.914062 C 35.582031 36.980469 35.710938 36.894531 35.710938 36.726562 C 35.710938 36.554688 35.691406 36.429688 35.691406 36.429688 C 35.667969 36.429688 35.539062 36.511719 35.386719 36.621094 Z M 35.386719 36.621094 "/>
<path style=" stroke:none;fill-rule:nonzero;fill:rgb(0%,0%,0%);fill-opacity:1;" d="M 34.398438 37.507812 C 34.484375 37.65625 35.34375 37.507812 35.34375 37.359375 C 35.34375 37.316406 35.109375 37.296875 34.828125 37.316406 C 34.527344 37.339844 34.332031 37.425781 34.398438 37.507812 Z M 34.398438 37.507812 "/>
</g>
</svg>
