<?xml version="1.0" encoding="UTF-8"?>
<svg xmlns="http://www.w3.org/2000/svg" xmlns:xlink="http://www.w3.org/1999/xlink" width="45px" height="45px" viewBox="0 0 45 60" version="1.1">
<g id="surface1">
<path style=" stroke:none;fill-rule:nonzero;fill:rgb(0%,0%,0%);fill-opacity:1;" d="M 16.503906 19.746094 L 9.953125 23.496094 L 10.023438 31.25 L 10.070312 38.980469 L 16.550781 42.730469 L 23.03125 46.503906 L 23.726562 46.089844 C 24.121094 45.878906 27.105469 44.144531 30.394531 42.269531 L 36.34375 38.820312 L 36.34375 23.65625 L 29.816406 19.859375 C 26.226562 17.800781 23.242188 16.066406 23.171875 16.042969 C 23.101562 15.996094 20.09375 17.660156 16.503906 19.746094 Z M 29.191406 20.441406 L 35.300781 23.957031 L 35.300781 38.496094 L 29.191406 42.035156 C 24.699219 44.652344 22.984375 45.53125 22.707031 45.371094 C 22.5 45.253906 19.746094 43.65625 16.550781 41.828125 L 10.765625 38.472656 L 10.765625 23.980469 L 16.898438 20.441406 C 20.277344 18.496094 23.03125 16.898438 23.054688 16.898438 C 23.078125 16.898438 25.832031 18.496094 29.191406 20.441406 Z M 29.191406 20.441406 "/>
<path style=" stroke:none;fill-rule:nonzero;fill:rgb(0%,0%,0%);fill-opacity:1;" d="M 21.96875 18.820312 C 21.757812 18.980469 21.621094 19.28125 21.667969 19.515625 C 21.714844 19.859375 21.667969 19.882812 21.367188 19.628906 C 21.042969 19.375 20.996094 19.398438 21.15625 19.953125 C 21.25 20.371094 21.203125 20.601562 21.042969 20.601562 C 20.855469 20.601562 20.855469 20.695312 21.042969 20.925781 C 21.273438 21.203125 21.226562 21.226562 20.855469 21.132812 C 20.160156 20.949219 20.253906 21.273438 20.972656 21.527344 C 21.574219 21.757812 21.550781 22.222656 20.925781 22.222656 C 20.742188 22.222656 20.648438 22.316406 20.71875 22.453125 C 20.855469 22.660156 20.53125 22.777344 20.09375 22.707031 C 19.699219 22.660156 19.929688 22.917969 20.554688 23.242188 C 21.019531 23.496094 21.066406 23.589844 20.765625 23.609375 C 20.53125 23.609375 20.417969 23.726562 20.484375 23.84375 C 20.578125 23.980469 20.765625 24.027344 20.902344 23.933594 C 21.066406 23.867188 20.949219 24.003906 20.648438 24.28125 C 20.140625 24.722656 20.140625 24.746094 20.601562 24.882812 C 20.878906 24.976562 21.226562 24.90625 21.410156 24.769531 C 21.597656 24.605469 21.757812 24.558594 21.757812 24.628906 C 21.757812 24.929688 21.109375 25.464844 20.742188 25.464844 C 20.554688 25.464844 20.324219 25.578125 20.230469 25.742188 C 20.117188 25.925781 20.230469 25.949219 20.554688 25.878906 C 21.410156 25.648438 21.132812 26.320312 20.230469 26.667969 C 19.746094 26.851562 19.46875 27.082031 19.582031 27.152344 C 19.839844 27.292969 21.320312 26.644531 21.574219 26.296875 C 21.667969 26.15625 21.804688 26.132812 21.898438 26.226562 C 22.175781 26.480469 21.457031 27.082031 20.464844 27.429688 C 19.976562 27.617188 19.722656 27.753906 19.929688 27.777344 C 20.140625 27.777344 20.554688 27.964844 20.855469 28.195312 L 21.367188 28.632812 L 20.785156 28.773438 C 20.023438 28.980469 20.046875 29.652344 20.832031 30.023438 L 21.410156 30.277344 L 20.785156 30.578125 C 20.417969 30.742188 20.140625 30.949219 20.140625 31.042969 C 20.140625 31.320312 21.226562 31.550781 21.644531 31.390625 C 22.246094 31.15625 22.015625 31.597656 21.296875 32.015625 C 20.554688 32.476562 20.347656 32.941406 21.019531 32.707031 C 21.226562 32.640625 21.34375 32.660156 21.25 32.753906 C 20.996094 33.03125 21.945312 33.632812 22.292969 33.425781 C 22.453125 33.308594 22.453125 33.402344 22.246094 33.65625 C 21.96875 34.003906 21.96875 34.050781 22.246094 33.980469 C 22.707031 33.890625 22.546875 34.976562 22.035156 35.394531 C 21.667969 35.695312 21.667969 35.695312 22.058594 35.554688 C 22.40625 35.441406 22.476562 35.53125 22.40625 36.066406 C 22.359375 36.574219 22.429688 36.714844 22.871094 36.757812 C 23.402344 36.851562 23.425781 36.804688 23.332031 35.417969 C 23.265625 34.191406 23.308594 34.027344 23.632812 34.097656 C 23.84375 34.167969 24.167969 34.121094 24.328125 34.003906 C 24.582031 33.84375 24.582031 33.796875 24.28125 33.796875 C 24.074219 33.796875 23.75 33.609375 23.589844 33.402344 C 23.285156 33.054688 23.308594 33.03125 23.796875 33.148438 C 24.074219 33.242188 24.304688 33.242188 24.304688 33.171875 C 24.304688 33.101562 24.074219 32.871094 23.796875 32.617188 C 23.308594 32.222656 23.308594 32.199219 23.726562 32.339844 C 23.980469 32.40625 24.328125 32.59375 24.492188 32.707031 C 24.882812 33.007812 25.925781 33.125 25.925781 32.847656 C 25.925781 32.730469 25.742188 32.640625 25.507812 32.640625 C 25.277344 32.640625 24.882812 32.476562 24.628906 32.269531 C 24.214844 31.921875 24.214844 31.921875 24.746094 32.082031 C 25.117188 32.175781 25.230469 32.152344 25.140625 31.96875 C 25.046875 31.828125 24.816406 31.714844 24.628906 31.714844 C 24.445312 31.714844 24.304688 31.597656 24.304688 31.480469 C 24.304688 31.179688 24.699219 31.179688 24.859375 31.457031 C 24.953125 31.574219 25.347656 31.644531 25.765625 31.621094 C 26.15625 31.574219 26.714844 31.527344 26.96875 31.503906 C 27.800781 31.457031 26.992188 31.042969 25.902344 30.996094 C 25.117188 30.949219 24.839844 30.855469 24.929688 30.625 C 25 30.464844 25.347656 30.324219 25.695312 30.324219 C 26.066406 30.324219 26.433594 30.207031 26.527344 30.046875 C 26.644531 29.859375 26.527344 29.839844 26.203125 29.90625 C 25.601562 30.070312 25.253906 29.699219 25.785156 29.492188 C 26.089844 29.375 26.042969 29.257812 25.554688 28.867188 C 25 28.449219 24.976562 28.378906 25.347656 28.242188 C 25.648438 28.125 25.53125 28.007812 24.792969 27.660156 C 24.257812 27.429688 23.84375 27.152344 23.84375 27.035156 C 23.84375 26.757812 24.027344 26.804688 24.792969 27.246094 C 25.394531 27.617188 25.507812 27.617188 25.695312 27.316406 C 25.855469 27.082031 25.925781 27.058594 25.925781 27.246094 C 25.925781 27.40625 26.089844 27.546875 26.273438 27.546875 C 26.757812 27.546875 26.714844 27.339844 26.109375 26.851562 L 25.578125 26.410156 L 26.109375 26.550781 C 26.851562 26.734375 26.734375 26.410156 25.949219 26.132812 C 25.484375 25.972656 25.300781 25.785156 25.394531 25.53125 C 25.507812 25.253906 25.554688 25.253906 25.71875 25.484375 C 25.808594 25.671875 25.972656 25.71875 26.042969 25.648438 C 26.273438 25.417969 25.949219 25 25.554688 25 C 25.371094 25 25.230469 24.839844 25.230469 24.628906 C 25.230469 24.445312 25.324219 24.328125 25.441406 24.421875 C 25.554688 24.492188 25.71875 24.445312 25.808594 24.304688 C 25.902344 24.167969 26.089844 24.144531 26.226562 24.234375 C 26.410156 24.328125 26.390625 24.257812 26.203125 24.027344 C 25.972656 23.726562 25.972656 23.632812 26.203125 23.542969 C 26.367188 23.472656 26.179688 23.402344 25.765625 23.402344 C 24.375 23.355469 24.191406 23.125 25.207031 22.660156 C 25.742188 22.429688 26.15625 22.175781 26.15625 22.105469 C 26.15625 22.035156 26.066406 22.015625 25.949219 22.105469 C 25.832031 22.175781 25.671875 22.128906 25.601562 22.015625 C 25.507812 21.898438 25.070312 21.851562 24.582031 21.898438 L 23.726562 22.015625 L 24.652344 21.550781 C 25.464844 21.15625 25.507812 21.109375 25 21.089844 C 24.582031 21.066406 24.515625 20.996094 24.722656 20.855469 C 24.953125 20.71875 24.90625 20.625 24.535156 20.53125 C 24.191406 20.441406 24.050781 20.277344 24.144531 20.046875 C 24.234375 19.792969 24.167969 19.746094 23.910156 19.839844 C 23.632812 19.953125 23.589844 19.859375 23.726562 19.421875 C 23.890625 18.933594 23.867188 18.910156 23.542969 19.167969 C 23.242188 19.421875 23.148438 19.398438 22.917969 19.003906 C 22.640625 18.449219 22.476562 18.425781 21.96875 18.820312 Z M 23.84375 23.933594 C 23.84375 23.980469 23.679688 24.097656 23.472656 24.167969 C 23.285156 24.234375 23.195312 24.214844 23.265625 24.074219 C 23.402344 23.84375 23.84375 23.75 23.84375 23.933594 Z M 22.800781 24.304688 C 22.871094 24.421875 22.824219 24.535156 22.707031 24.535156 C 22.570312 24.535156 22.453125 24.421875 22.453125 24.304688 C 22.453125 24.167969 22.5 24.074219 22.546875 24.074219 C 22.617188 24.074219 22.730469 24.167969 22.800781 24.304688 Z M 24.882812 24.328125 C 25.160156 24.746094 24.816406 24.839844 24.421875 24.445312 C 24.097656 24.121094 24.097656 24.074219 24.398438 24.074219 C 24.582031 24.074219 24.816406 24.191406 24.882812 24.328125 Z M 23.84375 28.285156 C 23.84375 28.425781 24.074219 28.796875 24.351562 29.097656 C 24.769531 29.558594 24.792969 29.628906 24.46875 29.628906 C 24.257812 29.628906 24.074219 29.515625 24.074219 29.398438 C 24.074219 29.257812 23.890625 29.167969 23.65625 29.167969 C 23.285156 29.167969 23.148438 28.679688 23.355469 28.054688 C 23.425781 27.871094 23.84375 28.054688 23.84375 28.285156 Z M 22.683594 28.703125 C 22.683594 29.121094 21.804688 29.722656 21.550781 29.492188 C 21.457031 29.398438 22.453125 28.242188 22.617188 28.242188 C 22.660156 28.242188 22.683594 28.449219 22.683594 28.703125 Z M 21.644531 31.019531 C 20.996094 31.296875 20.785156 31.296875 20.949219 31.019531 C 21.019531 30.878906 21.320312 30.785156 21.597656 30.808594 C 22.082031 30.808594 22.082031 30.832031 21.644531 31.019531 Z M 21.644531 31.019531 "/>
<path style=" stroke:none;fill-rule:nonzero;fill:rgb(0%,0%,0%);fill-opacity:1;" d="M 17.824219 38.078125 C 17.824219 38.265625 17.941406 38.425781 18.054688 38.425781 C 18.195312 38.425781 18.285156 38.265625 18.285156 38.078125 C 18.285156 37.894531 18.195312 37.730469 18.054688 37.730469 C 17.941406 37.730469 17.824219 37.894531 17.824219 38.078125 Z M 17.824219 38.078125 "/>
<path style=" stroke:none;fill-rule:nonzero;fill:rgb(0%,0%,0%);fill-opacity:1;" d="M 22.984375 37.894531 C 22.824219 37.941406 22.683594 38.242188 22.683594 38.542969 C 22.683594 38.867188 22.523438 39.121094 22.292969 39.191406 C 21.898438 39.28125 21.898438 39.304688 22.292969 39.328125 C 22.617188 39.351562 22.683594 39.582031 22.683594 40.71875 C 22.683594 41.644531 22.570312 42.175781 22.339844 42.359375 C 22.152344 42.523438 22.058594 42.753906 22.152344 42.894531 C 22.246094 43.03125 22.453125 42.917969 22.730469 42.617188 C 23.03125 42.222656 23.148438 41.691406 23.148438 40.742188 C 23.148438 39.652344 23.21875 39.375 23.566406 39.28125 C 23.933594 39.191406 23.933594 39.167969 23.566406 39.144531 C 23.054688 39.121094 22.984375 38.195312 23.496094 38.195312 C 23.679688 38.195312 23.84375 38.078125 23.84375 37.964844 C 23.84375 37.730469 23.472656 37.683594 22.984375 37.894531 Z M 22.984375 37.894531 "/>
<path style=" stroke:none;fill-rule:nonzero;fill:rgb(0%,0%,0%);fill-opacity:1;" d="M 17.824219 40.394531 C 17.824219 41.574219 17.871094 41.667969 18.355469 41.644531 C 18.632812 41.644531 18.726562 41.574219 18.589844 41.503906 C 18.402344 41.433594 18.285156 40.949219 18.285156 40.253906 C 18.285156 39.628906 18.195312 39.121094 18.054688 39.121094 C 17.941406 39.121094 17.824219 39.699219 17.824219 40.394531 Z M 17.824219 40.394531 "/>
<path style=" stroke:none;fill-rule:nonzero;fill:rgb(0%,0%,0%);fill-opacity:1;" d="M 19.304688 39.839844 C 19.375 40.230469 19.445312 40.808594 19.445312 41.109375 C 19.445312 41.410156 19.558594 41.667969 19.675781 41.667969 C 19.816406 41.667969 19.90625 41.273438 19.90625 40.765625 C 19.90625 39.859375 20.371094 39.191406 20.832031 39.46875 C 20.949219 39.535156 21.066406 40.070312 21.066406 40.648438 C 21.066406 41.203125 21.179688 41.667969 21.320312 41.667969 C 21.457031 41.667969 21.527344 41.179688 21.480469 40.441406 C 21.410156 39.375 21.34375 39.234375 20.878906 39.167969 C 20.578125 39.121094 20.183594 39.214844 20 39.351562 C 19.769531 39.558594 19.675781 39.558594 19.675781 39.375 C 19.675781 39.234375 19.558594 39.121094 19.421875 39.121094 C 19.234375 39.121094 19.214844 39.375 19.304688 39.839844 Z M 19.304688 39.839844 "/>
<path style=" stroke:none;fill-rule:nonzero;fill:rgb(0%,0%,0%);fill-opacity:1;" d="M 24.582031 39.398438 C 24.445312 39.535156 24.304688 40.070312 24.304688 40.554688 C 24.304688 41.550781 24.816406 41.921875 25.902344 41.691406 C 26.457031 41.574219 26.457031 41.550781 25.71875 41.433594 C 24.675781 41.273438 24.605469 40.949219 25.53125 40.507812 C 26.527344 40.046875 26.550781 39.257812 25.578125 39.167969 C 25.183594 39.121094 24.746094 39.234375 24.582031 39.398438 Z M 25.832031 39.628906 C 25.996094 39.859375 25.371094 40.507812 24.953125 40.507812 C 24.722656 40.507812 24.699219 39.722656 24.929688 39.515625 C 25.160156 39.257812 25.648438 39.328125 25.832031 39.628906 Z M 25.832031 39.628906 "/>
<path style=" stroke:none;fill-rule:nonzero;fill:rgb(0%,0%,0%);fill-opacity:1;" d="M 27.035156 40.394531 C 27.128906 41.714844 27.546875 42.199219 27.546875 40.996094 C 27.546875 40.09375 27.753906 39.582031 28.148438 39.582031 C 28.332031 39.582031 28.472656 39.46875 28.472656 39.351562 C 28.472656 39.027344 27.847656 39.074219 27.683594 39.398438 C 27.570312 39.628906 27.523438 39.628906 27.40625 39.398438 C 27.128906 38.773438 26.96875 39.191406 27.035156 40.394531 Z M 27.035156 40.394531 "/>
</g>
</svg>
