<?xml version="1.0" encoding="UTF-8"?>
<svg xmlns="http://www.w3.org/2000/svg" xmlns:xlink="http://www.w3.org/1999/xlink" width="45px" height="45px" viewBox="0 0 45 45" version="1.1">
<g id="surface1">
<path style=" stroke:none;fill-rule:nonzero;fill:rgb(0%,0%,0%);fill-opacity:1;" d="M 0 22.5 L 0 45 L 45 45 L 45 0 L 0 0 Z M 32.398438 9 L 32.398438 12.800781 L 31.566406 13.027344 C 31.09375 13.164062 30.082031 13.273438 29.316406 13.273438 L 27.898438 13.273438 L 27.898438 5.175781 L 32.398438 5.175781 Z M 25.199219 11.046875 C 25.199219 12.21875 25.132812 12.601562 24.929688 12.53125 C 24.773438 12.488281 23.691406 12.148438 22.566406 11.789062 L 20.476562 11.136719 L 20.476562 9.449219 L 25.199219 9.449219 Z M 35.773438 12.734375 C 34.628906 13.90625 32.917969 15.097656 31.679688 15.523438 L 30.871094 15.816406 L 30.78125 21.148438 L 30.710938 26.484375 L 30.039062 27.585938 C 29.296875 28.777344 27.699219 29.992188 26.371094 30.375 C 25.132812 30.710938 23.332031 30.644531 22.117188 30.21875 C 21.488281 30.015625 20.296875 29.835938 19.28125 29.835938 C 17.640625 29.8125 17.484375 29.765625 16.964844 29.183594 C 15.660156 27.675781 17.03125 25.898438 19.28125 26.167969 C 20.386719 26.28125 21.601562 27.226562 21.601562 27.945312 C 21.601562 28.550781 22.835938 29.070312 24.324219 29.09375 C 26.011719 29.09375 27.515625 28.351562 28.460938 27.023438 L 29.136719 26.054688 L 29.203125 21.128906 L 29.273438 16.199219 L 28.304688 16.175781 C 27.765625 16.175781 26.863281 16.085938 26.28125 15.996094 L 25.199219 15.816406 L 25.199219 16.851562 C 25.222656 17.796875 25.289062 17.933594 26.121094 18.515625 C 26.617188 18.855469 27.179688 19.484375 27.359375 19.914062 C 27.765625 20.902344 27.765625 22.972656 27.359375 23.941406 C 26.773438 25.359375 24.996094 26.324219 22.996094 26.324219 C 21.757812 26.324219 21.710938 26.300781 20.585938 25.085938 C 19.933594 24.414062 19.238281 23.851562 19.011719 23.851562 C 18.789062 23.851562 18.089844 24.414062 17.4375 25.085938 C 16.3125 26.300781 16.289062 26.324219 15.007812 26.324219 C 12.734375 26.324219 10.777344 25.019531 10.441406 23.265625 C 10.214844 21.984375 10.460938 20.070312 10.957031 19.394531 C 11.203125 19.058594 11.765625 18.585938 12.21875 18.335938 C 12.984375 17.933594 13.050781 17.796875 13.050781 16.921875 L 13.050781 15.976562 L 17.773438 15.976562 L 17.773438 17.550781 L 20.476562 17.550781 L 20.476562 15.996094 C 20.476562 14.152344 20.519531 14.175781 17.664062 14.015625 C 15.277344 13.882812 13.546875 14.242188 11.046875 15.414062 C 9.515625 16.15625 9.425781 16.175781 9.71875 15.703125 C 10.261719 14.871094 12.691406 13.140625 14.109375 12.578125 C 15.210938 12.128906 15.816406 12.058594 18 12.058594 C 20.496094 12.058594 20.722656 12.105469 23.851562 13.164062 C 26.84375 14.175781 27.292969 14.265625 29.25 14.265625 C 31.140625 14.242188 31.566406 14.175781 32.960938 13.566406 C 33.839844 13.183594 34.988281 12.621094 35.550781 12.285156 C 36.113281 11.96875 36.609375 11.699219 36.675781 11.699219 C 36.71875 11.699219 36.316406 12.171875 35.773438 12.734375 Z M 17.550781 34.085938 C 17.550781 36.246094 17.484375 36.675781 17.210938 36.675781 C 17.03125 36.675781 16.875 36.5625 16.875 36.40625 C 16.875 36.203125 16.808594 36.203125 16.605469 36.40625 C 16.449219 36.5625 15.953125 36.675781 15.503906 36.675781 C 14.851562 36.675781 14.535156 36.515625 14.085938 35.976562 C 13.410156 35.191406 13.363281 34.671875 13.835938 33.773438 C 14.308594 32.851562 15.457031 32.558594 16.449219 33.074219 C 16.828125 33.300781 16.875 33.234375 16.875 32.398438 C 16.875 31.746094 16.964844 31.5 17.210938 31.5 C 17.484375 31.5 17.550781 31.925781 17.550781 34.085938 Z M 35.03125 31.859375 C 35.101562 32.039062 35.054688 32.308594 34.898438 32.46875 C 34.582031 32.78125 33.839844 32.128906 34.066406 31.746094 C 34.289062 31.386719 34.875 31.453125 35.03125 31.859375 Z M 4.523438 33.683594 L 5.445312 35.664062 L 6.433594 33.683594 C 6.976562 32.601562 7.46875 31.726562 7.515625 31.726562 C 7.558594 31.726562 7.71875 32.558594 7.851562 33.570312 C 8.011719 34.605469 8.167969 35.707031 8.234375 36.046875 C 8.324219 36.515625 8.28125 36.675781 8.03125 36.675781 C 7.785156 36.675781 7.648438 36.269531 7.539062 35.101562 C 7.449219 34.222656 7.3125 33.523438 7.222656 33.523438 C 7.132812 33.523438 6.703125 34.265625 6.277344 35.144531 L 5.46875 36.789062 L 4.566406 34.988281 C 3.554688 33.007812 3.601562 32.984375 3.238281 35.59375 C 3.105469 36.585938 2.699219 37.125 2.699219 36.316406 C 2.699219 35.324219 3.238281 31.726562 3.398438 31.726562 C 3.488281 31.726562 4.003906 32.601562 4.523438 33.683594 Z M 32.648438 32.378906 C 33.140625 32.894531 33.300781 33.253906 33.300781 33.953125 C 33.300781 35.796875 32.398438 36.675781 30.488281 36.675781 L 29.476562 36.675781 L 29.476562 31.726562 L 30.734375 31.726562 C 31.816406 31.726562 32.0625 31.816406 32.648438 32.378906 Z M 12.351562 33.433594 C 12.960938 34.199219 12.960938 35.324219 12.351562 36.089844 C 11.699219 36.921875 10.125 36.921875 9.472656 36.089844 C 8.371094 34.695312 9.246094 32.851562 11.003906 32.851562 C 11.699219 32.851562 11.992188 32.984375 12.351562 33.433594 Z M 21.601562 33.300781 C 21.847656 33.546875 22.050781 33.839844 22.050781 33.953125 C 22.050781 34.066406 22.117188 34.3125 22.183594 34.515625 C 22.296875 34.828125 22.074219 34.875 20.609375 34.875 C 18.808594 34.875 18.609375 35.03125 19.351562 35.773438 C 19.914062 36.335938 20.476562 36.335938 21.21875 35.773438 C 21.9375 35.210938 22.253906 35.574219 21.601562 36.226562 C 21.308594 36.515625 20.859375 36.675781 20.273438 36.675781 C 19.550781 36.675781 19.28125 36.539062 18.808594 35.976562 C 18.066406 35.101562 18.066406 34.425781 18.808594 33.546875 C 19.28125 32.984375 19.550781 32.851562 20.273438 32.851562 C 20.859375 32.851562 21.308594 33.007812 21.601562 33.300781 Z M 24.613281 33.097656 C 24.546875 33.210938 24.34375 33.300781 24.1875 33.300781 C 23.691406 33.300781 23.398438 34.066406 23.398438 35.414062 C 23.398438 36.382812 23.332031 36.675781 23.0625 36.675781 C 22.792969 36.675781 22.726562 36.316406 22.726562 34.808594 L 22.726562 32.917969 L 23.738281 32.894531 C 24.300781 32.894531 24.703125 32.984375 24.613281 33.097656 Z M 25.648438 33.074219 C 25.648438 33.234375 25.785156 33.234375 26.078125 33.074219 C 26.730469 32.738281 27.472656 32.804688 27.945312 33.234375 C 28.261719 33.523438 28.351562 33.929688 28.351562 35.144531 C 28.351562 36.023438 28.261719 36.675781 28.125 36.675781 C 28.011719 36.675781 27.898438 36.113281 27.898438 35.414062 C 27.898438 33.90625 27.609375 33.300781 26.886719 33.300781 C 26.101562 33.300781 25.648438 34.109375 25.648438 35.484375 C 25.648438 36.136719 25.558594 36.675781 25.425781 36.675781 C 25.289062 36.675781 25.199219 35.886719 25.199219 34.761719 C 25.199219 33.636719 25.289062 32.851562 25.425781 32.851562 C 25.558594 32.851562 25.648438 32.960938 25.648438 33.074219 Z M 34.988281 34.761719 C 34.988281 36.292969 34.921875 36.5625 34.605469 36.628906 C 34.246094 36.699219 34.199219 36.496094 34.199219 34.761719 C 34.199219 33.03125 34.246094 32.828125 34.605469 32.894531 C 34.921875 32.960938 34.988281 33.234375 34.988281 34.761719 Z M 36.808594 33.863281 C 37.011719 34.425781 37.261719 34.875 37.351562 34.875 C 37.441406 34.875 37.6875 34.425781 37.890625 33.863281 C 38.183594 33.140625 38.40625 32.851562 38.722656 32.851562 C 38.949219 32.851562 39.148438 32.894531 39.148438 32.941406 C 39.148438 33.300781 37.597656 36.5625 37.394531 36.628906 C 37.261719 36.675781 36.832031 36.046875 36.472656 35.234375 C 35.484375 33.03125 35.4375 32.851562 35.953125 32.851562 C 36.292969 32.851562 36.515625 33.140625 36.808594 33.863281 Z M 42.726562 33.234375 C 42.976562 33.457031 43.265625 33.976562 43.335938 34.359375 L 43.492188 35.101562 L 42.007812 35.101562 C 40.816406 35.101562 40.546875 35.167969 40.636719 35.414062 C 40.792969 35.84375 41.601562 36.023438 42.097656 35.773438 C 42.324219 35.640625 42.660156 35.617188 42.863281 35.683594 C 43.539062 35.953125 42.59375 36.675781 41.578125 36.675781 C 40.296875 36.675781 39.511719 35.773438 39.667969 34.539062 C 39.757812 33.996094 39.984375 33.480469 40.273438 33.253906 C 40.90625 32.738281 42.121094 32.738281 42.726562 33.234375 Z M 42.726562 33.234375 "/>
<path style=" stroke:none;fill-rule:nonzero;fill:rgb(0%,0%,0%);fill-opacity:1;" d="M 13.613281 19.238281 C 12.285156 19.710938 11.925781 20.273438 11.925781 21.914062 C 11.925781 23.511719 12.285156 24.1875 13.410156 24.660156 C 14.871094 25.265625 15.523438 25.085938 16.761719 23.738281 C 17.863281 22.546875 17.953125 22.5 19.035156 22.5 C 20.273438 22.523438 20.496094 22.65625 21.554688 24.007812 C 22.183594 24.816406 22.433594 24.976562 23.085938 24.976562 C 24.121094 24.976562 25.289062 24.480469 25.738281 23.828125 C 25.988281 23.46875 26.101562 22.835938 26.101562 21.871094 C 26.101562 20.226562 25.628906 19.550781 24.164062 19.148438 C 22.816406 18.765625 14.714844 18.855469 13.613281 19.238281 Z M 15.546875 19.914062 C 15.523438 20.046875 15.253906 20.226562 14.917969 20.339844 C 14.039062 20.609375 13.546875 21.105469 13.453125 21.734375 C 13.363281 22.476562 12.960938 22.433594 12.871094 21.710938 C 12.757812 20.859375 13.34375 20.113281 14.332031 19.84375 C 15.300781 19.597656 15.570312 19.597656 15.546875 19.914062 Z M 15.546875 19.914062 "/>
<path style=" stroke:none;fill-rule:nonzero;fill:rgb(0%,0%,0%);fill-opacity:1;" d="M 14.625 33.75 C 14.378906 33.996094 14.175781 34.449219 14.175781 34.761719 C 14.175781 35.414062 14.894531 36.226562 15.480469 36.226562 C 16.246094 36.226562 16.875 35.574219 16.875 34.761719 C 16.875 33.480469 15.523438 32.851562 14.625 33.75 Z M 14.625 33.75 "/>
<path style=" stroke:none;fill-rule:nonzero;fill:rgb(0%,0%,0%);fill-opacity:1;" d="M 30.375 34.085938 L 30.375 35.820312 L 31.117188 35.683594 C 31.996094 35.503906 32.398438 35.011719 32.398438 34.085938 C 32.398438 33.277344 31.90625 32.738281 31.003906 32.511719 L 30.375 32.355469 Z M 30.375 34.085938 "/>
<path style=" stroke:none;fill-rule:nonzero;fill:rgb(0%,0%,0%);fill-opacity:1;" d="M 9.921875 33.886719 C 9.316406 34.648438 9.335938 35.011719 10.011719 35.664062 C 10.621094 36.292969 10.753906 36.316406 11.542969 36.023438 C 12.195312 35.773438 12.488281 34.828125 12.128906 34.132812 C 11.585938 33.121094 10.621094 33.007812 9.921875 33.886719 Z M 9.921875 33.886719 "/>
<path style=" stroke:none;fill-rule:nonzero;fill:rgb(0%,0%,0%);fill-opacity:1;" d="M 19.238281 33.796875 C 18.898438 34.3125 18.898438 34.3125 20.160156 34.378906 C 21.667969 34.46875 21.890625 34.3125 21.171875 33.726562 C 20.476562 33.164062 19.6875 33.1875 19.238281 33.796875 Z M 19.238281 33.796875 "/>
<path style=" stroke:none;fill-rule:nonzero;fill:rgb(0%,0%,0%);fill-opacity:1;" d="M 40.816406 33.90625 C 40.433594 34.289062 40.453125 34.3125 41.378906 34.378906 C 42.523438 34.46875 42.796875 34.289062 42.210938 33.839844 C 41.625 33.414062 41.289062 33.433594 40.816406 33.90625 Z M 40.816406 33.90625 "/>
</g>
</svg>
