<?xml version="1.0" encoding="UTF-8"?>
<svg xmlns="http://www.w3.org/2000/svg" xmlns:xlink="http://www.w3.org/1999/xlink" width="45px" height="45px" viewBox="0 0 45 22" version="1.1">
<g id="surface1">
<path style=" stroke:none;fill-rule:nonzero;fill:rgb(0%,0%,0%);fill-opacity:1;" d="M 0.855469 0.894531 L 0.0703125 1.648438 L 0.898438 2.449219 L 1.714844 3.230469 L 2.527344 2.449219 L 3.355469 1.648438 L 2.570312 0.894531 C 2.140625 0.480469 1.757812 0.136719 1.714844 0.136719 C 1.671875 0.136719 1.285156 0.480469 0.855469 0.894531 Z M 0.855469 0.894531 "/>
<path style=" stroke:none;fill-rule:nonzero;fill:rgb(0%,0%,0%);fill-opacity:1;" d="M 4.710938 2.820312 L 4.710938 3.988281 L 7.136719 3.988281 L 7.136719 1.648438 L 4.710938 1.648438 Z M 4.710938 2.820312 "/>
<path style=" stroke:none;fill-rule:nonzero;fill:rgb(0%,0%,0%);fill-opacity:1;" d="M 7.851562 2.820312 L 7.851562 3.988281 L 10.136719 3.988281 L 10.136719 1.648438 L 7.851562 1.648438 Z M 7.851562 2.820312 "/>
<path style=" stroke:none;fill-rule:nonzero;fill:rgb(0%,0%,0%);fill-opacity:1;" d="M 1.714844 5.707031 L 1.714844 6.875 L 4.140625 6.875 L 4.140625 4.539062 L 1.714844 4.539062 Z M 1.714844 5.707031 "/>
<path style=" stroke:none;fill-rule:nonzero;fill:rgb(0%,0%,0%);fill-opacity:1;" d="M 4.710938 5.707031 L 4.710938 6.875 L 7.136719 6.875 L 7.136719 4.539062 L 4.710938 4.539062 Z M 4.710938 5.707031 "/>
<path style=" stroke:none;fill-rule:nonzero;fill:rgb(0%,0%,0%);fill-opacity:1;" d="M 7.851562 5.707031 L 7.851562 6.875 L 10.136719 6.875 L 10.136719 4.539062 L 7.851562 4.539062 Z M 7.851562 5.707031 "/>
<path style=" stroke:none;fill-rule:nonzero;fill:rgb(0%,0%,0%);fill-opacity:1;" d="M 1.714844 8.59375 L 1.714844 9.761719 L 4.15625 9.761719 L 4.113281 8.621094 L 4.070312 7.492188 L 2.898438 7.453125 L 1.714844 7.410156 Z M 1.714844 8.59375 "/>
<path style=" stroke:none;fill-rule:nonzero;fill:rgb(0%,0%,0%);fill-opacity:1;" d="M 4.8125 7.519531 C 4.753906 7.5625 4.710938 8.097656 4.710938 8.691406 L 4.710938 9.761719 L 7.136719 9.761719 L 7.136719 7.425781 L 6.023438 7.425781 C 5.410156 7.425781 4.855469 7.464844 4.8125 7.519531 Z M 4.8125 7.519531 "/>
<path style=" stroke:none;fill-rule:nonzero;fill:rgb(0%,0%,0%);fill-opacity:1;" d="M 7.851562 8.59375 L 7.851562 9.761719 L 10.136719 9.761719 L 10.136719 7.425781 L 7.851562 7.425781 Z M 7.851562 8.59375 "/>
</g>
</svg>
