<?xml version="1.0" encoding="UTF-8"?>
<svg xmlns="http://www.w3.org/2000/svg" xmlns:xlink="http://www.w3.org/1999/xlink" width="45px" height="45px" viewBox="0 0 45 45" version="1.1">
<g id="surface1">
<path style=" stroke:none;fill-rule:nonzero;fill:rgb(0%,0%,0%);fill-opacity:1;" d="M 5.203125 23.160156 L 5.203125 32.527344 L 7.207031 33.570312 C 8.308594 34.148438 9.25 34.628906 9.308594 34.628906 C 9.347656 34.628906 9.429688 32.449219 9.449219 29.765625 L 9.507812 24.921875 L 11.691406 29.125 C 12.890625 31.449219 14.433594 34.371094 15.113281 35.632812 L 16.335938 37.933594 L 18.636719 39.375 C 19.898438 40.15625 20.980469 40.816406 21.078125 40.816406 C 21.160156 40.835938 21.21875 36.574219 21.21875 31.367188 L 21.21875 21.917969 L 18.917969 20.757812 C 17.65625 20.136719 16.574219 19.617188 16.515625 19.617188 C 16.453125 19.617188 16.414062 21.980469 16.414062 24.863281 C 16.414062 27.746094 16.355469 30.027344 16.273438 29.964844 C 16.214844 29.886719 14.691406 26.742188 12.929688 22.980469 L 9.707031 16.113281 L 7.605469 14.972656 C 6.445312 14.332031 5.445312 13.8125 5.363281 13.8125 C 5.265625 13.8125 5.203125 18.015625 5.203125 23.160156 Z M 5.203125 23.160156 "/>
</g>
</svg>
