<svg version="1.1" id="Layer_1" xmlns="http://www.w3.org/2000/svg" xmlns:xlink="http://www.w3.org/1999/xlink" x="0px" y="0px"
	 width="100%" viewBox="0 0 1200 600" enable-background="new 0 0 1200 600" xml:space="preserve">
<path fill="#FFFFFF" opacity="1.000000" stroke="none" 
	d="
M720.000000,601.000000 
	C480.000000,601.000000 240.500031,601.000000 1.000032,601.000000 
	C1.000021,401.000031 1.000021,201.000046 1.000011,1.000059 
	C400.999969,1.000039 800.999939,1.000039 1201.000000,1.000020 
	C1201.000000,200.999939 1201.000000,400.999878 1201.000000,600.999878 
	C1040.833374,601.000000 880.666687,601.000000 720.000000,601.000000 
M372.500000,131.455612 
	C278.846527,131.455566 185.193054,131.450150 91.539581,131.461014 
	C76.733009,131.462738 71.347466,136.868134 71.347191,151.619308 
	C71.345314,251.438644 71.344452,351.257965 71.348503,451.077301 
	C71.349052,464.663239 76.911591,470.516022 90.254395,470.521454 
	C190.740295,470.562347 291.226196,470.561981 391.712097,470.521454 
	C404.684814,470.516235 410.212128,464.815735 410.214325,451.863525 
	C410.222961,400.870697 410.218445,349.877838 410.218231,298.885010 
	C410.218048,248.892014 410.231750,198.899017 410.205475,148.906036 
	C410.199646,137.819107 404.580017,131.913498 393.495361,131.520157 
	C386.837830,131.283951 380.165558,131.463440 372.500000,131.455612 
M471.962769,349.500000 
	C471.966461,364.153870 471.876831,378.808563 472.010468,393.461243 
	C472.085083,401.637115 478.260101,408.131226 486.193970,408.836395 
	C493.696045,409.503204 500.814209,404.091522 502.347321,396.201202 
	C502.911194,393.299164 502.784790,390.246887 502.818787,387.261383 
	C502.883636,381.561859 502.837616,375.861084 502.837616,371.218597 
	C512.305481,373.546112 521.152588,377.096161 530.194153,377.691040 
	C559.672974,379.630554 586.389771,359.140686 592.707275,329.034088 
	C595.333801,316.516846 595.055054,303.242493 594.850891,290.332184 
	C594.721680,282.162476 593.315125,273.684448 590.709717,265.940826 
	C580.858154,236.659668 552.001282,219.513123 522.445129,225.212814 
	C515.249939,226.600342 508.434753,229.958130 501.688202,232.324631 
	C499.476105,230.316467 497.349854,227.582611 494.568085,226.003693 
	C483.993103,220.001434 472.010529,227.779465 471.987427,240.593430 
	C471.922546,276.562195 471.963531,312.531128 471.962769,349.500000 
M743.884277,377.824890 
	C771.224121,379.071533 793.583801,365.311951 804.786743,340.347046 
	C813.991638,319.834625 813.790222,279.472931 803.715088,259.479980 
	C793.057495,238.331314 776.074463,225.367371 751.960815,224.165634 
	C723.017395,222.723236 697.046448,242.139847 690.426697,271.576813 
	C687.341675,285.295776 687.912842,299.964294 687.843567,314.207336 
	C687.701660,343.374359 709.382935,373.708405 743.884277,377.824890 
M1055.887817,280.605133 
	C1049.319824,265.321960 1042.810669,250.012909 1036.128540,234.779816 
	C1034.948853,232.090561 1033.444946,229.318680 1031.399414,227.278107 
	C1026.141968,222.033539 1018.261169,221.710617 1012.149902,226.002960 
	C1005.990051,230.329391 1004.095032,237.942032 1007.383850,245.622879 
	C1020.153076,275.444000 1032.437744,305.490143 1046.039429,334.927307 
	C1050.516235,344.615845 1049.724609,352.299042 1044.905884,360.880310 
	C1039.153564,371.124329 1030.732422,377.033875 1019.016052,377.952515 
	C1008.485596,378.778137 1002.169983,385.286865 1002.899292,394.885681 
	C1003.574097,403.766815 1011.373962,409.774841 1021.420471,408.745422 
	C1046.011719,406.225739 1063.965332,393.926086 1073.898926,371.209106 
	C1091.960327,329.904541 1109.581787,288.407410 1127.331421,246.966873 
	C1131.315186,237.665817 1128.067505,228.821274 1119.587036,225.239716 
	C1111.314575,221.746033 1102.843994,225.483856 1098.880859,234.547760 
	C1094.482666,244.606781 1090.237915,254.732758 1085.915161,264.824860 
	C1079.898438,278.871460 1073.871338,292.913696 1067.535034,307.689178 
	C1063.516357,298.398285 1059.824341,289.862549 1055.887817,280.605133 
M872.320496,279.500031 
	C872.320496,271.397797 872.320496,263.295563 872.320496,254.878906 
	C882.838074,254.878906 892.654114,254.992340 902.466248,254.846176 
	C911.792053,254.707245 918.762329,247.903366 918.697205,239.317841 
	C918.631470,230.660339 911.661865,224.119492 902.342529,224.004898 
	C899.011475,223.963928 895.679443,223.997849 892.347900,223.997803 
	C885.771362,223.997711 879.194824,223.997772 872.263184,223.997772 
	C872.263184,218.083633 872.454407,212.931717 872.219849,207.799286 
	C871.836365,199.409561 865.045227,193.045563 856.889465,193.125610 
	C848.754456,193.205429 841.832764,199.672379 841.810852,208.042282 
	C841.712158,245.687210 841.235352,283.345917 842.063721,320.973907 
	C842.735229,351.473145 870.259277,377.322266 900.906067,377.980042 
	C911.042053,378.197571 918.289917,372.128845 918.677856,363.099304 
	C919.057861,354.254578 912.061646,347.575684 901.897095,347.079529 
	C886.369385,346.321655 873.895264,335.023651 872.847351,319.451355 
	C871.976746,306.514374 872.445312,293.487244 872.320496,279.500031 
M957.605225,376.131592 
	C969.239929,381.161316 980.102234,374.419983 980.121704,361.889282 
	C980.200684,310.945923 980.174683,260.002350 980.089233,209.059006 
	C980.085144,206.644608 979.566589,204.035538 978.557434,201.855057 
	C975.541504,195.338654 968.232788,191.925034 961.569946,193.532761 
	C953.748657,195.420044 949.343750,201.474823 949.338745,210.659607 
	C949.311523,260.604187 949.345581,310.548828 949.299255,360.493347 
	C949.293274,366.948517 951.346130,372.212616 957.605225,376.131592 
M656.864990,308.500000 
	C656.864502,275.683563 656.893433,242.867096 656.845459,210.050751 
	C656.831177,200.293640 650.348022,193.236786 641.551636,193.124954 
	C632.578613,193.010864 625.998108,200.174789 625.994507,210.197754 
	C625.976379,260.505188 625.978394,310.812592 626.014526,361.119995 
	C626.015930,363.090820 626.147522,365.149353 626.714355,367.016449 
	C628.965149,374.429657 636.269897,379.013245 643.689636,377.875732 
	C651.202393,376.723969 656.770691,370.210205 656.826111,361.972717 
	C656.943848,344.482513 656.863892,326.990997 656.864990,308.500000 
z"/>
<path fill="#129DFF" opacity="1.000000" stroke="none" 
	d="
M372.999939,131.455872 
	C380.165558,131.463440 386.837830,131.283951 393.495361,131.520157 
	C404.580017,131.913498 410.199646,137.819107 410.205475,148.906036 
	C410.231750,198.899017 410.218048,248.892014 410.218231,298.885010 
	C410.218445,349.877838 410.222961,400.870697 410.214325,451.863525 
	C410.212128,464.815735 404.684814,470.516235 391.712097,470.521454 
	C291.226196,470.561981 190.740295,470.562347 90.254395,470.521454 
	C76.911591,470.516022 71.349052,464.663239 71.348503,451.077301 
	C71.344452,351.257965 71.345314,251.438644 71.347191,151.619308 
	C71.347466,136.868134 76.733009,131.462738 91.539581,131.461014 
	C185.193054,131.450150 278.846527,131.455566 372.999939,131.455872 
M331.861572,408.821320 
	C342.529388,408.656128 348.783722,402.381256 348.795563,391.548553 
	C348.839111,351.738647 348.832031,311.928680 348.800201,272.118713 
	C348.792023,261.902740 342.506104,254.957062 333.406982,254.892822 
	C324.162537,254.827560 317.958801,261.606049 317.953644,271.911621 
	C317.933716,311.721588 317.937744,351.531525 317.950989,391.341492 
	C317.954224,401.076477 321.734894,406.041992 331.861572,408.821320 
M225.387970,321.500061 
	C225.382431,304.501221 225.493912,287.501221 225.324615,270.503998 
	C225.232559,261.262726 218.731674,254.873672 210.019470,254.893845 
	C201.324707,254.913956 194.837463,261.424225 194.821442,270.610565 
	C194.750244,311.441040 194.763275,352.271729 194.858139,393.102112 
	C194.863739,395.513977 195.427902,398.125153 196.461807,400.296082 
	C199.463638,406.599274 206.645798,409.958374 213.088684,408.474762 
	C220.615463,406.741516 225.294678,401.116669 225.335587,392.995087 
	C225.453888,369.497253 225.384247,345.998474 225.387970,321.500061 
M256.180786,387.415222 
	C256.411865,390.723846 256.221222,394.130005 256.959534,397.321289 
	C258.634735,404.562561 265.896606,409.557831 273.001404,408.824066 
	C280.559753,408.043488 286.884735,401.820587 286.949677,394.266205 
	C287.131622,373.106079 287.111298,351.942657 286.953186,330.782135 
	C286.904724,324.294189 281.996185,318.658936 275.792267,316.990601 
	C265.511230,314.225800 256.293396,321.613251 256.215881,332.949646 
	C256.093964,350.778290 256.181854,368.608337 256.180786,387.415222 
M163.929993,359.500000 
	C163.928757,350.501984 164.014465,341.502869 163.902191,332.506256 
	C163.786545,323.239288 157.047546,316.325745 148.353897,316.325043 
	C139.788544,316.324371 133.083511,323.394867 133.051849,332.725189 
	C132.984558,352.553925 132.992355,372.383148 133.046753,392.211975 
	C133.073151,401.832855 139.784103,408.940857 148.573227,408.871002 
	C157.371292,408.801056 163.858414,401.726349 163.914856,391.992950 
	C163.975708,381.495636 163.929489,370.997681 163.929993,359.500000 
M146.053085,193.190231 
	C144.793701,193.603851 143.492462,193.921097 142.281738,194.446793 
	C134.645828,197.762390 131.092819,206.673645 134.270447,214.435181 
	C137.352966,221.964417 145.905762,225.749710 153.613495,222.996017 
	C160.324020,220.598602 164.901138,213.279724 163.884262,206.572983 
	C162.656662,198.476395 155.920074,193.137360 146.053085,193.190231 
M258.423126,277.869110 
	C263.707520,286.032623 273.016937,288.000153 280.720520,282.581635 
	C287.836212,277.576630 289.173553,267.774628 283.723663,260.570435 
	C279.445923,254.915710 270.826630,253.220627 264.431702,256.776459 
	C256.841766,260.996765 254.537277,268.389526 258.423126,277.869110 
M135.982910,279.345917 
	C136.794373,280.178040 137.539780,281.089478 138.428085,281.829346 
	C143.988724,286.460693 151.197128,286.823090 157.276840,282.825043 
	C162.768158,279.213928 165.184128,272.122925 163.090332,265.762299 
	C160.759094,258.680389 155.104309,254.735458 147.620834,254.970398 
	C136.022858,255.334488 129.967834,267.233215 135.982910,279.345917 
M319.021545,202.923767 
	C318.690186,205.521133 317.785736,208.199753 318.140137,210.699905 
	C319.028320,216.965408 322.874634,221.251755 328.812073,223.268982 
	C334.476166,225.193359 339.697510,223.799927 343.876343,219.568924 
	C348.083435,215.309341 350.085571,210.287552 347.976227,204.208466 
	C345.750916,197.795090 341.330597,193.777969 334.633087,193.165237 
	C327.633148,192.524857 322.654449,196.160522 319.021545,202.923767 
M256.082367,208.536392 
	C256.355286,209.826584 256.574738,211.130844 256.910065,212.404602 
	C258.735352,219.337906 264.685150,223.957687 271.794647,223.996704 
	C278.405701,224.032974 284.981506,218.847336 286.732605,212.216736 
	C288.428558,205.795120 284.967987,198.252579 278.808472,194.945526 
	C272.593140,191.608490 265.303070,192.519821 260.736786,198.032379 
	C258.519745,200.708893 257.607056,204.465881 256.082367,208.536392 
M194.941147,209.369873 
	C195.489288,218.140930 202.055466,224.267715 210.614838,223.994705 
	C219.312286,223.717285 225.250809,217.040390 225.093033,207.716324 
	C224.951859,199.373444 218.329056,192.886841 209.916946,193.077026 
	C201.951553,193.257095 193.695526,200.703171 194.941147,209.369873 
z"/>
<path fill="#516885" opacity="1.000000" stroke="none" 
	d="
M471.962769,349.000000 
	C471.963531,312.531128 471.922546,276.562195 471.987427,240.593430 
	C472.010529,227.779465 483.993103,220.001434 494.568085,226.003693 
	C497.349854,227.582611 499.476105,230.316467 501.688202,232.324631 
	C508.434753,229.958130 515.249939,226.600342 522.445129,225.212814 
	C552.001282,219.513123 580.858154,236.659668 590.709717,265.940826 
	C593.315125,273.684448 594.721680,282.162476 594.850891,290.332184 
	C595.055054,303.242493 595.333801,316.516846 592.707275,329.034088 
	C586.389771,359.140686 559.672974,379.630554 530.194153,377.691040 
	C521.152588,377.096161 512.305481,373.546112 502.837616,371.218597 
	C502.837616,375.861084 502.883636,381.561859 502.818787,387.261383 
	C502.784790,390.246887 502.911194,393.299164 502.347321,396.201202 
	C500.814209,404.091522 493.696045,409.503204 486.193970,408.836395 
	C478.260101,408.131226 472.085083,401.637115 472.010468,393.461243 
	C471.876831,378.808563 471.966461,364.153870 471.962769,349.000000 
M511.960205,264.469086 
	C506.716858,270.173431 503.361176,276.892639 503.084381,284.598022 
	C502.690338,295.567566 502.530457,306.585938 503.100433,317.540253 
	C503.946747,333.805237 517.830200,347.020721 533.312500,347.100464 
	C548.922607,347.180817 562.944031,334.267700 563.900330,317.990417 
	C564.562805,306.713959 564.763855,295.306854 563.838501,284.067871 
	C562.780090,271.213470 555.960876,261.480255 543.577209,256.788971 
	C531.824890,252.336868 521.383667,255.277740 511.960205,264.469086 
z"/>
<path fill="#516885" opacity="1.000000" stroke="none" 
	d="
M743.432007,377.782471 
	C709.382935,373.708405 687.701660,343.374359 687.843567,314.207336 
	C687.912842,299.964294 687.341675,285.295776 690.426697,271.576813 
	C697.046448,242.139847 723.017395,222.723236 751.960815,224.165634 
	C776.074463,225.367371 793.057495,238.331314 803.715088,259.479980 
	C813.790222,279.472931 813.991638,319.834625 804.786743,340.347046 
	C793.583801,365.311951 771.224121,379.071533 743.432007,377.782471 
M720.486755,276.244934 
	C716.740906,290.340118 717.787903,304.683624 719.025146,318.880829 
	C720.364197,334.246460 733.254150,346.463531 747.340210,347.058105 
	C762.904541,347.715088 776.859497,337.217896 778.828308,321.035858 
	C780.399719,308.119171 780.369873,294.750854 778.997437,281.800659 
	C777.437195,267.078583 765.681396,256.362976 752.697083,255.029190 
	C738.610718,253.582199 727.008850,261.034424 720.486755,276.244934 
z"/>
<path fill="#516885" opacity="1.000000" stroke="none" 
	d="
M1056.010010,280.966003 
	C1059.824341,289.862549 1063.516357,298.398285 1067.535034,307.689178 
	C1073.871338,292.913696 1079.898438,278.871460 1085.915161,264.824860 
	C1090.237915,254.732758 1094.482666,244.606781 1098.880859,234.547760 
	C1102.843994,225.483856 1111.314575,221.746033 1119.587036,225.239716 
	C1128.067505,228.821274 1131.315186,237.665817 1127.331421,246.966873 
	C1109.581787,288.407410 1091.960327,329.904541 1073.898926,371.209106 
	C1063.965332,393.926086 1046.011719,406.225739 1021.420471,408.745422 
	C1011.373962,409.774841 1003.574097,403.766815 1002.899292,394.885681 
	C1002.169983,385.286865 1008.485596,378.778137 1019.016052,377.952515 
	C1030.732422,377.033875 1039.153564,371.124329 1044.905884,360.880310 
	C1049.724609,352.299042 1050.516235,344.615845 1046.039429,334.927307 
	C1032.437744,305.490143 1020.153076,275.444000 1007.383850,245.622879 
	C1004.095032,237.942032 1005.990051,230.329391 1012.149902,226.002960 
	C1018.261169,221.710617 1026.141968,222.033539 1031.399414,227.278107 
	C1033.444946,229.318680 1034.948853,232.090561 1036.128540,234.779816 
	C1042.810669,250.012909 1049.319824,265.321960 1056.010010,280.966003 
z"/>
<path fill="#516885" opacity="1.000000" stroke="none" 
	d="
M872.320557,280.000061 
	C872.445312,293.487244 871.976746,306.514374 872.847351,319.451355 
	C873.895264,335.023651 886.369385,346.321655 901.897095,347.079529 
	C912.061646,347.575684 919.057861,354.254578 918.677856,363.099304 
	C918.289917,372.128845 911.042053,378.197571 900.906067,377.980042 
	C870.259277,377.322266 842.735229,351.473145 842.063721,320.973907 
	C841.235352,283.345917 841.712158,245.687210 841.810852,208.042282 
	C841.832764,199.672379 848.754456,193.205429 856.889465,193.125610 
	C865.045227,193.045563 871.836365,199.409561 872.219849,207.799286 
	C872.454407,212.931717 872.263184,218.083633 872.263184,223.997772 
	C879.194824,223.997772 885.771362,223.997711 892.347900,223.997803 
	C895.679443,223.997849 899.011475,223.963928 902.342529,224.004898 
	C911.661865,224.119492 918.631470,230.660339 918.697205,239.317841 
	C918.762329,247.903366 911.792053,254.707245 902.466248,254.846176 
	C892.654114,254.992340 882.838074,254.878906 872.320496,254.878906 
	C872.320496,263.295563 872.320496,271.397797 872.320557,280.000061 
z"/>
<path fill="#536986" opacity="1.000000" stroke="none" 
	d="
M957.261658,375.971313 
	C951.346130,372.212616 949.293274,366.948517 949.299255,360.493347 
	C949.345581,310.548828 949.311523,260.604187 949.338745,210.659607 
	C949.343750,201.474823 953.748657,195.420044 961.569946,193.532761 
	C968.232788,191.925034 975.541504,195.338654 978.557434,201.855057 
	C979.566589,204.035538 980.085144,206.644608 980.089233,209.059006 
	C980.174683,260.002350 980.200684,310.945923 980.121704,361.889282 
	C980.102234,374.419983 969.239929,381.161316 957.261658,375.971313 
z"/>
<path fill="#516885" opacity="1.000000" stroke="none" 
	d="
M656.864990,309.000000 
	C656.863892,326.990997 656.943848,344.482513 656.826111,361.972717 
	C656.770691,370.210205 651.202393,376.723969 643.689636,377.875732 
	C636.269897,379.013245 628.965149,374.429657 626.714355,367.016449 
	C626.147522,365.149353 626.015930,363.090820 626.014526,361.119995 
	C625.978394,310.812592 625.976379,260.505188 625.994507,210.197754 
	C625.998108,200.174789 632.578613,193.010864 641.551636,193.124954 
	C650.348022,193.236786 656.831177,200.293640 656.845459,210.050751 
	C656.893433,242.867096 656.864502,275.683563 656.864990,309.000000 
z"/>
<path fill="#FDFEFF" opacity="1.000000" stroke="none" 
	d="
M331.460266,408.765747 
	C321.734894,406.041992 317.954224,401.076477 317.950989,391.341492 
	C317.937744,351.531525 317.933716,311.721588 317.953644,271.911621 
	C317.958801,261.606049 324.162537,254.827560 333.406982,254.892822 
	C342.506104,254.957062 348.792023,261.902740 348.800201,272.118713 
	C348.832031,311.928680 348.839111,351.738647 348.795563,391.548553 
	C348.783722,402.381256 342.529388,408.656128 331.460266,408.765747 
z"/>
<path fill="#FEFFFF" opacity="1.000000" stroke="none" 
	d="
M225.388184,322.000061 
	C225.384247,345.998474 225.453888,369.497253 225.335587,392.995087 
	C225.294678,401.116669 220.615463,406.741516 213.088684,408.474762 
	C206.645798,409.958374 199.463638,406.599274 196.461807,400.296082 
	C195.427902,398.125153 194.863739,395.513977 194.858139,393.102112 
	C194.763275,352.271729 194.750244,311.441040 194.821442,270.610565 
	C194.837463,261.424225 201.324707,254.913956 210.019470,254.893845 
	C218.731674,254.873672 225.232559,261.262726 225.324615,270.503998 
	C225.493912,287.501221 225.382431,304.501221 225.388184,322.000061 
z"/>
<path fill="#FCFEFF" opacity="1.000000" stroke="none" 
	d="
M256.180847,386.926514 
	C256.181854,368.608337 256.093964,350.778290 256.215881,332.949646 
	C256.293396,321.613251 265.511230,314.225800 275.792267,316.990601 
	C281.996185,318.658936 286.904724,324.294189 286.953186,330.782135 
	C287.111298,351.942657 287.131622,373.106079 286.949677,394.266205 
	C286.884735,401.820587 280.559753,408.043488 273.001404,408.824066 
	C265.896606,409.557831 258.634735,404.562561 256.959534,397.321289 
	C256.221222,394.130005 256.411865,390.723846 256.180847,386.926514 
z"/>
<path fill="#FDFEFF" opacity="1.000000" stroke="none" 
	d="
M163.929993,360.000000 
	C163.929489,370.997681 163.975708,381.495636 163.914856,391.992950 
	C163.858414,401.726349 157.371292,408.801056 148.573227,408.871002 
	C139.784103,408.940857 133.073151,401.832855 133.046753,392.211975 
	C132.992355,372.383148 132.984558,352.553925 133.051849,332.725189 
	C133.083511,323.394867 139.788544,316.324371 148.353897,316.325043 
	C157.047546,316.325745 163.786545,323.239288 163.902191,332.506256 
	C164.014465,341.502869 163.928757,350.501984 163.929993,360.000000 
z"/>
<path fill="#25FCFD" opacity="1.000000" stroke="none" 
	d="
M146.458664,193.137054 
	C155.920074,193.137360 162.656662,198.476395 163.884262,206.572983 
	C164.901138,213.279724 160.324020,220.598602 153.613495,222.996017 
	C145.905762,225.749710 137.352966,221.964417 134.270447,214.435181 
	C131.092819,206.673645 134.645828,197.762390 142.281738,194.446793 
	C143.492462,193.921097 144.793701,193.603851 146.458664,193.137054 
z"/>
<path fill="#25FCFD" opacity="1.000000" stroke="none" 
	d="
M258.246094,277.528381 
	C254.537277,268.389526 256.841766,260.996765 264.431702,256.776459 
	C270.826630,253.220627 279.445923,254.915710 283.723663,260.570435 
	C289.173553,267.774628 287.836212,277.576630 280.720520,282.581635 
	C273.016937,288.000153 263.707520,286.032623 258.246094,277.528381 
z"/>
<path fill="#25FDFD" opacity="1.000000" stroke="none" 
	d="
M135.751801,279.047150 
	C129.967834,267.233215 136.022858,255.334488 147.620834,254.970398 
	C155.104309,254.735458 160.759094,258.680389 163.090332,265.762299 
	C165.184128,272.122925 162.768158,279.213928 157.276840,282.825043 
	C151.197128,286.823090 143.988724,286.460693 138.428085,281.829346 
	C137.539780,281.089478 136.794373,280.178040 135.751801,279.047150 
z"/>
<path fill="#25FDFD" opacity="1.000000" stroke="none" 
	d="
M319.190552,202.569733 
	C322.654449,196.160522 327.633148,192.524857 334.633087,193.165237 
	C341.330597,193.777969 345.750916,197.795090 347.976227,204.208466 
	C350.085571,210.287552 348.083435,215.309341 343.876343,219.568924 
	C339.697510,223.799927 334.476166,225.193359 328.812073,223.268982 
	C322.874634,221.251755 319.028320,216.965408 318.140137,210.699905 
	C317.785736,208.199753 318.690186,205.521133 319.190552,202.569733 
z"/>
<path fill="#25FCFD" opacity="1.000000" stroke="none" 
	d="
M256.093109,208.135056 
	C257.607056,204.465881 258.519745,200.708893 260.736786,198.032379 
	C265.303070,192.519821 272.593140,191.608490 278.808472,194.945526 
	C284.967987,198.252579 288.428558,205.795120 286.732605,212.216736 
	C284.981506,218.847336 278.405701,224.032974 271.794647,223.996704 
	C264.685150,223.957687 258.735352,219.337906 256.910065,212.404602 
	C256.574738,211.130844 256.355286,209.826584 256.093109,208.135056 
z"/>
<path fill="#25FCFD" opacity="1.000000" stroke="none" 
	d="
M194.939835,208.935104 
	C193.695526,200.703171 201.951553,193.257095 209.916946,193.077026 
	C218.329056,192.886841 224.951859,199.373444 225.093033,207.716324 
	C225.250809,217.040390 219.312286,223.717285 210.614838,223.994705 
	C202.055466,224.267715 195.489288,218.140930 194.939835,208.935104 
z"/>
<path fill="#FEFEFE" opacity="1.000000" stroke="none" 
	d="
M512.210083,264.214996 
	C521.383667,255.277740 531.824890,252.336868 543.577209,256.788971 
	C555.960876,261.480255 562.780090,271.213470 563.838501,284.067871 
	C564.763855,295.306854 564.562805,306.713959 563.900330,317.990417 
	C562.944031,334.267700 548.922607,347.180817 533.312500,347.100464 
	C517.830200,347.020721 503.946747,333.805237 503.100433,317.540253 
	C502.530457,306.585938 502.690338,295.567566 503.084381,284.598022 
	C503.361176,276.892639 506.716858,270.173431 512.210083,264.214996 
z"/>
<path fill="#FEFEFE" opacity="1.000000" stroke="none" 
	d="
M720.642212,275.882019 
	C727.008850,261.034424 738.610718,253.582199 752.697083,255.029190 
	C765.681396,256.362976 777.437195,267.078583 778.997437,281.800659 
	C780.369873,294.750854 780.399719,308.119171 778.828308,321.035858 
	C776.859497,337.217896 762.904541,347.715088 747.340210,347.058105 
	C733.254150,346.463531 720.364197,334.246460 719.025146,318.880829 
	C717.787903,304.683624 716.740906,290.340118 720.642212,275.882019 
z"/>
</svg>