<?xml version="1.0" encoding="UTF-8"?>
<svg xmlns="http://www.w3.org/2000/svg" xmlns:xlink="http://www.w3.org/1999/xlink" width="90px" height="45px" viewBox="0 0 90 45" version="1.1">
<g id="surface1">
<path style=" stroke:none;fill-rule:nonzero;fill:rgb(100%,100%,100%);fill-opacity:1;" d="M 54 45.074219 C 36 45.074219 18.039062 45.074219 0.0742188 45.074219 C 0.0742188 30.074219 0.0742188 15.074219 0.0742188 0.0742188 C 30.074219 0.0742188 60.074219 0.0742188 90.074219 0.0742188 C 90.074219 15.074219 90.074219 30.074219 90.074219 45.074219 C 78.0625 45.074219 66.050781 45.074219 54 45.074219 M 27.9375 9.859375 C 20.914062 9.859375 13.890625 9.859375 6.867188 9.859375 C 5.753906 9.859375 5.351562 10.265625 5.351562 11.371094 C 5.351562 18.859375 5.351562 26.34375 5.351562 33.832031 C 5.351562 34.851562 5.769531 35.289062 6.769531 35.289062 C 14.304688 35.292969 21.84375 35.292969 29.378906 35.289062 C 30.351562 35.289062 30.765625 34.859375 30.765625 33.890625 C 30.765625 30.066406 30.765625 26.242188 30.765625 22.417969 C 30.765625 18.667969 30.765625 14.917969 30.765625 11.167969 C 30.765625 10.335938 30.34375 9.894531 29.511719 9.863281 C 29.011719 9.847656 28.511719 9.859375 27.9375 9.859375 M 35.398438 26.210938 C 35.398438 27.3125 35.390625 28.410156 35.402344 29.507812 C 35.40625 30.121094 35.871094 30.609375 36.464844 30.664062 C 37.027344 30.710938 37.5625 30.308594 37.675781 29.714844 C 37.71875 29.496094 37.707031 29.269531 37.710938 29.042969 C 37.714844 28.617188 37.710938 28.191406 37.710938 27.839844 C 38.421875 28.015625 39.085938 28.28125 39.765625 28.328125 C 41.976562 28.472656 43.980469 26.9375 44.453125 24.675781 C 44.648438 23.738281 44.628906 22.742188 44.613281 21.773438 C 44.605469 21.164062 44.5 20.527344 44.304688 19.945312 C 43.5625 17.75 41.398438 16.464844 39.183594 16.890625 C 38.644531 16.996094 38.132812 17.246094 37.625 17.425781 C 37.460938 17.273438 37.300781 17.070312 37.09375 16.949219 C 36.300781 16.5 35.402344 17.082031 35.398438 18.042969 C 35.394531 20.742188 35.398438 23.441406 35.398438 26.210938 M 55.792969 28.335938 C 57.84375 28.429688 59.519531 27.398438 60.359375 25.527344 C 61.050781 23.988281 61.035156 20.960938 60.277344 19.460938 C 59.480469 17.875 58.207031 16.902344 56.398438 16.8125 C 54.226562 16.703125 52.277344 18.160156 51.78125 20.367188 C 51.550781 21.398438 51.59375 22.496094 51.589844 23.566406 C 51.578125 25.753906 53.203125 28.027344 55.792969 28.335938 M 79.191406 21.046875 C 78.699219 19.898438 78.210938 18.75 77.710938 17.609375 C 77.621094 17.40625 77.507812 17.199219 77.355469 17.046875 C 76.960938 16.652344 76.371094 16.628906 75.910156 16.949219 C 75.449219 17.273438 75.308594 17.84375 75.554688 18.421875 C 76.511719 20.660156 77.433594 22.910156 78.453125 25.121094 C 78.789062 25.847656 78.730469 26.421875 78.367188 27.066406 C 77.9375 27.835938 77.304688 28.277344 76.425781 28.347656 C 75.636719 28.410156 75.164062 28.898438 75.21875 29.617188 C 75.269531 30.28125 75.851562 30.734375 76.605469 30.65625 C 78.449219 30.46875 79.796875 29.542969 80.542969 27.839844 C 81.898438 24.742188 83.21875 21.628906 84.550781 18.523438 C 84.847656 17.824219 84.605469 17.160156 83.96875 16.894531 C 83.347656 16.632812 82.714844 16.910156 82.417969 17.589844 C 82.085938 18.34375 81.769531 19.105469 81.445312 19.863281 C 80.992188 20.914062 80.539062 21.96875 80.066406 23.078125 C 79.765625 22.378906 79.488281 21.738281 79.191406 21.046875 M 65.425781 20.960938 C 65.425781 20.355469 65.425781 19.746094 65.425781 19.117188 C 66.210938 19.117188 66.949219 19.125 67.683594 19.113281 C 68.382812 19.101562 68.90625 18.59375 68.902344 17.949219 C 68.898438 17.300781 68.375 16.808594 67.675781 16.800781 C 67.425781 16.796875 67.175781 16.800781 66.925781 16.800781 C 66.433594 16.800781 65.941406 16.800781 65.417969 16.800781 C 65.417969 16.355469 65.433594 15.96875 65.417969 15.585938 C 65.386719 14.957031 64.878906 14.476562 64.265625 14.484375 C 63.65625 14.492188 63.136719 14.976562 63.136719 15.601562 C 63.128906 18.425781 63.09375 21.25 63.15625 24.074219 C 63.207031 26.359375 65.269531 28.300781 67.566406 28.347656 C 68.328125 28.363281 68.871094 27.910156 68.902344 27.234375 C 68.929688 26.570312 68.40625 26.066406 67.640625 26.03125 C 66.476562 25.972656 65.542969 25.125 65.464844 23.957031 C 65.398438 22.988281 65.433594 22.011719 65.425781 20.960938 M 71.820312 28.210938 C 72.691406 28.585938 73.507812 28.082031 73.507812 27.140625 C 73.515625 23.320312 73.511719 19.5 73.507812 15.679688 C 73.507812 15.5 73.46875 15.300781 73.390625 15.140625 C 73.164062 14.652344 72.617188 14.394531 72.117188 14.515625 C 71.53125 14.65625 71.199219 15.109375 71.199219 15.800781 C 71.199219 19.546875 71.199219 23.292969 71.199219 27.035156 C 71.195312 27.519531 71.351562 27.914062 71.820312 28.210938 M 49.265625 23.136719 C 49.265625 20.675781 49.265625 18.214844 49.261719 15.753906 C 49.261719 15.023438 48.777344 14.492188 48.117188 14.484375 C 47.445312 14.476562 46.949219 15.011719 46.949219 15.765625 C 46.949219 19.539062 46.949219 23.3125 46.949219 27.085938 C 46.953125 27.230469 46.960938 27.386719 47.003906 27.527344 C 47.171875 28.082031 47.71875 28.425781 48.277344 28.339844 C 48.839844 28.253906 49.257812 27.765625 49.261719 27.148438 C 49.269531 25.835938 49.265625 24.523438 49.265625 23.136719 Z M 49.265625 23.136719 "/>
<path style=" stroke:none;fill-rule:nonzero;fill:rgb(7.058824%,61.568627%,100%);fill-opacity:1;" d="M 27.976562 9.859375 C 28.511719 9.859375 29.011719 9.847656 29.511719 9.863281 C 30.34375 9.894531 30.765625 10.335938 30.765625 11.167969 C 30.765625 14.917969 30.765625 18.667969 30.765625 22.417969 C 30.765625 26.242188 30.765625 30.066406 30.765625 33.890625 C 30.765625 34.859375 30.351562 35.289062 29.378906 35.289062 C 21.84375 35.292969 14.304688 35.292969 6.769531 35.289062 C 5.769531 35.289062 5.351562 34.851562 5.351562 33.832031 C 5.351562 26.34375 5.351562 18.859375 5.351562 11.371094 C 5.351562 10.265625 5.753906 9.859375 6.867188 9.859375 C 13.890625 9.859375 20.914062 9.859375 27.976562 9.859375 M 24.890625 30.660156 C 25.691406 30.648438 26.160156 30.179688 26.160156 29.367188 C 26.164062 26.378906 26.164062 23.394531 26.160156 20.410156 C 26.160156 19.644531 25.6875 19.121094 25.003906 19.117188 C 24.3125 19.113281 23.847656 19.621094 23.847656 20.394531 C 23.84375 23.378906 23.84375 26.363281 23.847656 29.351562 C 23.847656 30.082031 24.128906 30.453125 24.890625 30.660156 M 16.902344 24.113281 C 16.902344 22.835938 16.910156 21.5625 16.898438 20.289062 C 16.890625 19.59375 16.40625 19.117188 15.75 19.117188 C 15.097656 19.117188 14.613281 19.605469 14.613281 20.296875 C 14.605469 23.359375 14.605469 26.421875 14.613281 29.484375 C 14.613281 29.664062 14.65625 29.859375 14.734375 30.023438 C 14.960938 30.496094 15.5 30.746094 15.980469 30.636719 C 16.546875 30.503906 16.898438 30.082031 16.898438 29.476562 C 16.910156 27.710938 16.902344 25.949219 16.902344 24.113281 M 19.214844 29.054688 C 19.230469 29.304688 19.214844 29.558594 19.273438 29.800781 C 19.398438 30.34375 19.941406 30.71875 20.476562 30.660156 C 21.042969 30.601562 21.515625 30.136719 21.519531 29.570312 C 21.535156 27.984375 21.535156 26.394531 21.523438 24.808594 C 21.519531 24.320312 21.148438 23.898438 20.683594 23.773438 C 19.914062 23.566406 19.222656 24.121094 19.214844 24.972656 C 19.207031 26.308594 19.214844 27.644531 19.214844 29.054688 M 12.292969 26.960938 C 12.292969 26.289062 12.300781 25.613281 12.292969 24.9375 C 12.285156 24.242188 11.777344 23.722656 11.125 23.722656 C 10.484375 23.722656 9.980469 24.253906 9.980469 24.953125 C 9.972656 26.441406 9.972656 27.929688 9.976562 29.414062 C 9.980469 30.136719 10.484375 30.671875 11.144531 30.664062 C 11.804688 30.660156 12.289062 30.128906 12.292969 29.398438 C 12.296875 28.613281 12.292969 27.824219 12.292969 26.960938 M 10.953125 14.488281 C 10.859375 14.519531 10.761719 14.542969 10.671875 14.582031 C 10.097656 14.832031 9.832031 15.5 10.070312 16.082031 C 10.300781 16.648438 10.941406 16.929688 11.519531 16.726562 C 12.023438 16.542969 12.367188 15.996094 12.292969 15.492188 C 12.199219 14.886719 11.695312 14.484375 10.953125 14.488281 M 19.382812 20.839844 C 19.777344 21.453125 20.476562 21.601562 21.054688 21.195312 C 21.585938 20.816406 21.6875 20.082031 21.277344 19.542969 C 20.957031 19.117188 20.3125 18.992188 19.832031 19.257812 C 19.261719 19.574219 19.089844 20.128906 19.382812 20.839844 M 10.199219 20.949219 C 10.257812 21.011719 10.316406 21.082031 10.382812 21.136719 C 10.800781 21.484375 11.339844 21.511719 11.796875 21.210938 C 12.207031 20.941406 12.390625 20.410156 12.230469 19.933594 C 12.058594 19.402344 11.632812 19.105469 11.070312 19.121094 C 10.203125 19.148438 9.746094 20.042969 10.199219 20.949219 M 23.925781 15.21875 C 23.902344 15.414062 23.832031 15.613281 23.859375 15.800781 C 23.925781 16.273438 24.214844 16.59375 24.660156 16.746094 C 25.085938 16.890625 25.476562 16.785156 25.789062 16.46875 C 26.105469 16.148438 26.257812 15.773438 26.097656 15.316406 C 25.929688 14.835938 25.601562 14.535156 25.097656 14.488281 C 24.574219 14.4375 24.199219 14.710938 23.925781 15.21875 M 19.207031 15.640625 C 19.226562 15.738281 19.242188 15.835938 19.269531 15.929688 C 19.40625 16.449219 19.851562 16.796875 20.382812 16.800781 C 20.878906 16.800781 21.375 16.414062 21.503906 15.917969 C 21.632812 15.433594 21.371094 14.867188 20.910156 14.621094 C 20.445312 14.371094 19.898438 14.4375 19.554688 14.851562 C 19.390625 15.054688 19.320312 15.335938 19.207031 15.640625 M 14.621094 15.703125 C 14.660156 16.359375 15.152344 16.820312 15.796875 16.800781 C 16.449219 16.777344 16.894531 16.277344 16.882812 15.578125 C 16.871094 14.953125 16.375 14.464844 15.742188 14.480469 C 15.144531 14.496094 14.527344 15.054688 14.621094 15.703125 Z M 14.621094 15.703125 "/>
<path style=" stroke:none;fill-rule:nonzero;fill:rgb(31.764706%,40.784314%,52.156863%);fill-opacity:1;" d="M 35.398438 26.175781 C 35.398438 23.441406 35.394531 20.742188 35.398438 18.042969 C 35.402344 17.082031 36.300781 16.5 37.09375 16.949219 C 37.300781 17.070312 37.460938 17.273438 37.625 17.425781 C 38.132812 17.246094 38.644531 16.996094 39.183594 16.890625 C 41.398438 16.464844 43.5625 17.75 44.304688 19.945312 C 44.5 20.527344 44.605469 21.164062 44.613281 21.773438 C 44.628906 22.742188 44.648438 23.738281 44.453125 24.675781 C 43.980469 26.9375 41.976562 28.472656 39.765625 28.328125 C 39.085938 28.28125 38.421875 28.015625 37.710938 27.839844 C 37.710938 28.191406 37.714844 28.617188 37.710938 29.042969 C 37.707031 29.269531 37.71875 29.496094 37.675781 29.714844 C 37.5625 30.308594 37.027344 30.710938 36.464844 30.664062 C 35.871094 30.609375 35.40625 30.121094 35.402344 29.507812 C 35.390625 28.410156 35.398438 27.3125 35.398438 26.175781 M 38.398438 19.835938 C 38.003906 20.261719 37.753906 20.765625 37.730469 21.34375 C 37.703125 22.167969 37.691406 22.992188 37.734375 23.816406 C 37.796875 25.035156 38.835938 26.027344 40 26.03125 C 41.167969 26.039062 42.222656 25.070312 42.292969 23.847656 C 42.34375 23.003906 42.355469 22.148438 42.289062 21.304688 C 42.207031 20.339844 41.695312 19.609375 40.769531 19.257812 C 39.886719 18.925781 39.105469 19.144531 38.398438 19.835938 Z M 38.398438 19.835938 "/>
<path style=" stroke:none;fill-rule:nonzero;fill:rgb(31.764706%,40.784314%,52.156863%);fill-opacity:1;" d="M 55.757812 28.332031 C 53.203125 28.027344 51.578125 25.753906 51.589844 23.566406 C 51.59375 22.496094 51.550781 21.398438 51.78125 20.367188 C 52.277344 18.160156 54.226562 16.703125 56.398438 16.8125 C 58.207031 16.902344 59.480469 17.875 60.277344 19.460938 C 61.035156 20.960938 61.050781 23.988281 60.359375 25.527344 C 59.519531 27.398438 57.84375 28.429688 55.757812 28.332031 M 54.035156 20.71875 C 53.753906 21.777344 53.835938 22.851562 53.925781 23.917969 C 54.027344 25.070312 54.992188 25.984375 56.050781 26.03125 C 57.21875 26.078125 58.265625 25.292969 58.414062 24.078125 C 58.53125 23.109375 58.527344 22.105469 58.425781 21.136719 C 58.308594 20.03125 57.425781 19.226562 56.453125 19.128906 C 55.394531 19.019531 54.527344 19.578125 54.035156 20.71875 Z M 54.035156 20.71875 "/>
<path style=" stroke:none;fill-rule:nonzero;fill:rgb(31.764706%,40.784314%,52.156863%);fill-opacity:1;" d="M 79.199219 21.074219 C 79.488281 21.738281 79.765625 22.378906 80.066406 23.078125 C 80.539062 21.96875 80.992188 20.914062 81.445312 19.863281 C 81.769531 19.105469 82.085938 18.34375 82.417969 17.589844 C 82.714844 16.910156 83.347656 16.632812 83.96875 16.894531 C 84.605469 17.160156 84.847656 17.824219 84.550781 18.523438 C 83.21875 21.628906 81.898438 24.742188 80.542969 27.839844 C 79.796875 29.542969 78.449219 30.46875 76.605469 30.65625 C 75.851562 30.734375 75.269531 30.28125 75.21875 29.617188 C 75.164062 28.898438 75.636719 28.410156 76.425781 28.347656 C 77.304688 28.277344 77.9375 27.835938 78.367188 27.066406 C 78.730469 26.421875 78.789062 25.847656 78.453125 25.121094 C 77.433594 22.910156 76.511719 20.660156 75.554688 18.421875 C 75.308594 17.84375 75.449219 17.273438 75.910156 16.949219 C 76.371094 16.628906 76.960938 16.652344 77.355469 17.046875 C 77.507812 17.199219 77.621094 17.40625 77.710938 17.609375 C 78.210938 18.75 78.699219 19.898438 79.199219 21.074219 Z M 79.199219 21.074219 "/>
<path style=" stroke:none;fill-rule:nonzero;fill:rgb(31.764706%,40.784314%,52.156863%);fill-opacity:1;" d="M 65.425781 21 C 65.433594 22.011719 65.398438 22.988281 65.464844 23.957031 C 65.542969 25.125 66.476562 25.972656 67.640625 26.03125 C 68.40625 26.066406 68.929688 26.570312 68.902344 27.234375 C 68.871094 27.910156 68.328125 28.363281 67.566406 28.347656 C 65.269531 28.300781 63.207031 26.359375 63.15625 24.074219 C 63.09375 21.25 63.128906 18.425781 63.136719 15.601562 C 63.136719 14.976562 63.65625 14.492188 64.265625 14.484375 C 64.878906 14.476562 65.386719 14.957031 65.417969 15.585938 C 65.433594 15.96875 65.417969 16.355469 65.417969 16.800781 C 65.941406 16.800781 66.433594 16.800781 66.925781 16.800781 C 67.175781 16.800781 67.425781 16.796875 67.675781 16.800781 C 68.375 16.808594 68.898438 17.300781 68.902344 17.949219 C 68.90625 18.59375 68.382812 19.101562 67.683594 19.113281 C 66.949219 19.125 66.210938 19.117188 65.425781 19.117188 C 65.425781 19.746094 65.425781 20.355469 65.425781 21 Z M 65.425781 21 "/>
<path style=" stroke:none;fill-rule:nonzero;fill:rgb(32.54902%,41.176471%,52.54902%);fill-opacity:1;" d="M 71.792969 28.199219 C 71.351562 27.914062 71.195312 27.519531 71.199219 27.035156 C 71.199219 23.292969 71.199219 19.546875 71.199219 15.800781 C 71.199219 15.109375 71.53125 14.65625 72.117188 14.515625 C 72.617188 14.394531 73.164062 14.652344 73.390625 15.140625 C 73.46875 15.300781 73.507812 15.5 73.507812 15.679688 C 73.511719 19.5 73.515625 23.320312 73.507812 27.140625 C 73.507812 28.082031 72.691406 28.585938 71.792969 28.199219 Z M 71.792969 28.199219 "/>
<path style=" stroke:none;fill-rule:nonzero;fill:rgb(31.764706%,40.784314%,52.156863%);fill-opacity:1;" d="M 49.265625 23.175781 C 49.265625 24.523438 49.269531 25.835938 49.261719 27.148438 C 49.257812 27.765625 48.839844 28.253906 48.277344 28.339844 C 47.71875 28.425781 47.171875 28.082031 47.003906 27.527344 C 46.960938 27.386719 46.953125 27.230469 46.949219 27.085938 C 46.949219 23.3125 46.949219 19.539062 46.949219 15.765625 C 46.949219 15.011719 47.445312 14.476562 48.117188 14.484375 C 48.777344 14.492188 49.261719 15.023438 49.261719 15.753906 C 49.265625 18.214844 49.265625 20.675781 49.265625 23.175781 Z M 49.265625 23.175781 "/>
<path style=" stroke:none;fill-rule:nonzero;fill:rgb(99.215686%,99.607843%,100%);fill-opacity:1;" d="M 24.859375 30.65625 C 24.128906 30.453125 23.847656 30.082031 23.847656 29.351562 C 23.84375 26.363281 23.84375 23.378906 23.847656 20.394531 C 23.847656 19.621094 24.3125 19.113281 25.003906 19.117188 C 25.6875 19.121094 26.160156 19.644531 26.160156 20.410156 C 26.164062 23.394531 26.164062 26.378906 26.160156 29.367188 C 26.160156 30.179688 25.691406 30.648438 24.859375 30.65625 Z M 24.859375 30.65625 "/>
<path style=" stroke:none;fill-rule:nonzero;fill:rgb(99.607843%,100%,100%);fill-opacity:1;" d="M 16.902344 24.148438 C 16.902344 25.949219 16.910156 27.710938 16.898438 29.476562 C 16.898438 30.082031 16.546875 30.503906 15.980469 30.636719 C 15.5 30.746094 14.960938 30.496094 14.734375 30.023438 C 14.65625 29.859375 14.613281 29.664062 14.613281 29.484375 C 14.605469 26.421875 14.605469 23.359375 14.613281 20.296875 C 14.613281 19.605469 15.097656 19.117188 15.75 19.117188 C 16.40625 19.117188 16.890625 19.59375 16.898438 20.289062 C 16.910156 21.5625 16.902344 22.835938 16.902344 24.148438 Z M 16.902344 24.148438 "/>
<path style=" stroke:none;fill-rule:nonzero;fill:rgb(98.823529%,99.607843%,100%);fill-opacity:1;" d="M 19.214844 29.019531 C 19.214844 27.644531 19.207031 26.308594 19.214844 24.972656 C 19.222656 24.121094 19.914062 23.566406 20.683594 23.773438 C 21.148438 23.898438 21.519531 24.320312 21.523438 24.808594 C 21.535156 26.394531 21.535156 27.984375 21.519531 29.570312 C 21.515625 30.136719 21.042969 30.601562 20.476562 30.660156 C 19.941406 30.71875 19.398438 30.34375 19.273438 29.800781 C 19.214844 29.558594 19.230469 29.304688 19.214844 29.019531 Z M 19.214844 29.019531 "/>
<path style=" stroke:none;fill-rule:nonzero;fill:rgb(99.215686%,99.607843%,100%);fill-opacity:1;" d="M 12.292969 27 C 12.292969 27.824219 12.296875 28.613281 12.292969 29.398438 C 12.289062 30.128906 11.804688 30.660156 11.144531 30.664062 C 10.484375 30.671875 9.980469 30.136719 9.976562 29.414062 C 9.972656 27.929688 9.972656 26.441406 9.980469 24.953125 C 9.980469 24.253906 10.484375 23.722656 11.125 23.722656 C 11.777344 23.722656 12.285156 24.242188 12.292969 24.9375 C 12.300781 25.613281 12.292969 26.289062 12.292969 27 Z M 12.292969 27 "/>
<path style=" stroke:none;fill-rule:nonzero;fill:rgb(14.509804%,98.823529%,99.215686%);fill-opacity:1;" d="M 10.984375 14.484375 C 11.695312 14.484375 12.199219 14.886719 12.292969 15.492188 C 12.367188 15.996094 12.023438 16.542969 11.519531 16.726562 C 10.941406 16.929688 10.300781 16.648438 10.070312 16.082031 C 9.832031 15.5 10.097656 14.832031 10.671875 14.582031 C 10.761719 14.542969 10.859375 14.519531 10.984375 14.484375 Z M 10.984375 14.484375 "/>
<path style=" stroke:none;fill-rule:nonzero;fill:rgb(14.509804%,98.823529%,99.215686%);fill-opacity:1;" d="M 19.367188 20.816406 C 19.089844 20.128906 19.261719 19.574219 19.832031 19.257812 C 20.3125 18.992188 20.957031 19.117188 21.277344 19.542969 C 21.6875 20.082031 21.585938 20.816406 21.054688 21.195312 C 20.476562 21.601562 19.777344 21.453125 19.367188 20.816406 Z M 19.367188 20.816406 "/>
<path style=" stroke:none;fill-rule:nonzero;fill:rgb(14.509804%,99.215686%,99.215686%);fill-opacity:1;" d="M 10.179688 20.929688 C 9.746094 20.042969 10.203125 19.148438 11.070312 19.121094 C 11.632812 19.105469 12.058594 19.402344 12.230469 19.933594 C 12.390625 20.410156 12.207031 20.941406 11.796875 21.210938 C 11.339844 21.511719 10.800781 21.484375 10.382812 21.136719 C 10.316406 21.082031 10.257812 21.011719 10.179688 20.929688 Z M 10.179688 20.929688 "/>
<path style=" stroke:none;fill-rule:nonzero;fill:rgb(14.509804%,99.215686%,99.215686%);fill-opacity:1;" d="M 23.9375 15.191406 C 24.199219 14.710938 24.574219 14.4375 25.097656 14.488281 C 25.601562 14.535156 25.929688 14.835938 26.097656 15.316406 C 26.257812 15.773438 26.105469 16.148438 25.789062 16.46875 C 25.476562 16.785156 25.085938 16.890625 24.660156 16.746094 C 24.214844 16.59375 23.925781 16.273438 23.859375 15.800781 C 23.832031 15.613281 23.902344 15.414062 23.9375 15.191406 Z M 23.9375 15.191406 "/>
<path style=" stroke:none;fill-rule:nonzero;fill:rgb(14.509804%,98.823529%,99.215686%);fill-opacity:1;" d="M 19.207031 15.609375 C 19.320312 15.335938 19.390625 15.054688 19.554688 14.851562 C 19.898438 14.4375 20.445312 14.371094 20.910156 14.621094 C 21.371094 14.867188 21.632812 15.433594 21.503906 15.917969 C 21.375 16.414062 20.878906 16.800781 20.382812 16.800781 C 19.851562 16.796875 19.40625 16.449219 19.269531 15.929688 C 19.242188 15.835938 19.226562 15.738281 19.207031 15.609375 Z M 19.207031 15.609375 "/>
<path style=" stroke:none;fill-rule:nonzero;fill:rgb(14.509804%,98.823529%,99.215686%);fill-opacity:1;" d="M 14.621094 15.671875 C 14.527344 15.054688 15.144531 14.496094 15.742188 14.480469 C 16.375 14.464844 16.871094 14.953125 16.882812 15.578125 C 16.894531 16.277344 16.449219 16.777344 15.796875 16.800781 C 15.152344 16.820312 14.660156 16.359375 14.621094 15.671875 Z M 14.621094 15.671875 "/>
<path style=" stroke:none;fill-rule:nonzero;fill:rgb(99.607843%,99.607843%,99.607843%);fill-opacity:1;" d="M 38.414062 19.816406 C 39.105469 19.144531 39.886719 18.925781 40.769531 19.257812 C 41.695312 19.609375 42.207031 20.339844 42.289062 21.304688 C 42.355469 22.148438 42.34375 23.003906 42.292969 23.847656 C 42.222656 25.070312 41.167969 26.039062 40 26.03125 C 38.835938 26.027344 37.796875 25.035156 37.734375 23.816406 C 37.691406 22.992188 37.703125 22.167969 37.730469 21.34375 C 37.753906 20.765625 38.003906 20.261719 38.414062 19.816406 Z M 38.414062 19.816406 "/>
<path style=" stroke:none;fill-rule:nonzero;fill:rgb(99.607843%,99.607843%,99.607843%);fill-opacity:1;" d="M 54.046875 20.691406 C 54.527344 19.578125 55.394531 19.019531 56.453125 19.128906 C 57.425781 19.226562 58.308594 20.03125 58.425781 21.136719 C 58.527344 22.105469 58.53125 23.109375 58.414062 24.078125 C 58.265625 25.292969 57.21875 26.078125 56.050781 26.03125 C 54.992188 25.984375 54.027344 25.070312 53.925781 23.917969 C 53.835938 22.851562 53.753906 21.777344 54.046875 20.691406 Z M 54.046875 20.691406 "/>
</g>
</svg>
