<?xml version="1.0" encoding="UTF-8"?>
<svg xmlns="http://www.w3.org/2000/svg"
    xmlns:xlink="http://www.w3.org/1999/xlink" width="100" height="32" viewBox="0 0 365 85.78" version="1.1">
    <g id="surface1">
        <path style=" stroke:none;fill-rule:nonzero;fill:rgb(0.799561%,0.799561%,0.799561%);fill-opacity:1;" d="M 365 20.171875 L 365 66.207031 L 359.058594 66.207031 L 359.058594 20.171875 Z M 327.980469 61.699219 C 329.140625 61.90625 330.851563 61.972656 332.96875 61.972656 C 339.113281 61.972656 344.78125 59.71875 344.78125 53.023438 C 344.78125 46.742188 339.386719 44.148438 332.898438 44.148438 L 327.980469 44.148438 Z M 327.980469 39.640625 L 333.378906 39.640625 C 339.660156 39.640625 343.347656 36.359375 343.347656 31.921875 C 343.347656 26.523438 339.25 24.40625 333.238281 24.40625 C 330.507813 24.40625 328.9375 24.613281 327.980469 24.816406 Z M 322.039063 20.789063 C 324.636719 20.242188 328.734375 19.832031 332.898438 19.832031 C 338.839844 19.832031 342.664063 20.855469 345.535156 23.179688 C 347.925781 24.953125 349.359375 27.6875 349.359375 31.304688 C 349.359375 35.746094 346.421875 39.640625 341.574219 41.414063 L 341.574219 41.550781 C 345.945313 42.644531 351.066406 46.261719 351.066406 53.09375 C 351.066406 57.054688 349.496094 60.058594 347.171875 62.3125 C 343.964844 65.25 338.773438 66.617188 331.261719 66.617188 C 327.160156 66.617188 324.019531 66.34375 322.039063 66.070313 Z M 285.023438 43.464844 C 285.023438 39.570313 284.953125 36.222656 284.75 33.148438 L 290.007813 33.148438 L 290.210938 39.640625 L 290.484375 39.640625 C 291.988281 35.199219 295.609375 32.398438 299.636719 32.398438 C 300.320313 32.398438 300.800781 32.46875 301.34375 32.605469 L 301.34375 38.273438 C 300.730469 38.136719 300.117188 38.066406 299.296875 38.066406 C 295.0625 38.066406 292.054688 41.277344 291.238281 45.785156 C 291.101563 46.605469 290.964844 47.5625 290.964844 48.585938 L 290.964844 66.207031 L 285.023438 66.207031 Z M 271.773438 46.46875 C 271.839844 42.644531 270.199219 36.703125 263.4375 36.703125 C 257.359375 36.703125 254.695313 42.300781 254.21875 46.46875 Z M 254.152344 50.769531 C 254.285156 58.898438 259.476563 62.246094 265.488281 62.246094 C 269.789063 62.246094 272.386719 61.492188 274.640625 60.539063 L 275.664063 64.839844 C 273.546875 65.796875 269.925781 66.890625 264.667969 66.890625 C 254.492188 66.890625 248.414063 60.195313 248.414063 50.226563 C 248.414063 40.253906 254.285156 32.398438 263.917969 32.398438 C 274.710938 32.398438 277.578125 41.890625 277.578125 47.972656 C 277.578125 49.199219 277.441406 50.15625 277.371094 50.769531 Z M 203.609375 33.148438 L 207.980469 49.953125 C 208.9375 53.640625 209.824219 57.054688 210.4375 60.46875 L 210.644531 60.46875 C 211.394531 57.121094 212.488281 53.570313 213.578125 50.019531 L 218.976563 33.148438 L 224.027344 33.148438 L 229.152344 49.679688 C 230.382813 53.640625 231.335938 57.121094 232.089844 60.46875 L 232.292969 60.46875 C 232.839844 57.121094 233.726563 53.640625 234.820313 49.746094 L 239.535156 33.148438 L 245.476563 33.148438 L 234.820313 66.207031 L 229.355469 66.207031 L 224.304688 50.429688 C 223.140625 46.742188 222.183594 43.464844 221.363281 39.570313 L 221.230469 39.570313 C 220.410156 43.53125 219.386719 46.945313 218.222656 50.5 L 212.894531 66.207031 L 207.433594 66.207031 L 197.460938 33.148438 Z M 167.886719 49.746094 C 167.886719 56.988281 172.050781 62.449219 177.925781 62.449219 C 183.664063 62.449219 187.964844 57.054688 187.964844 49.609375 C 187.964844 44.011719 185.164063 36.90625 178.0625 36.90625 C 170.960938 36.90625 167.886719 43.464844 167.886719 49.746094 Z M 194.113281 49.40625 C 194.113281 61.632813 185.644531 66.957031 177.652344 66.957031 C 168.707031 66.957031 161.808594 60.402344 161.808594 49.953125 C 161.808594 38.886719 169.046875 32.398438 178.199219 32.398438 C 187.691406 32.398438 194.113281 39.296875 194.113281 49.40625 Z M 135.714844 42.917969 C 137.015625 43.257813 138.652344 43.394531 140.632813 43.394531 C 147.804688 43.394531 152.175781 39.910156 152.175781 33.558594 C 152.175781 27.480469 147.875 24.542969 141.316406 24.542969 C 138.722656 24.542969 136.742188 24.75 135.714844 25.023438 Z M 129.773438 20.71875 C 132.644531 20.242188 136.398438 19.832031 141.179688 19.832031 C 147.054688 19.832031 151.355469 21.199219 154.089844 23.65625 C 156.617188 25.84375 158.117188 29.1875 158.117188 33.285156 C 158.117188 37.453125 156.890625 40.730469 154.566406 43.121094 C 151.425781 46.46875 146.304688 48.175781 140.496094 48.175781 C 138.722656 48.175781 137.082031 48.109375 135.714844 47.765625 L 135.714844 66.207031 L 129.773438 66.207031 Z M 83.320313 21.527344 L 10.402344 0.234375 C 9.855469 0.0742188 9.3125 0 8.777344 0 C 5.703125 0 3.023438 2.492188 3.023438 5.769531 L 3.023438 40.1875 L 7.34375 40.1875 L 7.34375 5.769531 C 7.34375 4.875 8.089844 4.324219 8.777344 4.324219 C 8.914063 4.324219 9.050781 4.34375 9.191406 4.382813 L 82.105469 25.675781 C 82.71875 25.855469 83.144531 26.421875 83.144531 27.058594 L 83.144531 72.976563 C 83.144531 73.867188 82.402344 74.421875 81.714844 74.421875 C 81.578125 74.421875 81.441406 74.398438 81.296875 74.359375 L 64.667969 69.503906 L 64.667969 74.003906 L 80.085938 78.507813 C 80.632813 78.667969 81.179688 78.742188 81.714844 78.742188 C 84.789063 78.742188 87.464844 76.25 87.464844 72.976563 L 87.464844 27.058594 C 87.464844 24.5 85.777344 22.246094 83.320313 21.527344 Z M 59.363281 80.3125 L 59.363281 33.777344 C 59.363281 30.757813 56.917969 28.3125 53.898438 28.3125 C 50.878906 28.3125 48.429688 30.757813 48.429688 33.777344 L 48.429688 80.3125 C 48.429688 83.332031 50.878906 85.78125 53.898438 85.78125 C 56.917969 85.78125 59.363281 83.332031 59.363281 80.3125 Z M 43.21875 75.195313 L 43.21875 39.484375 C 43.21875 36.46875 40.773438 34.019531 37.753906 34.019531 C 34.734375 34.019531 32.289063 36.46875 32.289063 39.484375 L 32.289063 75.195313 C 32.289063 78.214844 34.734375 80.660156 37.753906 80.660156 C 40.773438 80.660156 43.21875 78.214844 43.21875 75.195313 Z M 27.078125 69.667969 L 27.078125 44.699219 C 27.078125 41.683594 24.628906 39.234375 21.609375 39.234375 C 18.589844 39.234375 16.144531 41.683594 16.144531 44.699219 L 16.144531 69.667969 C 16.144531 72.6875 18.589844 75.132813 21.609375 75.132813 C 24.628906 75.132813 27.078125 72.6875 27.078125 69.667969 Z M 5.464844 70.195313 C 2.449219 70.195313 0 67.746094 0 64.726563 L 0 50.304688 C 0 47.285156 2.449219 44.839844 5.464844 44.839844 C 8.484375 44.839844 10.933594 47.285156 10.933594 50.304688 L 10.933594 64.726563 C 10.933594 67.746094 8.484375 70.195313 5.464844 70.195313 "/>
    </g>
</svg>
