<?xml version="1.0" encoding="UTF-8"?>
<svg xmlns="http://www.w3.org/2000/svg" xmlns:xlink="http://www.w3.org/1999/xlink" width="45px" height="45px" viewBox="0 0 45 45" version="1.1">
<g id="surface1">
<path style=" stroke:none;fill-rule:nonzero;fill:rgb(0%,0%,0%);fill-opacity:1;" d="M 19.417969 0.300781 C 14.433594 1 10.609375 2.882812 6.945312 6.40625 C 2.984375 10.1875 0.800781 14.753906 0.179688 20.4375 C -0.261719 24.660156 0.5 28.683594 2.523438 32.6875 C 3.421875 34.492188 5.425781 37.375 5.886719 37.554688 C 6.023438 37.613281 8.246094 37.054688 10.828125 36.332031 C 13.410156 35.613281 16.234375 34.832031 17.113281 34.609375 C 24.339844 32.6875 30.027344 30.40625 31.886719 28.644531 L 32.648438 27.925781 L 32.230469 29.027344 C 31.1875 31.769531 30.828125 32.289062 29.464844 32.949219 C 26.605469 34.371094 21.578125 35.773438 12.652344 37.59375 L 6.964844 38.753906 L 7.808594 39.515625 C 8.886719 40.496094 11.609375 42.238281 13.011719 42.898438 C 18.976562 45.601562 25.644531 45.660156 31.507812 43.097656 C 35.773438 41.214844 39.335938 38.09375 41.777344 34.109375 C 45.121094 28.644531 45.902344 21.359375 43.800781 15.3125 C 42.976562 12.992188 42.679688 12.410156 42.238281 12.410156 C 41.835938 12.410156 37.734375 13.132812 30.628906 14.433594 C 17.875 16.773438 12.691406 18.234375 10.667969 20.078125 C 10.410156 20.296875 10.210938 20.4375 10.210938 20.398438 C 10.210938 20.257812 12.832031 14.191406 13.410156 12.953125 C 14.03125 11.648438 15.132812 10.769531 17.714844 9.507812 C 20.519531 8.128906 22.621094 7.425781 29.425781 5.503906 C 32.449219 4.664062 34.949219 3.945312 34.992188 3.902344 C 35.132812 3.761719 32.207031 2.183594 30.726562 1.601562 C 27.382812 0.28125 23.039062 -0.21875 19.417969 0.300781 Z M 19.417969 0.300781 "/>
</g>
</svg>
