<?xml version="1.0" encoding="UTF-8"?>
<svg xmlns="http://www.w3.org/2000/svg" xmlns:xlink="http://www.w3.org/1999/xlink" width="45px" height="45px" viewBox="0 0 45 45" version="1.1">
<g id="surface1">
<path style=" stroke:none;fill-rule:nonzero;fill:rgb(0%,0%,0%);fill-opacity:1;" d="M 19.808594 2.429688 C 11.050781 3.714844 4.417969 10.003906 2.589844 18.785156 C 2.25 20.351562 2.25 24.691406 2.570312 26.214844 C 3.054688 28.464844 4.359375 31.941406 4.722656 31.941406 C 4.78125 31.941406 6.289062 30.835938 8.074219 29.492188 C 9.882812 28.164062 11.632812 26.941406 11.992188 26.777344 C 12.957031 26.398438 14.402344 26.457031 15.410156 26.941406 C 16.132812 27.28125 16.714844 27.925781 18.382812 30.132812 C 19.527344 31.660156 20.773438 33.085938 21.152344 33.328125 C 24.386719 35.316406 28.527344 33.105469 28.546875 29.371094 C 28.566406 28.085938 28.164062 26.898438 27.460938 26.15625 C 26.71875 25.351562 25.292969 24.769531 22.300781 24.007812 C 17.476562 22.800781 15.832031 21.777344 14.625 19.324219 C 14.023438 18.121094 13.960938 17.820312 13.980469 16.273438 C 14.003906 15.085938 14.144531 14.242188 14.425781 13.519531 C 16.050781 9.300781 20.710938 7.210938 24.929688 8.820312 C 26.519531 9.421875 27.644531 10.488281 30.074219 13.699219 C 31.300781 15.328125 32.382812 16.574219 32.664062 16.675781 C 33.410156 16.957031 34.230469 16.914062 35.15625 16.554688 C 35.898438 16.253906 35.960938 16.171875 35.859375 15.667969 C 35.777344 15.347656 35.839844 15.046875 36 14.90625 C 36.28125 14.664062 39.917969 14.261719 40.339844 14.425781 C 40.5 14.484375 40.800781 14.925781 41.003906 15.429688 L 41.402344 16.351562 L 39.835938 17.917969 C 38.972656 18.785156 38.191406 19.488281 38.089844 19.488281 C 37.988281 19.488281 37.6875 19.304688 37.445312 19.066406 L 37.003906 18.644531 L 35.699219 19.164062 C 34.152344 19.769531 32.964844 19.828125 31.839844 19.304688 C 30.757812 18.804688 29.953125 17.980469 27.785156 15.148438 C 26.777344 13.839844 25.695312 12.515625 25.394531 12.214844 C 23.484375 10.425781 20.128906 10.585938 18.242188 12.535156 C 16.535156 14.285156 16.152344 16.613281 17.238281 18.523438 C 18 19.910156 19.085938 20.472656 22.742188 21.375 C 26.054688 22.21875 27.863281 23.042969 29.25 24.347656 C 33.085938 27.984375 31.257812 34.914062 26.054688 36.460938 C 23.765625 37.144531 21.074219 36.683594 19.226562 35.277344 C 18.761719 34.933594 17.519531 33.488281 16.453125 32.0625 C 15.367188 30.636719 14.382812 29.410156 14.242188 29.308594 C 13.5 28.847656 12.878906 29.167969 9.460938 31.722656 L 6.007812 34.3125 L 6.992188 35.496094 C 9.644531 38.691406 13.359375 41.003906 17.578125 42.105469 C 19.304688 42.570312 20.007812 42.628906 22.5 42.628906 C 24.992188 42.628906 25.714844 42.570312 27.421875 42.105469 C 34.933594 40.160156 40.699219 34.210938 42.289062 26.71875 C 43.050781 23.121094 42.871094 20.148438 41.664062 15.949219 C 41.484375 15.269531 42.449219 14.964844 43.59375 15.367188 C 44.296875 15.609375 44.496094 15.628906 44.617188 15.429688 C 44.820312 15.105469 44.679688 14.964844 43.753906 14.683594 L 43.011719 14.445312 L 43.3125 13.761719 C 43.675781 12.898438 43.675781 12.738281 43.3125 12.597656 C 43.089844 12.515625 42.929688 12.757812 42.691406 13.441406 C 42.46875 14.101562 42.207031 14.484375 41.847656 14.644531 C 41.566406 14.765625 41.304688 14.847656 41.285156 14.824219 C 41.242188 14.785156 40.902344 14.082031 40.480469 13.257812 C 36.742188 5.746094 28.105469 1.226562 19.808594 2.429688 Z M 19.808594 2.429688 "/>
</g>
</svg>
