 <svg version="1.0" xmlns="http://www.w3.org/2000/svg"  width="107.000000pt" height="130.000000pt" viewBox="0 0 107.000000 130.000000"  preserveAspectRatio="xMidYMid meet">  <g transform="translate(0.000000,130.000000) scale(0.100000,-0.100000)" fill="#000000" stroke="none"> <path d="M0 650 l0 -650 535 0 535 0 0 650 0 650 -330 0 c-202 0 -331 -4 -335 -10 -3 -6 -12 -10 -18 -10 -7 0 -6 4 3 10 10 6 -53 10 -187 10 l-203 0 0 -650z m660 578 c109 -33 230 -131 278 -224 94 -185 57 -413 -90 -550 -97 -89 -187 -125 -313 -125 -356 -1 -572 385 -389 697 59 100 195 193 314 213 60 10 146 5 200 -11z m293 -103 c-3 -9 -8 -14 -10 -11 -3 3 -2 9 2 15 9 16 15 13 8 -4z m70 -165 c3 -11 3 -20 1 -20 -2 0 -8 9 -14 20 -6 11 -7 20 -2 20 6 0 12 -9 15 -20z m4 -272 c-3 -8 -6 -5 -6 6 -1 11 2 17 5 13 3 -3 4 -12 1 -19z m-74 -193 c-3 -9 -8 -14 -10 -11 -3 3 -2 9 2 15 9 16 15 13 8 -4z m-778 -25 c-4 -6 -1 -17 5 -25 7 -8 10 -15 6 -15 -3 0 -9 -1 -13 -2 -3 -2 -7 6 -9 16 -3 20 3 36 12 36 3 0 2 -5 -1 -10z m252 -176 c-3 -3 -12 -4 -19 -1 -8 3 -5 6 6 6 11 1 17 -2 13 -5z m72 -37 c-4 -43 -4 -43 22 -34 33 13 56 4 71 -27 9 -20 8 -30 -6 -51 -15 -22 -23 -25 -61 -23 l-45 3 0 88 c0 57 4 87 11 87 7 0 10 -16 8 -43z m47 -3 c1 -9 0 -13 -4 -10 -3 4 -7 14 -8 22 -1 9 0 13 4 10 3 -4 7 -14 8 -22z m-343 -30 c13 -13 -5 -25 -19 -13 -11 9 -18 9 -26 1 -14 -14 -2 -28 27 -34 14 -2 20 -11 20 -28 0 -20 -6 -26 -29 -28 -29 -4 -55 12 -42 25 4 4 11 1 16 -6 9 -15 40 -8 40 9 0 6 -13 16 -30 21 -31 11 -34 17 -24 43 6 16 54 22 67 10z m124 -24 c12 -25 12 -25 -39 -30 -49 -5 -51 -6 -34 -22 19 -20 42 -23 51 -8 8 12 25 13 25 1 0 -5 -14 -14 -30 -20 -26 -9 -34 -7 -50 9 -25 25 -26 57 -3 82 23 26 64 20 80 -12z m111 17 c6 -7 11 -31 10 -54 l0 -41 -42 2 c-34 1 -42 5 -44 23 -3 17 3 26 23 33 15 6 31 8 36 4 5 -3 9 1 9 9 0 20 -29 30 -45 17 -14 -11 -30 2 -18 14 11 11 60 6 71 -7z m274 -4 c37 -34 15 -93 -35 -93 -40 0 -57 15 -57 51 0 52 54 77 92 42z m103 7 c-3 -5 -12 -10 -20 -10 -18 0 -26 -24 -19 -59 4 -16 1 -32 -5 -35 -8 -5 -11 11 -11 51 0 58 0 59 31 61 19 2 28 -2 24 -8z m102 -1 c8 -7 13 -32 13 -63 0 -34 -3 -46 -9 -37 -5 8 -7 25 -5 38 4 24 -11 63 -24 63 -22 -1 -37 -24 -43 -67 l-6 -48 -2 60 -1 60 32 2 c17 1 38 -2 45 -8z m-807 -53 c0 -2 -7 -7 -16 -10 -8 -3 -12 -2 -9 4 6 10 25 14 25 6z m-5 -26 c-3 -5 -12 -10 -18 -10 -7 0 -6 4 3 10 19 12 23 12 15 0z"/> <path d="M420 1214 c-216 -58 -360 -284 -320 -503 15 -85 53 -162 112 -227 193 -210 524 -186 687 51 101 145 101 354 1 500 -107 156 -299 228 -480 179z m100 -25 c0 -5 -4 -9 -10 -9 -5 0 -10 7 -10 16 0 8 5 12 10 9 6 -3 10 -10 10 -16z m105 -15 c8 3 17 1 20 -3 4 -7 -18 -18 -43 -20 -8 -1 -10 39 -2 54 3 6 6 0 8 -13 2 -15 9 -22 17 -18z m-75 16 c0 -5 -4 -10 -10 -10 -5 0 -10 5 -10 10 0 6 5 10 10 10 6 0 10 -4 10 -10z m30 0 c0 -5 -4 -10 -10 -10 -5 0 -10 5 -10 10 0 6 5 10 10 10 6 0 10 -4 10 -10z m-170 -14 c0 -15 -48 -28 -56 -15 -3 5 4 9 15 9 11 0 23 5 26 10 9 14 15 12 15 -4z m266 -13 c-3 -8 -6 -19 -6 -24 0 -6 -5 -7 -10 -4 -8 5 -8 11 -1 19 7 9 7 16 -2 25 -9 10 -8 11 6 5 11 -4 16 -13 13 -21z m-226 2 c0 -8 -4 -15 -10 -15 -5 0 -10 7 -10 15 0 8 5 15 10 15 6 0 10 -7 10 -15z m130 -11 c0 -8 -4 -12 -10 -9 -5 3 -10 10 -10 16 0 5 5 9 10 9 6 0 10 -7 10 -16z m-60 -4 c0 -5 -5 -10 -11 -10 -5 0 -7 5 -4 10 3 6 8 10 11 10 2 0 4 -4 4 -10z m190 0 c0 -5 -4 -10 -10 -10 -5 0 -10 5 -10 10 0 6 5 10 10 10 6 0 10 -4 10 -10z m-296 -38 c1 -19 -4 -32 -11 -32 -16 0 -26 17 -14 24 5 3 7 16 4 27 -4 15 -2 20 7 17 7 -2 14 -18 14 -36z m66 28 c0 -5 -2 -10 -4 -10 -3 0 -8 5 -11 10 -3 6 -1 10 4 10 6 0 11 -4 11 -10z m80 -5 c10 -12 10 -15 -4 -15 -9 0 -16 7 -16 15 0 8 2 15 4 15 2 0 9 -7 16 -15z m180 -6 c0 -5 -7 -9 -15 -9 -15 0 -20 12 -9 23 8 8 24 -1 24 -14z m-100 -4 c0 -8 5 -15 10 -15 6 0 10 -6 10 -14 0 -8 7 -22 16 -30 17 -17 14 -19 -10 -10 -9 3 -16 14 -16 24 0 10 -7 23 -15 30 -17 14 -20 30 -5 30 6 0 10 -7 10 -15z m130 11 c0 -3 -4 -8 -10 -11 -5 -3 -10 -1 -10 4 0 6 5 11 10 11 6 0 10 -2 10 -4z m-465 -16 c-3 -5 -12 -10 -18 -10 -7 0 -6 4 3 10 19 12 23 12 15 0z m35 0 c0 -5 -5 -10 -10 -10 -7 0 -7 -7 0 -21 11 -19 12 -20 24 -3 10 13 15 14 20 5 8 -13 1 -25 -15 -27 -5 -1 -13 -2 -18 -3 -5 0 -7 -10 -4 -21 3 -11 1 -20 -5 -20 -17 0 -25 20 -13 33 7 9 7 17 0 27 -8 12 -12 12 -16 2 -2 -6 -9 -9 -15 -6 -6 4 -14 0 -19 -7 -4 -7 -11 -10 -15 -7 -9 10 19 35 33 31 7 -3 18 5 25 16 14 22 28 28 28 11z m40 0 c0 -5 -7 -10 -15 -10 -8 0 -15 5 -15 10 0 6 7 10 15 10 8 0 15 -4 15 -10z m60 0 c0 -5 -5 -10 -11 -10 -5 0 -7 5 -4 10 3 6 8 10 11 10 2 0 4 -4 4 -10z m251 -23 c-8 -8 -11 -7 -11 4 0 20 13 34 18 19 3 -7 -1 -17 -7 -23z m99 13 c0 -5 -4 -10 -10 -10 -5 0 -10 5 -10 10 0 6 5 10 10 10 6 0 10 -4 10 -10z m-297 -25 c13 -18 14 -25 5 -25 -7 0 -18 11 -25 25 -14 32 -3 32 20 0z m27 15 c0 -5 -4 -10 -10 -10 -5 0 -10 5 -10 10 0 6 5 10 10 10 6 0 10 -4 10 -10z m215 0 c3 -5 1 -10 -4 -10 -6 0 -11 5 -11 10 0 6 2 10 4 10 3 0 8 -4 11 -10z m-280 -9 c3 -5 1 -12 -5 -16 -5 -3 -10 1 -10 9 0 18 6 21 15 7z m95 -1 c0 -5 -5 -10 -11 -10 -5 0 -7 5 -4 10 3 6 8 10 11 10 2 0 4 -4 4 -10z m30 -6 c0 -8 -5 -12 -10 -9 -6 4 -8 11 -5 16 9 14 15 11 15 -7z m40 0 c0 -8 -4 -12 -10 -9 -5 3 -10 10 -10 16 0 5 5 9 10 9 6 0 10 -7 10 -16z m145 -4 c3 -5 1 -10 -4 -10 -6 0 -11 5 -11 10 0 6 2 10 4 10 3 0 8 -4 11 -10z m63 -1 c-2 -6 -8 -10 -13 -10 -5 0 -11 4 -13 10 -2 6 4 11 13 11 9 0 15 -5 13 -11z m-108 -9 c0 -5 -4 -10 -10 -10 -5 0 -10 5 -10 10 0 6 5 10 10 10 6 0 10 -4 10 -10z m-310 -10 c0 -5 -5 -10 -11 -10 -5 0 -7 5 -4 10 3 6 8 10 11 10 2 0 4 -4 4 -10z m60 -6 c0 -8 -5 -12 -10 -9 -6 4 -8 11 -5 16 9 14 15 11 15 -7z m330 8 c0 -13 -12 -22 -22 -16 -10 6 -1 24 13 24 5 0 9 -4 9 -8z m55 -2 c3 -5 1 -10 -4 -10 -6 0 -11 5 -11 10 0 6 2 10 4 10 3 0 8 -4 11 -10z m-415 -10 c0 -5 -4 -10 -10 -10 -5 0 -10 5 -10 10 0 6 5 10 10 10 6 0 10 -4 10 -10z m97 -21 c-6 -10 -16 -19 -21 -19 -6 0 -5 5 1 11 6 6 9 18 6 25 -4 10 0 12 10 8 13 -5 14 -9 4 -25z m73 20 c0 -5 -11 -9 -25 -9 -33 0 -33 15 0 16 14 1 25 -2 25 -7z m62 -22 c30 6 138 -19 200 -46 69 -29 82 -60 83 -193 0 -58 -3 -109 -7 -113 -4 -4 -22 -3 -40 1 l-33 8 29 5 c25 5 30 11 33 41 1 19 5 53 7 74 3 26 1 35 -4 26 -15 -24 -21 -5 -9 29 9 26 9 35 -1 41 -7 4 -10 12 -6 18 3 5 -2 16 -11 23 -15 12 -16 12 -10 -4 4 -11 9 -31 12 -45 4 -22 4 -23 -4 -7 -8 19 -9 18 -13 -5 l-4 -25 -5 27 c-4 15 -2 25 2 22 5 -3 9 -1 9 5 0 5 -4 12 -10 16 -5 3 -7 11 -4 18 4 11 -39 36 -71 41 -5 1 -23 6 -39 10 -20 6 -31 5 -37 -5 -7 -11 -9 -10 -9 5 0 17 -6 18 -65 14 -36 -3 -72 -11 -80 -18 -9 -8 -15 -8 -15 -2 0 6 -17 2 -37 -8 -21 -10 -51 -24 -68 -32 -16 -7 -37 -19 -45 -27 -18 -17 -22 -41 -7 -41 7 0 5 -5 -3 -10 -20 -13 -39 -12 -20 1 11 7 3 9 -30 5 l-45 -5 40 12 c22 7 41 18 43 25 2 9 -3 10 -15 4 -67 -34 -175 -72 -207 -72 -31 0 -44 -12 -50 -43 -6 -35 10 -35 19 0 3 15 9 22 13 16 4 -6 18 -13 32 -17 l25 -7 -25 16 -25 15 29 -6 c22 -5 27 -4 21 6 -6 9 -3 10 12 2 12 -7 25 -7 34 -1 7 5 25 9 39 10 23 0 23 1 5 9 -23 10 -18 11 63 14 26 1 67 5 92 9 31 4 37 4 20 -2 -24 -9 -19 -12 20 -15 26 -2 119 -37 125 -47 8 -12 8 -12 -55 12 -71 27 -176 35 -237 19 -50 -14 -155 -53 -185 -70 -31 -18 -38 -11 -38 39 l0 48 42 7 c58 9 178 51 268 94 41 19 108 45 149 57 41 12 69 25 62 29 -6 4 -8 12 -5 18 5 7 10 4 15 -9 5 -15 14 -19 31 -16z m88 23 c0 -5 -4 -10 -10 -10 -5 0 -10 5 -10 10 0 6 5 10 10 10 6 0 10 -4 10 -10z m-470 -10 c0 -5 -4 -10 -10 -10 -5 0 -10 5 -10 10 0 6 5 10 10 10 6 0 10 -4 10 -10z m95 1 c3 -5 1 -12 -5 -16 -5 -3 -10 1 -10 9 0 18 6 21 15 7z m120 -1 c3 -5 1 -10 -4 -10 -6 0 -11 5 -11 10 0 6 2 10 4 10 3 0 8 -4 11 -10z m320 0 c-3 -5 -11 -10 -16 -10 -6 0 -7 5 -4 10 3 6 11 10 16 10 6 0 7 -4 4 -10z m-579 -15 c9 -8 12 -20 9 -26 -5 -6 -11 -4 -19 7 -9 11 -18 14 -27 9 -12 -8 -12 -6 0 8 16 21 19 21 37 2z m174 -4 c0 -5 9 -11 20 -13 14 -2 17 -7 10 -18 -8 -13 -12 -11 -30 7 -22 25 -25 33 -10 33 6 0 10 -4 10 -9z m60 -7 c0 -14 -3 -14 -15 -4 -8 7 -15 14 -15 16 0 2 7 4 15 4 8 0 15 -7 15 -16z m370 6 c0 -5 -4 -10 -10 -10 -5 0 -10 5 -10 10 0 6 5 10 10 10 6 0 10 -4 10 -10z m30 -10 c0 -5 -4 -10 -10 -10 -5 0 -10 5 -10 10 0 6 5 10 10 10 6 0 10 -4 10 -10z m-685 -10 c3 -5 -1 -10 -10 -10 -9 0 -13 5 -10 10 3 6 8 10 10 10 2 0 7 -4 10 -10z m128 -12 c10 9 17 10 22 2 3 -5 1 -10 -6 -10 -6 0 -18 -8 -25 -17 -13 -17 -13 -17 -14 0 0 9 -7 17 -15 17 -16 0 -20 12 -8 23 3 4 12 -1 18 -10 11 -14 16 -15 28 -5z m57 12 c0 -5 -2 -10 -4 -10 -3 0 -8 5 -11 10 -3 6 -1 10 4 10 6 0 11 -4 11 -10z m-145 -47 c4 -14 2 -23 -4 -23 -6 0 -11 9 -11 20 0 11 -5 20 -11 20 -5 0 -7 5 -3 11 8 13 19 2 29 -28z m175 22 c0 -8 -7 -15 -16 -15 -14 0 -14 3 -4 15 7 8 14 15 16 15 2 0 4 -7 4 -15z m-150 -5 c0 -5 -2 -10 -4 -10 -3 0 -8 5 -11 10 -3 6 -1 10 4 10 6 0 11 -4 11 -10z m-80 -10 c0 -5 -4 -10 -10 -10 -5 0 -10 5 -10 10 0 6 5 10 10 10 6 0 10 -4 10 -10z m105 -10 c3 -5 1 -10 -4 -10 -6 0 -11 5 -11 10 0 6 2 10 4 10 3 0 8 -4 11 -10z m85 3 c-1 -5 -16 -15 -35 -24 -30 -14 -35 -14 -35 -2 0 8 5 11 10 8 6 -3 10 -2 10 4 0 8 16 16 43 20 4 0 7 -2 7 -6z m-190 -23 c0 -5 -7 -10 -15 -10 -8 0 -15 5 -15 10 0 6 7 10 15 10 8 0 15 -4 15 -10z m30 -5 c0 -8 -4 -15 -10 -15 -5 0 -10 7 -10 15 0 8 5 15 10 15 6 0 10 -7 10 -15z m258 1 c-7 -8 -17 -12 -22 -9 -4 3 -2 9 5 14 22 13 31 11 17 -5z m-198 -6 c0 -5 -4 -10 -10 -10 -5 0 -10 5 -10 10 0 6 5 10 10 10 6 0 10 -4 10 -10z m-30 -20 c0 -5 -2 -10 -4 -10 -3 0 -8 5 -11 10 -3 6 -1 10 4 10 6 0 11 -4 11 -10z m-33 -6 c-3 -3 -12 -4 -19 -1 -8 3 -5 6 6 6 11 1 17 -2 13 -5z m-57 -14 c0 -5 -7 -10 -15 -10 -8 0 -15 5 -15 10 0 6 7 10 15 10 8 0 15 -4 15 -10z m357 4 c-3 -3 -12 -4 -19 -1 -8 3 -5 6 6 6 11 1 17 -2 13 -5z m46 -84 c29 -9 99 -39 156 -64 57 -26 133 -55 168 -64 72 -19 73 -21 20 -111 -28 -47 -118 -141 -136 -141 -4 0 -5 18 -3 40 l4 40 45 0 c31 0 43 4 40 13 -2 7 -19 11 -45 9 -24 -1 -42 2 -42 8 0 5 -23 10 -51 10 -49 0 -51 1 -47 25 6 27 4 28 -59 25 l-43 -2 0 41 0 41 -50 0 c-49 0 -50 1 -50 31 0 17 -4 28 -10 24 -5 -3 -10 -1 -10 5 0 7 7 9 16 6 9 -3 17 -6 18 -6 2 0 1 -11 -2 -25 -4 -24 -2 -25 41 -25 47 0 74 -18 64 -44 -4 -10 7 -15 41 -19 49 -5 83 -34 59 -49 -12 -8 -12 -8 33 -13 8 -1 20 2 26 6 6 5 16 0 24 -11 16 -22 40 -27 40 -7 0 8 4 7 11 -3 9 -12 10 -11 6 8 -3 12 -1 22 4 22 5 0 9 -7 9 -16 0 -14 3 -14 15 -4 13 11 14 10 8 -6 -6 -17 -5 -17 10 -5 14 11 15 16 5 29 -9 11 -9 13 -1 9 7 -4 20 5 32 22 20 27 29 52 14 38 -3 -4 -12 1 -20 11 -13 15 -13 15 -3 -6 8 -16 8 -27 0 -40 -11 -16 -11 -16 -6 1 9 28 -11 57 -39 57 -14 0 -33 4 -43 10 -9 5 -41 19 -69 31 -29 12 -53 26 -53 31 0 5 -4 7 -9 4 -5 -3 -31 6 -57 21 -27 15 -65 28 -84 29 -19 1 -48 7 -63 13 -38 15 -77 14 -118 -3 -19 -7 -40 -11 -46 -9 -7 2 -23 -3 -35 -11 -12 -9 -16 -16 -9 -16 8 0 11 -6 7 -16 -5 -13 0 -16 28 -12 19 2 32 0 30 -4 -3 -4 2 -5 10 -2 9 3 16 1 16 -5 0 -17 -79 -13 -96 4 -10 10 -11 15 -3 15 8 0 8 4 -1 15 -8 10 -16 12 -19 6 -9 -14 -61 -32 -73 -25 -6 4 -8 -2 -4 -17 3 -13 3 -18 0 -11 -10 22 -26 13 -18 -10 4 -13 7 -27 7 -33 0 -6 19 -8 44 -6 37 3 43 6 43 26 0 13 5 27 10 30 6 4 10 -10 10 -34 l0 -41 -50 0 c-41 0 -50 -3 -50 -17 -1 -23 -24 31 -33 73 -6 31 -5 31 76 66 84 36 133 53 177 61 40 8 127 -3 183 -23z m117 10 c-8 -5 -19 -10 -25 -10 -5 0 -3 5 5 10 8 5 20 10 25 10 6 0 3 -5 -5 -10z m24 -12 c-5 -8 -2 -9 10 -5 9 4 15 3 12 -1 -2 -4 -2 -12 2 -18 13 -18 63 -45 72 -39 6 3 10 1 10 -6 0 -8 11 -9 33 -5 24 4 28 3 17 -4 -12 -9 -10 -11 10 -9 14 1 34 0 45 -1 15 -1 13 -4 -10 -11 -20 -6 -42 -4 -70 5 -57 20 -99 39 -106 49 -3 5 -9 8 -13 7 -4 -1 -21 4 -37 11 l-31 12 29 13 c36 16 35 16 27 2z m-149 -28 c3 -6 -1 -7 -9 -4 -18 7 -21 14 -7 14 6 0 13 -4 16 -10z m-5 -20 c18 -12 2 -12 -25 0 -13 6 -15 9 -5 9 8 0 22 -4 30 -9z m-176 -8 c3 -5 19 -7 37 -4 22 3 30 1 25 -7 -10 -16 -61 -14 -76 4 -8 9 -9 15 -2 15 6 0 13 -4 16 -8z m81 -202 c0 -117 -3 -170 -11 -170 -6 0 -25 5 -43 11 l-31 11 0 159 0 159 43 0 42 0 0 -170z m-95 9 l0 -150 -42 23 -43 23 -3 128 -3 127 46 0 45 0 0 -151z m188 144 c-10 -2 -28 -2 -40 0 -13 2 -5 4 17 4 22 1 32 -1 23 -4z m123 -20 c13 -16 12 -17 -3 -4 -10 7 -18 15 -18 17 0 8 8 3 21 -13z m99 2 c19 -7 28 -14 20 -14 -8 0 -28 6 -45 14 -39 17 -21 18 25 0z m-215 -169 l0 -146 -42 0 -43 0 0 148 0 147 42 -1 43 -1 0 -147z m-296 44 c1 -44 -1 -80 -3 -80 -3 0 -24 23 -46 51 -26 33 -40 61 -40 80 0 28 2 29 44 29 l43 0 2 -80z m461 60 c0 -5 -2 -10 -4 -10 -3 0 -8 5 -11 10 -3 6 -1 10 4 10 6 0 11 -4 11 -10z m-68 -135 c3 -113 3 -114 -59 -115 -22 0 -23 3 -23 110 l0 110 39 0 40 0 3 -105z m142 89 c9 -24 2 -26 -12 -4 -7 11 -8 20 -3 20 5 0 12 -7 15 -16z m-44 -103 c0 -57 -1 -59 -31 -70 -18 -6 -36 -11 -40 -11 -5 0 -9 32 -9 70 l0 70 40 0 40 0 0 -59z"/> <path d="M328 843 c7 -3 16 -2 19 1 4 3 -2 6 -13 5 -11 0 -14 -3 -6 -6z"/> <path d="M158 783 c7 -3 16 -2 19 1 4 3 -2 6 -13 5 -11 0 -14 -3 -6 -6z"/> <path d="M593 603 c9 -2 25 -2 35 0 9 3 1 5 -18 5 -19 0 -27 -2 -17 -5z"/> <path d="M780 465 c-11 -13 -10 -14 4 -9 9 3 16 10 16 15 0 13 -6 11 -20 -6z"/> <path d="M686 776 c10 -8 21 -12 24 -10 5 6 -21 24 -34 24 -6 0 -1 -6 10 -14z"/> <path d="M395 680 c-20 -7 -20 -7 0 -12 18 -5 18 -6 -3 -7 -23 -1 -23 -3 -21 -101 1 -55 6 -100 11 -100 5 0 6 -9 3 -20 -4 -13 -2 -20 7 -20 11 0 11 -2 0 -9 -11 -6 -9 -9 6 -13 16 -4 19 -2 15 10 -5 10 -2 13 6 8 10 -6 12 22 9 129 -2 75 -5 138 -8 140 -3 1 -14 -1 -25 -5z"/> <path d="M276 663 c-4 -10 -1 -20 9 -25 16 -10 20 -34 6 -40 -4 -1 -10 -29 -13 -60 -2 -31 -1 -55 4 -52 4 3 8 -1 9 -8 0 -7 4 -4 9 7 6 14 9 15 9 5 1 -9 -5 -22 -11 -29 -11 -11 -10 -12 1 -6 11 6 13 4 8 -8 -4 -11 -2 -14 8 -11 10 4 15 34 17 121 2 63 0 117 -4 119 -3 2 -13 -3 -21 -11 -20 -19 -28 -19 -21 0 4 8 4 15 1 15 -3 0 -8 -8 -11 -17z"/> <path d="M270 620 c0 -5 5 -10 10 -10 6 0 10 5 10 10 0 6 -4 10 -10 10 -5 0 -10 -4 -10 -10z"/> <path d="M475 501 c0 -106 2 -127 13 -118 10 8 16 7 23 -4 5 -8 9 -12 9 -9 1 3 1 61 2 130 l1 125 -24 3 -24 3 0 -130z m32 97 c-3 -8 -6 -5 -6 6 -1 11 2 17 5 13 3 -3 4 -12 1 -19z"/> <path d="M189 589 c-8 -16 -8 -24 2 -33 9 -8 10 -8 4 3 -5 10 -4 12 4 7 6 -4 9 -12 6 -17 -4 -5 1 -17 11 -26 16 -16 16 -16 9 6 -4 15 -3 21 3 17 6 -4 8 2 5 14 -3 11 -10 17 -17 13 -7 -4 -6 -1 1 9 12 14 8 28 -8 28 -5 0 -13 -9 -20 -21z"/> <path d="M598 553 c-23 -6 -31 -140 -8 -147 11 -3 10 -4 -3 -5 -24 -1 -16 -25 9 -28 18 -3 18 -2 -1 6 -20 10 -20 10 0 11 11 2 23 2 28 1 4 0 7 6 7 15 0 9 -5 12 -12 8 -6 -4 -8 -3 -5 3 8 12 13 130 7 135 -3 3 -13 3 -22 1z"/> <path d="M678 458 c-2 -25 0 -44 5 -41 4 2 7 -1 7 -7 0 -6 8 -4 18 6 10 10 17 33 18 55 0 32 -3 36 -22 35 -19 -1 -23 -8 -26 -48z"/> <path d="M516 207 c-38 -27 2 -96 42 -71 24 16 27 42 6 65 -20 23 -25 23 -48 6z"/> <path d="M262 208 c-20 -20 -14 -28 23 -28 39 0 46 14 16 30 -24 13 -24 13 -39 -2z"/> <path d="M374 159 c-10 -17 12 -32 35 -24 29 9 27 35 -3 35 -14 0 -28 -5 -32 -11z"/> <path d="M646 204 c-32 -31 -6 -81 36 -71 31 8 41 38 21 66 -17 25 -36 27 -57 5z"/> </g> </svg> 