<?xml version="1.0" encoding="iso-8859-1"?>
<!-- Generator: Adobe Illustrator 16.0.0, SVG Export Plug-In . SVG Version: 6.00 Build 0)  -->
<!DOCTYPE svg PUBLIC "-//W3C//DTD SVG 1.1//EN" "http://www.w3.org/Graphics/SVG/1.1/DTD/svg11.dtd">
<svg version="1.1" id="Capa_1"
	xmlns="http://www.w3.org/2000/svg"
	xmlns:xlink="http://www.w3.org/1999/xlink" x="0px" y="0px" width="100" height="32" viewBox="0 0 588.6 588.6" style="enable-background:new 0 0 588.6 588.6;" xml:space="preserve">
	<g>
		<path d="M359.036,537.786c0.771,0.042,1.551,0.115,2.342,0.115h178.2c20.84,0,37.8-16.959,37.8-37.8v-413.1
		c0-20.838-16.96-37.8-37.8-37.8h-178.2c-0.786,0-1.571,0.069-2.342,0.114V0L11.222,46.419v494.562L359.036,588.6V537.786z
		 M359.036,71.033c0.771-0.113,1.54-0.232,2.342-0.232h178.2c8.933,0,16.199,7.267,16.199,16.2v413.1
		c0,8.934-7.267,16.2-16.199,16.2h-178.2c-0.797,0-1.571-0.127-2.342-0.242V71.033z M67.37,329.626
		c-11.749-0.311-23.224-3.881-28.917-7.451l4.63-20.45c6.17,3.527,15.723,7.13,25.671,7.299c10.811,0.189,16.577-4.535,16.577-11.86
		c0-6.982-4.989-11.011-17.495-15.881c-17.064-6.455-28.033-16.569-28.033-32.537c0-18.736,14.462-33.452,38.833-34.096
		c11.852-0.319,20.669,2.133,27.01,5.002l-5.389,20.735c-4.271-2.123-11.805-5.163-22.088-4.989
		c-10.188,0.166-15.082,5.194-15.082,10.956c0,7.08,5.822,10.17,19.28,15.56c18.668,7.288,27.567,17.705,27.567,33.694
		C109.94,314.614,96.143,330.391,67.37,329.626z M223.928,352.566c-16.82-5.511-30.663-11.021-46.013-18.082
		c-2.545-1.107-5.255-1.698-7.944-1.946c-25.315-2.389-48.463-21.932-48.463-59.144c0-34.167,20.838-60.428,54.366-61.314
		c35.419-0.934,55.305,26.24,55.305,58.898c0,27.161-12.538,46.093-28.073,52.801v0.706c9.049,2.843,19.24,5.211,28.614,7.394
		L223.928,352.566z M327.586,334.721l-78.467-2.03V212.119l27.918-0.72v98.838l50.549,0.822V334.721z"/>
		<path d="M175.204,233.06c-17.463,0.303-27.411,17.922-27.411,39.49c-0.177,21.909,10.114,38.857,27.232,39.164
		c17.561,0.306,27.917-16.533,27.917-39.675C202.942,250.475,192.934,232.756,175.204,233.06z"/>
		<path d="M447.768,392.281c41.913,0,74.714-14.977,74.714-34.093v-21.511c0-3.059-0.886-6.165-2.669-9.207l-0.073-0.122
		c1.74-2.926,2.742-6.006,2.742-9.218v-21.51c0-3.059-0.886-6.165-2.669-9.216l-0.231-0.388c1.846-3.014,2.9-6.188,2.9-9.51v-21.508
		c0-2.911-0.807-5.875-2.415-8.807l-0.185-0.34c0.475-1.308,0.807-2.647,0.807-4.065c0-17.384-37.568-26.768-72.921-26.768
		c-35.322,0-72.879,9.384-72.879,26.768c0,1.418,0.332,2.763,0.812,4.071l-0.189,0.34c-1.614,2.932-2.415,5.896-2.415,8.807v21.508
		c0,3.312,1.044,6.491,2.89,9.497l-0.243,0.412c-1.761,3.056-2.646,6.152-2.646,9.21v21.505c0,3.206,0.985,6.28,2.731,9.207
		l-0.085,0.138c-1.761,3.048-2.646,6.153-2.646,9.196v21.516C373.096,377.304,405.896,392.281,447.768,392.281z M381.09,259.601
		c11.981,10.156,39.772,15.417,66.678,15.417c26.947,0,54.717-5.266,66.714-15.423v17.906c0,12.34-27.38,26.091-66.714,26.091
		c-39.298,0-66.678-13.751-66.678-26.091V259.601z M381.09,297.897c12.266,11.227,37.494,18.398,66.678,18.398
		c29.225,0,54.453-7.172,66.714-18.409v20.244c0,12.34-27.38,26.093-66.714,26.093c-39.298,0-66.678-13.753-66.678-26.093V297.897z
		 M381.09,337.954c12.266,11.232,37.494,18.404,66.678,18.404c29.225,0,54.453-7.172,66.714-18.41v20.245
		c0,12.34-27.38,26.088-66.714,26.088c-39.298,0-66.678-13.748-66.678-26.088V337.954z"/>
	</g>
	<g>
	</g>
	<g>
	</g>
	<g>
	</g>
	<g>
	</g>
	<g>
	</g>
	<g>
	</g>
	<g>
	</g>
	<g>
	</g>
	<g>
	</g>
	<g>
	</g>
	<g>
	</g>
	<g>
	</g>
	<g>
	</g>
	<g>
	</g>
	<g>
	</g>
</svg>
