<?xml version="1.0" encoding="UTF-8"?>
<svg xmlns="http://www.w3.org/2000/svg" xmlns:xlink="http://www.w3.org/1999/xlink" width="45px" height="45px" viewBox="0 0 45 51" version="1.1">
<g id="surface1">
<path style=" stroke:none;fill-rule:nonzero;fill:rgb(0%,0%,0%);fill-opacity:1;" d="M 19.71875 1.738281 C 16.660156 3.515625 12.347656 5.972656 5.34375 9.933594 L 0.214844 12.8125 L 0.214844 38.230469 L 4.484375 40.644531 C 6.808594 41.976562 9.265625 43.375 9.914062 43.757812 C 12.628906 45.324219 22.414062 50.832031 22.523438 50.832031 C 22.628906 50.832031 32.414062 45.324219 35.128906 43.757812 C 35.777344 43.375 38.234375 41.976562 40.582031 40.644531 L 44.828125 38.230469 L 44.828125 12.8125 L 39.699219 9.933594 C 35.023438 7.265625 32.867188 6.058594 25.238281 1.714844 C 23.773438 0.890625 22.523438 0.210938 22.433594 0.234375 C 22.371094 0.234375 21.140625 0.933594 19.71875 1.738281 Z M 23.492188 2.964844 C 23.492188 3.070312 23.40625 3.175781 23.277344 3.175781 C 23.167969 3.175781 23.058594 3.070312 23.058594 2.964844 C 23.058594 2.839844 23.167969 2.753906 23.277344 2.753906 C 23.40625 2.753906 23.492188 2.839844 23.492188 2.964844 Z M 23.191406 3.410156 C 23.40625 3.769531 22.910156 4.171875 22.609375 3.875 C 22.347656 3.621094 22.523438 3.175781 22.84375 3.175781 C 22.953125 3.175781 23.101562 3.28125 23.191406 3.410156 Z M 21.183594 3.707031 C 21.207031 3.8125 21.054688 3.9375 20.863281 3.980469 C 20.625 4.023438 20.472656 3.917969 20.472656 3.707031 C 20.472656 3.347656 21.121094 3.324219 21.183594 3.707031 Z M 25.863281 4.871094 C 25.863281 4.976562 25.777344 5.082031 25.667969 5.082031 C 25.539062 5.082031 25.386719 4.976562 25.324219 4.871094 C 25.257812 4.746094 25.34375 4.660156 25.515625 4.660156 C 25.710938 4.660156 25.863281 4.746094 25.863281 4.871094 Z M 21.550781 5.507812 C 21.550781 5.613281 21.402344 5.71875 21.207031 5.71875 C 21.035156 5.71875 20.949219 5.613281 21.011719 5.507812 C 21.078125 5.378906 21.226562 5.292969 21.359375 5.292969 C 21.464844 5.292969 21.550781 5.378906 21.550781 5.507812 Z M 27.972656 5.65625 C 27.886719 6.121094 27.5 6.078125 27.414062 5.632812 C 27.371094 5.421875 27.476562 5.292969 27.695312 5.292969 C 27.910156 5.292969 28.015625 5.441406 27.972656 5.65625 Z M 26.078125 5.71875 C 26.078125 5.824219 25.925781 5.929688 25.753906 5.929688 C 25.582031 5.929688 25.429688 5.824219 25.429688 5.71875 C 25.429688 5.589844 25.582031 5.507812 25.753906 5.507812 C 25.925781 5.507812 26.078125 5.589844 26.078125 5.71875 Z M 17.886719 6.988281 C 17.886719 7.09375 17.800781 7.199219 17.671875 7.199219 C 17.566406 7.199219 17.457031 7.09375 17.457031 6.988281 C 17.457031 6.863281 17.566406 6.777344 17.671875 6.777344 C 17.800781 6.777344 17.886719 6.863281 17.886719 6.988281 Z M 27.886719 6.90625 C 28.339844 7.074219 28.339844 7.710938 27.886719 8.070312 C 27.652344 8.261719 27.457031 8.28125 27.199219 8.113281 C 26.273438 7.539062 26.875 6.523438 27.886719 6.90625 Z M 20.042969 8.152344 C 20.042969 8.324219 19.890625 8.472656 19.71875 8.472656 C 19.546875 8.472656 19.398438 8.324219 19.398438 8.152344 C 19.398438 7.984375 19.546875 7.835938 19.71875 7.835938 C 19.890625 7.835938 20.042969 7.984375 20.042969 8.152344 Z M 20.90625 8.578125 C 20.90625 8.746094 20.820312 8.894531 20.691406 8.894531 C 20.582031 8.894531 20.472656 8.746094 20.472656 8.578125 C 20.472656 8.410156 20.582031 8.261719 20.691406 8.261719 C 20.820312 8.261719 20.90625 8.410156 20.90625 8.578125 Z M 18.058594 8.980469 C 18.191406 9.59375 17.738281 9.890625 17.304688 9.488281 C 17.003906 9.191406 17.003906 9.066406 17.242188 8.789062 C 17.585938 8.386719 17.972656 8.472656 18.058594 8.980469 Z M 29.09375 9.847656 C 29.09375 10.019531 29.007812 10.167969 28.878906 10.167969 C 28.773438 10.167969 28.664062 10.019531 28.664062 9.847656 C 28.664062 9.679688 28.773438 9.53125 28.878906 9.53125 C 29.007812 9.53125 29.09375 9.679688 29.09375 9.847656 Z M 31.035156 9.847656 C 31.035156 10.019531 30.949219 10.167969 30.839844 10.167969 C 30.558594 10.167969 30.367188 9.828125 30.539062 9.65625 C 30.777344 9.425781 31.035156 9.53125 31.035156 9.847656 Z M 26.550781 10.421875 C 26.226562 10.738281 25.992188 10.503906 26.164062 10.039062 C 26.273438 9.765625 26.359375 9.722656 26.550781 9.910156 C 26.746094 10.101562 26.746094 10.230469 26.550781 10.421875 Z M 35.34375 10.273438 C 35.34375 10.441406 35.195312 10.589844 35.023438 10.589844 C 34.847656 10.589844 34.699219 10.441406 34.699219 10.273438 C 34.699219 10.101562 34.847656 9.953125 35.023438 9.953125 C 35.195312 9.953125 35.34375 10.101562 35.34375 10.273438 Z M 21.078125 10.527344 C 20.992188 10.992188 20.601562 10.949219 20.515625 10.503906 C 20.472656 10.292969 20.582031 10.167969 20.796875 10.167969 C 21.011719 10.167969 21.121094 10.3125 21.078125 10.527344 Z M 31.789062 11.648438 C 31.679688 11.816406 31.550781 11.816406 31.421875 11.691406 C 31.292969 11.5625 31.273438 11.351562 31.359375 11.226562 C 31.464844 11.054688 31.59375 11.054688 31.722656 11.183594 C 31.851562 11.308594 31.875 11.523438 31.789062 11.648438 Z M 11.164062 11.777344 C 11.25 12.347656 10.601562 12.621094 10.171875 12.199219 C 9.71875 11.777344 10 11.183594 10.601562 11.265625 C 10.90625 11.308594 11.121094 11.5 11.164062 11.777344 Z M 25 12.390625 C 25 12.558594 24.847656 12.707031 24.675781 12.707031 C 24.503906 12.707031 24.351562 12.558594 24.351562 12.390625 C 24.351562 12.21875 24.503906 12.070312 24.675781 12.070312 C 24.847656 12.070312 25 12.21875 25 12.390625 Z M 8.449219 13.171875 C 8.125 13.492188 7.886719 13.257812 8.058594 12.792969 C 8.167969 12.515625 8.253906 12.476562 8.449219 12.664062 C 8.640625 12.855469 8.640625 12.984375 8.449219 13.171875 Z M 17.628906 13.300781 C 17.714844 13.894531 17.113281 14.148438 16.660156 13.703125 C 16.359375 13.429688 16.359375 13.300781 16.59375 13.023438 C 16.984375 12.558594 17.542969 12.707031 17.628906 13.300781 Z M 30.171875 13.132812 C 30.171875 13.238281 30.085938 13.34375 29.957031 13.34375 C 29.847656 13.34375 29.742188 13.238281 29.742188 13.132812 C 29.742188 13.003906 29.847656 12.917969 29.957031 12.917969 C 30.085938 12.917969 30.171875 13.003906 30.171875 13.132812 Z M 32.328125 13.34375 C 32.328125 13.449219 32.175781 13.554688 32.003906 13.554688 C 31.832031 13.554688 31.679688 13.449219 31.679688 13.34375 C 31.679688 13.214844 31.832031 13.132812 32.003906 13.132812 C 32.175781 13.132812 32.328125 13.214844 32.328125 13.34375 Z M 36.316406 13.34375 C 36.378906 13.46875 36.292969 13.617188 36.097656 13.683594 C 35.691406 13.851562 35.453125 13.683594 35.667969 13.363281 C 35.839844 13.066406 36.140625 13.066406 36.316406 13.34375 Z M 38.363281 13.34375 C 38.363281 13.449219 38.277344 13.554688 38.148438 13.554688 C 38.039062 13.554688 37.929688 13.449219 37.929688 13.34375 C 37.929688 13.214844 38.039062 13.132812 38.148438 13.132812 C 38.277344 13.132812 38.363281 13.214844 38.363281 13.34375 Z M 28.015625 13.660156 C 28.015625 13.832031 27.929688 13.976562 27.824219 13.976562 C 27.542969 13.976562 27.347656 13.640625 27.523438 13.46875 C 27.757812 13.238281 28.015625 13.34375 28.015625 13.660156 Z M 24.09375 14.273438 C 24.179688 14.71875 23.792969 15.058594 23.339844 14.890625 C 23.039062 14.785156 22.953125 14.148438 23.210938 13.894531 C 23.46875 13.640625 24.03125 13.871094 24.09375 14.273438 Z M 5.753906 14.527344 C 5.925781 14.953125 5.582031 15.292969 5.195312 15.058594 C 4.871094 14.847656 5.023438 14.191406 5.386719 14.191406 C 5.515625 14.191406 5.667969 14.339844 5.753906 14.527344 Z M 34.09375 14.71875 C 34.09375 14.824219 33.988281 14.953125 33.859375 14.996094 C 33.726562 15.039062 33.621094 14.910156 33.621094 14.71875 C 33.621094 14.527344 33.726562 14.402344 33.859375 14.445312 C 33.988281 14.488281 34.09375 14.613281 34.09375 14.71875 Z M 41.335938 14.761719 C 41.25 15.226562 40.863281 15.1875 40.777344 14.742188 C 40.734375 14.527344 40.839844 14.402344 41.054688 14.402344 C 41.273438 14.402344 41.378906 14.550781 41.335938 14.761719 Z M 13.363281 14.929688 C 13.363281 15.101562 13.277344 15.25 13.148438 15.25 C 13.039062 15.25 12.929688 15.101562 12.929688 14.929688 C 12.929688 14.761719 13.039062 14.613281 13.148438 14.613281 C 13.277344 14.613281 13.363281 14.761719 13.363281 14.929688 Z M 15.367188 14.929688 C 15.386719 15.039062 15.238281 15.164062 15.042969 15.207031 C 14.804688 15.25 14.65625 15.144531 14.65625 14.929688 C 14.65625 14.570312 15.300781 14.550781 15.367188 14.929688 Z M 39.007812 15.460938 C 39.007812 15.566406 38.964844 15.671875 38.921875 15.671875 C 38.859375 15.671875 38.75 15.566406 38.683594 15.460938 C 38.621094 15.332031 38.664062 15.25 38.773438 15.25 C 38.902344 15.25 39.007812 15.332031 39.007812 15.460938 Z M 29.265625 15.820312 C 29.179688 16.285156 28.792969 16.246094 28.707031 15.800781 C 28.664062 15.589844 28.773438 15.460938 28.988281 15.460938 C 29.203125 15.460938 29.308594 15.609375 29.265625 15.820312 Z M 10.90625 16.5 C 10.820312 16.625 10.558594 16.730469 10.324219 16.730469 C 9.871094 16.730469 9.742188 15.992188 10.195312 15.820312 C 10.539062 15.695312 11.078125 16.203125 10.90625 16.5 Z M 25 16.097656 C 25 16.203125 24.914062 16.308594 24.785156 16.308594 C 24.675781 16.308594 24.570312 16.203125 24.570312 16.097656 C 24.570312 15.96875 24.675781 15.882812 24.785156 15.882812 C 24.914062 15.882812 25 15.96875 25 16.097656 Z M 3.449219 16.308594 C 3.449219 16.414062 3.363281 16.519531 3.234375 16.519531 C 3.125 16.519531 3.015625 16.414062 3.015625 16.308594 C 3.015625 16.179688 3.125 16.097656 3.234375 16.097656 C 3.363281 16.097656 3.449219 16.179688 3.449219 16.308594 Z M 36.898438 16.625 C 36.898438 16.730469 36.789062 16.859375 36.660156 16.902344 C 36.53125 16.945312 36.421875 16.816406 36.421875 16.625 C 36.421875 16.433594 36.53125 16.308594 36.660156 16.351562 C 36.789062 16.394531 36.898438 16.519531 36.898438 16.625 Z M 13.320312 16.773438 C 13.707031 17.15625 13.621094 17.75 13.167969 18.003906 C 12.542969 18.320312 12.070312 18.042969 12.070312 17.367188 C 12.070312 16.582031 12.78125 16.246094 13.320312 16.773438 Z M 42.628906 17.304688 C 42.695312 17.769531 42.027344 18.152344 41.59375 17.898438 C 41.335938 17.75 41.316406 17.089844 41.53125 16.859375 C 41.851562 16.5625 42.566406 16.835938 42.628906 17.304688 Z M 21.984375 17.15625 C 21.984375 17.261719 21.898438 17.367188 21.765625 17.367188 C 21.660156 17.367188 21.550781 17.261719 21.550781 17.15625 C 21.550781 17.027344 21.660156 16.945312 21.765625 16.945312 C 21.898438 16.945312 21.984375 17.027344 21.984375 17.15625 Z M 29.742188 17.601562 C 29.742188 17.707031 29.589844 17.789062 29.417969 17.789062 C 29.09375 17.789062 28.988281 17.535156 29.222656 17.304688 C 29.398438 17.132812 29.742188 17.324219 29.742188 17.601562 Z M 27.585938 17.535156 C 27.585938 17.8125 27.328125 18.003906 27.113281 17.875 C 26.898438 17.75 27.089844 17.367188 27.390625 17.367188 C 27.5 17.367188 27.585938 17.453125 27.585938 17.535156 Z M 40.085938 17.578125 C 40.085938 17.683594 40 17.789062 39.871094 17.789062 C 39.761719 17.789062 39.65625 17.683594 39.65625 17.578125 C 39.65625 17.453125 39.761719 17.367188 39.871094 17.367188 C 40 17.367188 40.085938 17.453125 40.085938 17.578125 Z M 5.496094 18.214844 C 5.558594 18.320312 5.472656 18.425781 5.28125 18.425781 C 5.085938 18.425781 5 18.320312 5.066406 18.214844 C 5.128906 18.085938 5.238281 18.003906 5.28125 18.003906 C 5.324219 18.003906 5.429688 18.085938 5.496094 18.214844 Z M 15.085938 18.339844 C 15.324219 18.59375 15.300781 18.722656 15.023438 19.019531 C 14.675781 19.335938 14.632812 19.335938 14.289062 19.019531 C 14.007812 18.722656 13.988281 18.59375 14.222656 18.339844 C 14.375 18.152344 14.570312 18.003906 14.65625 18.003906 C 14.742188 18.003906 14.933594 18.152344 15.085938 18.339844 Z M 36.722656 18.339844 C 37.113281 18.488281 37.199219 19.378906 36.832031 19.589844 C 36.722656 19.675781 36.378906 19.675781 36.078125 19.613281 C 35.515625 19.464844 35.386719 18.890625 35.820312 18.46875 C 36.121094 18.171875 36.25 18.171875 36.722656 18.339844 Z M 34.050781 18.957031 C 34.050781 19.125 33.921875 19.273438 33.75 19.273438 C 33.382812 19.273438 33.148438 18.976562 33.339844 18.765625 C 33.597656 18.511719 34.050781 18.636719 34.050781 18.957031 Z M 7.113281 19.273438 C 7.113281 19.378906 7.027344 19.484375 6.917969 19.484375 C 6.789062 19.484375 6.636719 19.378906 6.574219 19.273438 C 6.507812 19.144531 6.59375 19.0625 6.765625 19.0625 C 6.960938 19.0625 7.113281 19.144531 7.113281 19.273438 Z M 3.511719 19.421875 C 3.707031 19.613281 3.234375 20.140625 2.996094 19.992188 C 2.695312 19.824219 2.757812 19.273438 3.082031 19.273438 C 3.253906 19.273438 3.449219 19.335938 3.511719 19.421875 Z M 28.449219 19.71875 C 28.449219 19.824219 28.296875 19.910156 28.125 19.910156 C 27.800781 19.910156 27.695312 19.65625 27.929688 19.421875 C 28.101562 19.253906 28.449219 19.441406 28.449219 19.71875 Z M 30.949219 19.507812 C 31.164062 19.867188 30.667969 20.269531 30.367188 19.972656 C 30.109375 19.71875 30.28125 19.273438 30.601562 19.273438 C 30.710938 19.273438 30.863281 19.378906 30.949219 19.507812 Z M 26.292969 19.867188 C 26.292969 20.140625 26.035156 20.332031 25.820312 20.207031 C 25.601562 20.078125 25.796875 19.695312 26.097656 19.695312 C 26.207031 19.695312 26.292969 19.78125 26.292969 19.867188 Z M 21.121094 20.523438 C 21.121094 20.820312 20.734375 21.011719 20.472656 20.863281 C 20.34375 20.777344 20.300781 20.628906 20.367188 20.523438 C 20.539062 20.269531 21.121094 20.269531 21.121094 20.523438 Z M 38.792969 20.945312 C 38.792969 21.074219 38.707031 21.222656 38.578125 21.285156 C 38.46875 21.347656 38.363281 21.265625 38.363281 21.09375 C 38.363281 20.902344 38.46875 20.753906 38.578125 20.753906 C 38.707031 20.753906 38.792969 20.839844 38.792969 20.945312 Z M 41.25 21.265625 C 41.445312 21.539062 41.402344 21.6875 41.078125 21.921875 C 40.582031 22.28125 40.085938 22.003906 40.085938 21.390625 C 40.085938 20.714844 40.863281 20.628906 41.25 21.265625 Z M 14.441406 24.886719 C 14.441406 28.445312 14.417969 28.59375 14.007812 28.59375 C 13.773438 28.59375 13.578125 28.484375 13.578125 28.359375 C 13.578125 28.210938 13.363281 28.253906 13.039062 28.464844 C 11.292969 29.585938 9.308594 27.597656 9.933594 25.308594 C 10.386719 23.679688 11.636719 22.957031 12.910156 23.613281 L 13.578125 23.953125 L 13.578125 22.554688 C 13.578125 21.328125 13.621094 21.179688 14.007812 21.179688 C 14.417969 21.179688 14.441406 21.328125 14.441406 24.886719 Z M 8.988281 22.324219 C 8.816406 22.769531 8.058594 22.746094 7.886719 22.300781 C 7.671875 21.75 8.382812 21.285156 8.792969 21.6875 C 8.964844 21.855469 9.050781 22.152344 8.988281 22.324219 Z M 6.53125 23.464844 C 7.285156 23.550781 7.285156 24.101562 6.53125 24.1875 C 5.949219 24.25 5.925781 24.292969 5.863281 25.667969 C 5.796875 27.257812 6.054688 27.957031 6.679688 27.957031 C 6.960938 27.957031 7.113281 28.105469 7.113281 28.378906 C 7.113281 28.71875 6.960938 28.804688 6.464844 28.804688 C 5.28125 28.804688 4.957031 28.210938 4.957031 26.050781 C 4.957031 24.503906 4.890625 24.144531 4.632812 24.144531 C 4.460938 24.144531 4.308594 23.996094 4.308594 23.828125 C 4.308594 23.65625 4.460938 23.507812 4.632812 23.507812 C 4.804688 23.507812 4.957031 23.320312 4.957031 23.085938 C 4.957031 22.875 5.128906 22.597656 5.34375 22.472656 C 5.648438 22.300781 5.734375 22.367188 5.820312 22.832031 C 5.90625 23.253906 6.078125 23.425781 6.53125 23.464844 Z M 27.996094 23.59375 C 28.664062 23.953125 29.09375 24.738281 29.09375 25.628906 L 29.09375 26.261719 L 27.371094 26.261719 C 26.421875 26.261719 25.648438 26.347656 25.648438 26.472656 C 25.648438 26.582031 25.753906 26.917969 25.90625 27.214844 C 26.183594 27.828125 26.808594 28.042969 27.910156 27.914062 C 28.382812 27.871094 28.683594 27.9375 28.75 28.105469 C 28.902344 28.484375 28.191406 28.804688 27.15625 28.804688 C 26.421875 28.804688 26.121094 28.675781 25.515625 28.082031 C 24.871094 27.449219 24.785156 27.238281 24.785156 26.285156 C 24.785156 24.96875 25.214844 24.058594 26.035156 23.636719 C 26.765625 23.234375 27.242188 23.210938 27.996094 23.59375 Z M 32.5 23.890625 C 32.542969 24.207031 32.457031 24.355469 32.199219 24.355469 C 31.316406 24.355469 31.035156 24.96875 31.035156 26.835938 C 31.035156 28.570312 31.035156 28.59375 30.496094 28.59375 L 29.957031 28.59375 L 29.957031 26.050781 C 29.957031 23.65625 29.976562 23.507812 30.386719 23.507812 C 30.648438 23.507812 30.820312 23.65625 30.820312 23.847656 C 30.820312 24.125 30.925781 24.101562 31.402344 23.722656 C 32.070312 23.210938 32.414062 23.253906 32.5 23.890625 Z M 35.300781 23.425781 C 35.558594 23.507812 35.777344 23.722656 35.777344 23.933594 C 35.777344 24.25 35.648438 24.292969 34.933594 24.207031 C 34.203125 24.101562 34.074219 24.144531 33.945312 24.589844 C 33.816406 24.949219 33.878906 25.140625 34.160156 25.308594 C 35.90625 26.324219 36.183594 26.726562 35.90625 27.828125 C 35.691406 28.632812 34.117188 29.078125 33.191406 28.59375 C 32.476562 28.210938 32.910156 27.828125 34.007812 27.828125 C 34.890625 27.851562 35.023438 27.789062 35.085938 27.363281 C 35.152344 27.023438 34.976562 26.792969 34.460938 26.515625 C 33.40625 25.964844 32.972656 25.480469 32.972656 24.820312 C 32.972656 23.785156 34.09375 23.105469 35.300781 23.425781 Z M 39.742188 23.507812 C 40.386719 23.742188 40.949219 24.714844 40.949219 25.628906 L 40.949219 26.261719 L 39.222656 26.261719 C 37.304688 26.261719 37.15625 26.410156 37.953125 27.40625 C 38.363281 27.914062 38.535156 27.976562 39.527344 27.9375 C 40.410156 27.871094 40.648438 27.9375 40.691406 28.210938 C 40.734375 28.464844 40.539062 28.613281 40 28.71875 C 38.082031 29.058594 36.851562 28.230469 36.679688 26.515625 C 36.550781 25.203125 37.070312 24.101562 37.996094 23.636719 C 38.816406 23.253906 39.007812 23.234375 39.742188 23.507812 Z M 8.835938 26.050781 C 8.835938 28.445312 8.816406 28.59375 8.40625 28.59375 C 7.996094 28.59375 7.972656 28.445312 7.972656 26.050781 C 7.972656 23.65625 7.996094 23.507812 8.40625 23.507812 C 8.816406 23.507812 8.835938 23.65625 8.835938 26.050781 Z M 16.722656 25.246094 C 17.027344 26.21875 17.347656 27.089844 17.414062 27.195312 C 17.457031 27.277344 17.800781 26.496094 18.148438 25.4375 C 18.640625 23.871094 18.859375 23.507812 19.179688 23.507812 C 19.417969 23.507812 19.613281 23.613281 19.613281 23.742188 C 19.613281 24.207031 17.84375 28.699219 17.328125 29.609375 C 16.703125 30.667969 15.820312 31.195312 15.496094 30.6875 C 15.367188 30.476562 15.453125 30.285156 15.839844 29.988281 C 16.140625 29.777344 16.53125 29.355469 16.679688 29.035156 C 16.960938 28.527344 16.917969 28.273438 16.035156 26.050781 C 15.515625 24.714844 15.085938 23.59375 15.085938 23.550781 C 15.085938 23.53125 15.324219 23.507812 15.601562 23.507812 C 16.078125 23.507812 16.183594 23.699219 16.722656 25.246094 Z M 21.445312 25.246094 C 21.765625 26.21875 22.113281 27.066406 22.175781 27.171875 C 22.261719 27.257812 22.609375 26.472656 22.953125 25.414062 C 23.492188 23.742188 23.640625 23.507812 24.074219 23.507812 C 24.351562 23.507812 24.570312 23.53125 24.570312 23.550781 C 24.570312 23.59375 24.136719 24.714844 23.621094 26.050781 C 22.714844 28.402344 22.285156 28.972656 21.765625 28.445312 C 21.660156 28.359375 21.183594 27.195312 20.710938 25.882812 L 19.847656 23.507812 L 20.367188 23.507812 C 20.796875 23.507812 20.949219 23.722656 21.445312 25.246094 Z M 2.585938 24.78125 C 2.585938 24.886719 2.542969 24.992188 2.5 24.992188 C 2.433594 24.992188 2.328125 24.886719 2.261719 24.78125 C 2.199219 24.652344 2.242188 24.566406 2.347656 24.566406 C 2.476562 24.566406 2.585938 24.652344 2.585938 24.78125 Z M 3.234375 26.6875 C 3.234375 26.792969 3.148438 26.898438 3.015625 26.898438 C 2.910156 26.898438 2.800781 26.792969 2.800781 26.6875 C 2.800781 26.558594 2.910156 26.472656 3.015625 26.472656 C 3.148438 26.472656 3.234375 26.558594 3.234375 26.6875 Z M 5.066406 30.921875 C 5.066406 31.535156 4.375 31.789062 4.179688 31.261719 C 3.988281 30.753906 4.265625 30.246094 4.675781 30.328125 C 4.933594 30.371094 5.066406 30.582031 5.066406 30.921875 Z M 25.109375 30.730469 C 25.109375 30.878906 24.933594 31.050781 24.742188 31.089844 C 24.351562 31.15625 24.203125 30.710938 24.503906 30.414062 C 24.71875 30.203125 25.109375 30.390625 25.109375 30.730469 Z M 7.027344 30.941406 C 7.242188 31.304688 6.746094 31.707031 6.445312 31.410156 C 6.183594 31.15625 6.359375 30.710938 6.679688 30.710938 C 6.789062 30.710938 6.941406 30.816406 7.027344 30.941406 Z M 8.621094 31.132812 C 8.621094 31.238281 8.535156 31.34375 8.40625 31.34375 C 8.296875 31.34375 8.191406 31.238281 8.191406 31.132812 C 8.191406 31.007812 8.296875 30.921875 8.40625 30.921875 C 8.535156 30.921875 8.621094 31.007812 8.621094 31.132812 Z M 13.859375 31.28125 C 14.050781 31.472656 13.578125 32.003906 13.339844 31.855469 C 13.039062 31.683594 13.101562 31.132812 13.425781 31.132812 C 13.597656 31.132812 13.792969 31.195312 13.859375 31.28125 Z M 33.277344 31.789062 C 33.101562 32.085938 32.542969 32.023438 32.542969 31.707031 C 32.542969 31.535156 32.609375 31.34375 32.695312 31.28125 C 32.886719 31.089844 33.425781 31.558594 33.277344 31.789062 Z M 18.75 31.664062 C 18.75 31.832031 18.597656 31.980469 18.425781 31.980469 C 18.253906 31.980469 18.101562 31.832031 18.101562 31.664062 C 18.101562 31.492188 18.253906 31.34375 18.425781 31.34375 C 18.597656 31.34375 18.75 31.492188 18.75 31.664062 Z M 37.285156 31.789062 C 37.285156 31.894531 37.132812 31.980469 36.960938 31.980469 C 36.636719 31.980469 36.53125 31.726562 36.765625 31.492188 C 36.941406 31.324219 37.285156 31.515625 37.285156 31.789062 Z M 39.65625 31.894531 C 39.65625 32.066406 39.503906 32.191406 39.332031 32.191406 C 39.007812 32.191406 38.878906 31.746094 39.136719 31.492188 C 39.351562 31.304688 39.65625 31.535156 39.65625 31.894531 Z M 28.167969 31.894531 C 28.234375 32.066406 28.125 32.382812 27.929688 32.574219 C 27.609375 32.890625 27.566406 32.890625 27.242188 32.574219 C 26.789062 32.128906 27.003906 31.558594 27.585938 31.558594 C 27.824219 31.558594 28.082031 31.707031 28.167969 31.894531 Z M 31.53125 31.875 C 31.550781 31.980469 31.402344 32.109375 31.207031 32.148438 C 30.96875 32.191406 30.820312 32.085938 30.820312 31.875 C 30.820312 31.515625 31.464844 31.492188 31.53125 31.875 Z M 3.339844 32.511719 C 3.339844 32.785156 3.167969 32.957031 2.867188 32.996094 C 2.5 33.0625 2.371094 32.957031 2.371094 32.660156 C 2.371094 32.445312 2.433594 32.191406 2.523438 32.109375 C 2.800781 31.832031 3.339844 32.085938 3.339844 32.511719 Z M 9.914062 32.722656 C 9.914062 33.398438 9.308594 33.675781 8.921875 33.167969 C 8.554688 32.660156 8.773438 32.191406 9.398438 32.191406 C 9.804688 32.191406 9.914062 32.296875 9.914062 32.722656 Z M 19.71875 33.0625 C 19.71875 33.210938 19.546875 33.378906 19.351562 33.421875 C 18.964844 33.484375 18.816406 33.039062 19.117188 32.742188 C 19.332031 32.53125 19.71875 32.722656 19.71875 33.0625 Z M 6.984375 33.910156 C 6.917969 34.015625 6.765625 34.054688 6.660156 33.972656 C 6.550781 33.910156 6.507812 33.761719 6.59375 33.652344 C 6.660156 33.546875 6.808594 33.503906 6.917969 33.589844 C 7.027344 33.652344 7.070312 33.800781 6.984375 33.910156 Z M 29.890625 33.800781 C 30.066406 34.246094 29.613281 34.691406 29.289062 34.375 C 29.007812 34.097656 29.179688 33.464844 29.527344 33.464844 C 29.65625 33.464844 29.804688 33.613281 29.890625 33.800781 Z M 38.921875 33.695312 C 38.988281 33.824219 38.964844 34.015625 38.878906 34.097656 C 38.621094 34.351562 38.058594 33.992188 38.234375 33.695312 C 38.425781 33.398438 38.726562 33.398438 38.921875 33.695312 Z M 42.671875 34.417969 C 42.671875 34.585938 42.585938 34.734375 42.457031 34.734375 C 42.347656 34.734375 42.242188 34.585938 42.242188 34.417969 C 42.242188 34.246094 42.347656 34.097656 42.457031 34.097656 C 42.585938 34.097656 42.671875 34.246094 42.671875 34.417969 Z M 15.300781 34.648438 C 15.300781 35.007812 14.828125 34.945312 14.699219 34.566406 C 14.65625 34.417969 14.761719 34.3125 14.957031 34.3125 C 15.152344 34.3125 15.300781 34.457031 15.300781 34.648438 Z M 32.027344 35.601562 C 32.089844 35.730469 32.046875 35.941406 31.917969 36.070312 C 31.722656 36.257812 31.617188 36.238281 31.464844 36.003906 C 31.273438 35.6875 31.378906 35.371094 31.679688 35.371094 C 31.789062 35.371094 31.941406 35.476562 32.027344 35.601562 Z M 36.226562 35.644531 C 36.207031 35.898438 35.90625 35.835938 35.820312 35.558594 C 35.753906 35.433594 35.839844 35.347656 35.992188 35.390625 C 36.121094 35.453125 36.226562 35.558594 36.226562 35.644531 Z M 7.328125 36.214844 C 7.328125 36.324219 7.175781 36.429688 7.003906 36.429688 C 6.832031 36.429688 6.679688 36.324219 6.679688 36.214844 C 6.679688 36.089844 6.832031 36.003906 7.003906 36.003906 C 7.175781 36.003906 7.328125 36.089844 7.328125 36.214844 Z M 25.429688 36.214844 C 25.429688 36.324219 25.34375 36.429688 25.214844 36.429688 C 25.109375 36.429688 25 36.324219 25 36.214844 C 25 36.089844 25.109375 36.003906 25.214844 36.003906 C 25.34375 36.003906 25.429688 36.089844 25.429688 36.214844 Z M 27.261719 36.429688 C 27.261719 36.597656 27.089844 36.765625 26.898438 36.808594 C 26.617188 36.851562 26.507812 36.746094 26.507812 36.429688 C 26.507812 36.109375 26.617188 36.003906 26.898438 36.046875 C 27.089844 36.089844 27.261719 36.257812 27.261719 36.429688 Z M 30.386719 36.851562 C 30.386719 37.382812 29.742188 37.71875 29.246094 37.464844 C 28.40625 37 29.160156 35.792969 30 36.238281 C 30.214844 36.34375 30.386719 36.621094 30.386719 36.851562 Z M 21.507812 37.085938 C 21.59375 37.742188 21.097656 38.015625 20.453125 37.699219 C 20 37.445312 19.890625 36.726562 20.324219 36.554688 C 20.925781 36.300781 21.445312 36.535156 21.507812 37.085938 Z M 8.726562 37.570312 C 8.726562 38.039062 8.425781 38.1875 7.996094 37.933594 C 7.585938 37.679688 7.867188 37.023438 8.339844 37.105469 C 8.554688 37.148438 8.726562 37.359375 8.726562 37.570312 Z M 39.441406 37.699219 C 39.441406 37.804688 39.351562 37.910156 39.222656 37.910156 C 39.117188 37.910156 39.007812 37.804688 39.007812 37.699219 C 39.007812 37.570312 39.117188 37.488281 39.222656 37.488281 C 39.351562 37.488281 39.441406 37.570312 39.441406 37.699219 Z M 12.714844 38.121094 C 12.714844 38.230469 12.628906 38.335938 12.523438 38.335938 C 12.390625 38.335938 12.242188 38.230469 12.175781 38.121094 C 12.113281 37.996094 12.199219 37.910156 12.371094 37.910156 C 12.566406 37.910156 12.714844 37.996094 12.714844 38.121094 Z M 36.984375 38.144531 C 37.046875 38.269531 36.960938 38.523438 36.765625 38.714844 C 36.445312 39.035156 36.402344 39.035156 36.078125 38.714844 C 35.667969 38.3125 35.839844 37.910156 36.421875 37.910156 C 36.636719 37.910156 36.898438 38.015625 36.984375 38.144531 Z M 26.941406 38.84375 C 26.941406 38.90625 26.851562 39.011719 26.722656 39.074219 C 26.617188 39.140625 26.507812 39.097656 26.507812 38.992188 C 26.507812 38.863281 26.617188 38.757812 26.722656 38.757812 C 26.851562 38.757812 26.941406 38.800781 26.941406 38.84375 Z M 31.035156 39.183594 C 31.035156 39.289062 30.925781 39.4375 30.796875 39.519531 C 30.496094 39.691406 30.085938 39.289062 30.257812 38.992188 C 30.410156 38.757812 31.035156 38.90625 31.035156 39.183594 Z M 18.964844 39.183594 C 18.964844 39.289062 18.878906 39.394531 18.75 39.394531 C 18.640625 39.394531 18.535156 39.289062 18.535156 39.183594 C 18.535156 39.054688 18.640625 38.96875 18.75 38.96875 C 18.878906 38.96875 18.964844 39.054688 18.964844 39.183594 Z M 28.878906 39.605469 C 28.878906 39.710938 28.792969 39.816406 28.664062 39.816406 C 28.554688 39.816406 28.449219 39.710938 28.449219 39.605469 C 28.449219 39.476562 28.554688 39.394531 28.664062 39.394531 C 28.792969 39.394531 28.878906 39.476562 28.878906 39.605469 Z M 16.722656 39.839844 C 16.941406 40.199219 16.445312 40.601562 16.140625 40.304688 C 15.882812 40.050781 16.054688 39.605469 16.378906 39.605469 C 16.488281 39.605469 16.636719 39.710938 16.722656 39.839844 Z M 22.089844 40.453125 C 21.984375 40.621094 21.851562 40.621094 21.722656 40.496094 C 21.59375 40.367188 21.574219 40.15625 21.660156 40.027344 C 21.765625 39.859375 21.898438 39.859375 22.027344 39.988281 C 22.15625 40.113281 22.175781 40.324219 22.089844 40.453125 Z M 27.328125 41.914062 C 27.78125 42.1875 27.542969 42.886719 26.984375 42.953125 C 26.402344 43.035156 26.121094 42.484375 26.507812 42.042969 C 26.808594 41.679688 26.941406 41.660156 27.328125 41.914062 Z M 23.382812 42.148438 C 23.449219 42.253906 23.363281 42.359375 23.191406 42.359375 C 22.996094 42.359375 22.84375 42.253906 22.84375 42.148438 C 22.84375 42.019531 22.929688 41.933594 23.039062 41.933594 C 23.167969 41.933594 23.320312 42.019531 23.382812 42.148438 Z M 32.003906 42.78125 C 32.089844 42.910156 31.984375 42.929688 31.765625 42.847656 C 31.488281 42.738281 31.445312 42.78125 31.574219 43.015625 C 31.660156 43.183594 31.679688 43.25 31.574219 43.164062 C 31.488281 43.078125 31.292969 43.164062 31.140625 43.355469 C 30.949219 43.628906 30.839844 43.628906 30.710938 43.417969 C 30.601562 43.226562 30.625 43.183594 30.777344 43.289062 C 30.925781 43.375 31.035156 43.3125 31.035156 43.121094 C 31.035156 42.675781 31.765625 42.402344 32.003906 42.78125 Z M 15.820312 42.910156 C 16.316406 43.101562 16.25 43.777344 15.734375 43.945312 C 15.195312 44.117188 14.871094 43.925781 14.871094 43.4375 C 14.871094 42.824219 15.171875 42.65625 15.820312 42.910156 Z M 21.765625 43.585938 C 21.765625 43.863281 21.507812 44.054688 21.292969 43.925781 C 21.078125 43.800781 21.273438 43.417969 21.574219 43.417969 C 21.679688 43.417969 21.765625 43.503906 21.765625 43.585938 Z M 29.417969 44.265625 C 29.484375 44.371094 29.417969 44.414062 29.246094 44.371094 C 29.09375 44.308594 28.835938 44.476562 28.664062 44.773438 C 28.40625 45.28125 28.363281 45.28125 28.101562 44.941406 C 27.953125 44.753906 27.886719 44.539062 27.929688 44.476562 C 27.996094 44.433594 28.125 44.519531 28.210938 44.667969 C 28.363281 44.898438 28.449219 44.859375 28.640625 44.496094 C 28.921875 44.011719 29.203125 43.925781 29.417969 44.265625 Z M 27.800781 45.070312 C 27.800781 45.175781 27.671875 45.410156 27.523438 45.640625 C 27.285156 45.9375 27.175781 45.960938 27.046875 45.746094 C 26.941406 45.578125 26.960938 45.515625 27.089844 45.597656 C 27.21875 45.683594 27.371094 45.558594 27.433594 45.324219 C 27.542969 44.898438 27.800781 44.730469 27.800781 45.070312 Z M 26.550781 46.085938 C 26.378906 46.382812 26.359375 46.363281 26.359375 45.875 C 26.359375 45.492188 26.421875 45.367188 26.550781 45.492188 C 26.703125 45.640625 26.703125 45.832031 26.550781 46.085938 Z M 25.734375 46.296875 C 25.796875 46.46875 25.777344 46.550781 25.648438 46.488281 C 25.515625 46.425781 25.429688 46.277344 25.429688 46.148438 C 25.429688 45.851562 25.582031 45.917969 25.734375 46.296875 Z M 25.152344 46.699219 C 25.152344 46.871094 25.066406 46.953125 24.976562 46.890625 C 24.890625 46.847656 24.761719 46.933594 24.71875 47.0625 C 24.632812 47.230469 24.589844 47.207031 24.589844 46.976562 C 24.570312 46.785156 24.699219 46.574219 24.847656 46.53125 C 24.976562 46.46875 25.109375 46.402344 25.128906 46.402344 C 25.128906 46.382812 25.152344 46.53125 25.152344 46.699219 Z M 23.878906 47.527344 C 23.726562 47.695312 23.554688 47.78125 23.511719 47.757812 C 23.40625 47.632812 23.726562 47.230469 23.945312 47.230469 C 24.050781 47.230469 24.03125 47.355469 23.878906 47.527344 Z M 23.277344 47.800781 C 23.277344 47.992188 22.671875 48.480469 22.566406 48.375 C 22.347656 48.160156 22.628906 47.71875 22.953125 47.71875 C 23.125 47.71875 23.277344 47.757812 23.277344 47.800781 Z M 23.277344 47.800781 "/>
<path style=" stroke:none;fill-rule:nonzero;fill:rgb(0%,0%,0%);fill-opacity:1;" d="M 11.335938 24.546875 C 10.515625 25.4375 10.734375 27.574219 11.679688 27.871094 C 12.800781 28.210938 13.578125 27.449219 13.578125 26.03125 C 13.578125 24.441406 12.242188 23.550781 11.335938 24.546875 Z M 11.335938 24.546875 "/>
<path style=" stroke:none;fill-rule:nonzero;fill:rgb(0%,0%,0%);fill-opacity:1;" d="M 26.121094 24.398438 C 26.011719 24.546875 25.839844 24.886719 25.777344 25.140625 C 25.625 25.605469 25.667969 25.628906 26.917969 25.628906 C 28.339844 25.628906 28.492188 25.457031 27.886719 24.609375 C 27.523438 24.101562 26.488281 23.976562 26.121094 24.398438 Z M 26.121094 24.398438 "/>
<path style=" stroke:none;fill-rule:nonzero;fill:rgb(0%,0%,0%);fill-opacity:1;" d="M 38.234375 24.3125 C 37.996094 24.460938 37.5 25.265625 37.5 25.5 C 37.5 25.5625 38.082031 25.628906 38.792969 25.628906 C 39.933594 25.628906 40.085938 25.585938 40.085938 25.226562 C 40.085938 24.398438 38.945312 23.847656 38.234375 24.3125 Z M 38.234375 24.3125 "/>
</g>
</svg>
